<svg width="96" height="95" viewBox="0 0 96 95" fill="none" xmlns="http://www.w3.org/2000/svg">
<path d="M93.816 48.0502C94.1409 22.6324 73.7305 1.7647 48.228 1.44084C22.7255 1.11697 1.7883 21.4596 1.46336 46.8773C1.13842 72.2951 21.5488 93.1628 47.0513 93.4867C72.5538 93.8105 93.491 73.4679 93.816 48.0502Z" stroke="#002D72" stroke-width="2.5" stroke-linejoin="round"/>
<path d="M47.5 30C50.5376 30 53 27.5376 53 24.5C53 21.4624 50.5376 19 47.5 19C44.4624 19 42 21.4624 42 24.5C42 27.5376 44.4624 30 47.5 30Z" stroke="#002D72" stroke-width="2.5" stroke-linejoin="round"/>
<path d="M47.5045 34C44.7185 34 42.0467 35.1181 40.0767 37.1085C38.1067 39.0988 37 41.7982 37 44.6129V55.3794H41.2465V76H47.5045H53.7624V55.3794H58V44.6129C58 41.7998 56.8945 39.1017 54.9265 37.1116C52.9584 35.1216 50.2889 34.0024 47.5045 34Z" stroke="#002D72" stroke-width="2.5" stroke-linejoin="round"/>
<path d="M92.3939 92.0869L80.0957 79.8296" stroke="#002D72" stroke-width="2.5" stroke-linejoin="round"/>
<path d="M93.9116 86.6641V93.5883L86.9531 93.5995" stroke="#002D72" stroke-width="2.5" stroke-linecap="round" stroke-linejoin="round"/>
<path d="M2.91211 2.90189L15.2103 15.1592" stroke="#002D72" stroke-width="2.5" stroke-linejoin="round"/>
<path d="M1.4043 8.33588V1.40051H8.36278" stroke="#002D72" stroke-width="2.5" stroke-linecap="round" stroke-linejoin="round"/>
<path d="M92.3939 2.90189L80.0957 15.1592" stroke="#002D72" stroke-width="2.5" stroke-linejoin="round"/>
<path d="M86.9531 1.40051H93.9116V8.33588" stroke="#002D72" stroke-width="2.5" stroke-linecap="round" stroke-linejoin="round"/>
<path d="M2.91211 92.0869L15.2103 79.8296" stroke="#002D72" stroke-width="2.5" stroke-linejoin="round"/>
<path d="M8.36278 93.5883H1.4043V86.6641" stroke="#002D72" stroke-width="2.5" stroke-linecap="round" stroke-linejoin="round"/>
</svg>
