<svg width="110" height="110" viewBox="0 0 110 110" fill="none" xmlns="http://www.w3.org/2000/svg">
<path d="M55.0005 88.6665C73.594 88.6665 88.667 73.5935 88.667 55C88.667 36.4065 73.594 21.3335 55.0005 21.3335C36.407 21.3335 21.334 36.4065 21.334 55C21.334 73.5935 36.407 88.6665 55.0005 88.6665Z" fill="white" stroke="#002D72" stroke-width="2.5" stroke-linejoin="round"/>
<path d="M54.9992 88.6665C62.776 88.6665 69.0804 73.5935 69.0804 55C69.0804 36.4065 62.776 21.3335 54.9992 21.3335C47.2223 21.3335 40.918 36.4065 40.918 55C40.918 73.5935 47.2223 88.6665 54.9992 88.6665Z" fill="white" stroke="#002D72" stroke-width="2.5" stroke-linejoin="round"/>
<path d="M21.334 55H88.667" stroke="#002D72" stroke-width="2.5" stroke-linejoin="round"/>
<path d="M27.3984 35.7151H82.6033" stroke="#002D72" stroke-width="2.5" stroke-linejoin="round"/>
<path d="M27.3984 74.2849H82.6033" stroke="#002D72" stroke-width="2.5" stroke-linejoin="round"/>
<path d="M55 16.6353V10.4893" stroke="#111111" stroke-width="2.5" stroke-linejoin="round"/>
<path d="M54.9991 6.88348C56.5228 6.88348 57.758 5.64829 57.758 4.1246C57.758 2.60091 56.5228 1.36572 54.9991 1.36572C53.4754 1.36572 52.2402 2.60091 52.2402 4.1246C52.2402 5.64829 53.4754 6.88348 54.9991 6.88348Z" fill="white" stroke="#111111" stroke-width="2.5" stroke-linejoin="round"/>
<path d="M35.8249 21.7706L32.7383 16.4441" stroke="#111111" stroke-width="2.5" stroke-linejoin="round"/>
<path d="M29.5694 13.6987C31.0931 13.6987 32.3283 12.4635 32.3283 10.9398C32.3283 9.4161 31.0931 8.18091 29.5694 8.18091C28.0457 8.18091 26.8105 9.4161 26.8105 10.9398C26.8105 12.4635 28.0457 13.6987 29.5694 13.6987Z" fill="white" stroke="#111111" stroke-width="2.5" stroke-linejoin="round"/>
<path d="M21.7699 35.8245L16.4434 32.7378" stroke="#111111" stroke-width="2.5" stroke-linejoin="round"/>
<path d="M10.9405 32.3281C12.4642 32.3281 13.6994 31.0929 13.6994 29.5692C13.6994 28.0455 12.4642 26.8103 10.9405 26.8103C9.41683 26.8103 8.18164 28.0455 8.18164 29.5692C8.18164 31.0929 9.41683 32.3281 10.9405 32.3281Z" fill="white" stroke="#111111" stroke-width="2.5" stroke-linejoin="round"/>
<path d="M16.6343 55H10.4883" stroke="#111111" stroke-width="2.5" stroke-linejoin="round"/>
<path d="M4.12411 57.759C5.6478 57.759 6.88299 56.5238 6.88299 55.0001C6.88299 53.4764 5.6478 52.2412 4.12411 52.2412C2.60043 52.2412 1.36523 53.4764 1.36523 55.0001C1.36523 56.5238 2.60043 57.759 4.12411 57.759Z" fill="white" stroke="#111111" stroke-width="2.5" stroke-linejoin="round"/>
<path d="M21.7699 74.1755L16.4434 77.2622" stroke="#111111" stroke-width="2.5" stroke-linejoin="round"/>
<path d="M10.9405 83.1896C12.4642 83.1896 13.6994 81.9544 13.6994 80.4308C13.6994 78.9071 12.4642 77.6719 10.9405 77.6719C9.41683 77.6719 8.18164 78.9071 8.18164 80.4308C8.18164 81.9544 9.41683 83.1896 10.9405 83.1896Z" fill="white" stroke="#111111" stroke-width="2.5" stroke-linejoin="round"/>
<path d="M35.8249 88.2295L32.7383 93.556" stroke="#111111" stroke-width="2.5" stroke-linejoin="round"/>
<path d="M29.5694 101.819C31.0931 101.819 32.3283 100.584 32.3283 99.0601C32.3283 97.5365 31.0931 96.3013 29.5694 96.3013C28.0457 96.3013 26.8105 97.5365 26.8105 99.0601C26.8105 100.584 28.0457 101.819 29.5694 101.819Z" fill="white" stroke="#111111" stroke-width="2.5" stroke-linejoin="round"/>
<path d="M55 93.3647V99.5244" stroke="#111111" stroke-width="2.5" stroke-linejoin="round"/>
<path d="M54.9991 108.634C56.5228 108.634 57.758 107.399 57.758 105.875C57.758 104.352 56.5228 103.116 54.9991 103.116C53.4754 103.116 52.2402 104.352 52.2402 105.875C52.2402 107.399 53.4754 108.634 54.9991 108.634Z" fill="white" stroke="#111111" stroke-width="2.5" stroke-linejoin="round"/>
<path d="M74.1758 88.2295L77.2624 93.556" stroke="#111111" stroke-width="2.5" stroke-linejoin="round"/>
<path d="M80.4308 101.819C81.9544 101.819 83.1896 100.584 83.1896 99.0601C83.1896 97.5365 81.9544 96.3013 80.4308 96.3013C78.9071 96.3013 77.6719 97.5365 77.6719 99.0601C77.6719 100.584 78.9071 101.819 80.4308 101.819Z" fill="white" stroke="#111111" stroke-width="2.5" stroke-linejoin="round"/>
<path d="M88.2285 74.1755L93.5551 77.2622" stroke="#111111" stroke-width="2.5" stroke-linejoin="round"/>
<path d="M99.0597 83.1896C100.583 83.1896 101.819 81.9544 101.819 80.4308C101.819 78.9071 100.583 77.6719 99.0597 77.6719C97.536 77.6719 96.3008 78.9071 96.3008 80.4308C96.3008 81.9544 97.536 83.1896 99.0597 83.1896Z" fill="white" stroke="#111111" stroke-width="2.5" stroke-linejoin="round"/>
<path d="M93.3652 55H99.5249" stroke="#111111" stroke-width="2.5" stroke-linejoin="round"/>
<path d="M105.876 57.759C107.4 57.759 108.635 56.5238 108.635 55.0001C108.635 53.4764 107.4 52.2412 105.876 52.2412C104.352 52.2412 103.117 53.4764 103.117 55.0001C103.117 56.5238 104.352 57.759 105.876 57.759Z" fill="white" stroke="#111111" stroke-width="2.5" stroke-linejoin="round"/>
<path d="M88.2285 35.8245L93.5551 32.7378" stroke="#111111" stroke-width="2.5" stroke-linejoin="round"/>
<path d="M99.0597 32.3281C100.583 32.3281 101.819 31.0929 101.819 29.5692C101.819 28.0455 100.583 26.8103 99.0597 26.8103C97.536 26.8103 96.3008 28.0455 96.3008 29.5692C96.3008 31.0929 97.536 32.3281 99.0597 32.3281Z" fill="white" stroke="#111111" stroke-width="2.5" stroke-linejoin="round"/>
<path d="M74.1758 21.7706L77.2624 16.4441" stroke="#111111" stroke-width="2.5" stroke-linejoin="round"/>
<path d="M80.4308 13.6987C81.9544 13.6987 83.1896 12.4635 83.1896 10.9398C83.1896 9.4161 81.9544 8.18091 80.4308 8.18091C78.9071 8.18091 77.6719 9.4161 77.6719 10.9398C77.6719 12.4635 78.9071 13.6987 80.4308 13.6987Z" fill="white" stroke="#111111" stroke-width="2.5" stroke-linejoin="round"/>
</svg>
