<svg width="86" height="100" viewBox="0 0 86 100" fill="none" xmlns="http://www.w3.org/2000/svg">
<path d="M36.7408 8.51147C29.2503 9.66711 22.4203 13.4687 17.4863 19.2286C12.5522 24.9885 9.84004 32.3263 9.84037 39.9145C9.84037 43.0237 10.5391 45.7443 9.4522 48.7758C8.92817 50.2332 4.73588 58.803 2.7756 62.7672C2.21275 63.9138 2.34862 64.7105 3.1832 64.8076C5.78396 64.9437 11.1213 65.1963 11.4513 65.2934C11.6172 68.0698 11.6172 70.8537 11.4513 73.63C11.1408 87.3883 18.2443 83.3463 26.0661 83.3463V97.6681H60.1866V76.0397C61.1292 75.1324 62.1416 74.3007 63.2143 73.5523C65.7394 71.2297 67.9865 68.6212 69.9104 65.7793C73.3336 61.2343 75.5203 55.8777 76.257 50.2332" stroke="#111111" stroke-width="3" stroke-linecap="round" stroke-linejoin="round"/>
<path d="M80.0414 37.9077C80.5461 38.1256 81.1321 37.8952 81.3533 37.3919L83.3208 32.9148C83.5453 32.404 83.3084 31.8083 82.7944 31.5913L79.5491 30.2205C79.0951 30.0287 78.8516 29.5352 78.9483 29.052C79.345 27.0705 79.4055 25.0362 79.1272 23.0345C79.0607 22.5561 79.3211 22.0861 79.7723 21.9137L83.1394 20.627C83.6571 20.4291 83.9152 19.8478 83.7147 19.3311L81.9354 14.7464C81.736 14.2325 81.1582 13.9769 80.6438 14.175L77.301 15.4623C76.8528 15.6349 76.3475 15.4627 76.0765 15.0661C74.9307 13.3892 73.5203 11.9098 71.9005 10.686C71.5175 10.3966 71.3695 9.88429 71.5626 9.44493L73.0412 6.08143C73.263 5.57704 73.0349 4.98832 72.5313 4.7649L68.053 2.77821C67.5464 2.55349 66.9537 2.78355 66.7314 3.29116L65.2546 6.66354C65.0617 7.10411 64.5829 7.34199 64.1099 7.25495C62.1433 6.89307 60.1311 6.85185 58.1514 7.13287C57.6752 7.20047 57.2066 6.94315 57.0319 6.49501L55.6586 2.9724C55.4579 2.45772 54.878 2.20323 54.3633 2.40403L49.7884 4.18923C49.2794 4.38782 49.0241 4.95811 49.2149 5.47003L50.5278 8.99298C50.6932 9.43693 50.5227 9.9337 50.1331 10.2033C48.5022 11.3318 47.0605 12.7124 45.862 14.2935C45.5722 14.6758 45.06 14.8232 44.621 14.6296L41.0925 13.0741C40.5865 12.8511 39.9955 13.081 39.7734 13.5874L37.8409 17.9922C37.6191 18.4979 37.8492 19.0878 38.3549 19.3097L41.8604 20.8477C42.3015 21.0412 42.5391 21.5212 42.4504 21.9946C42.0874 23.9336 42.0316 25.918 42.2852 27.8745C42.3463 28.3461 42.0895 28.8069 41.6466 28.9801L38.0198 30.3981C37.506 30.599 37.2519 31.1781 37.452 31.6922L39.2301 36.2601C39.4307 36.7755 40.0116 37.0302 40.5266 36.8285L44.0692 35.4411C44.5223 35.2637 45.0349 35.4399 45.3058 35.8442C46.4071 37.4875 47.7678 38.9408 49.3347 40.1472C49.7129 40.4384 49.8577 40.9482 49.6649 41.385L48.111 44.9055C47.8877 45.4114 48.1174 46.0025 48.6237 46.2249L53.119 48.1992C53.6243 48.4211 54.2138 48.1918 54.4363 47.6867L55.9461 44.2595C56.142 43.8147 56.6289 43.5782 57.1056 43.6732C59.0579 44.0626 61.0603 44.134 63.0354 43.8844C63.512 43.8241 63.9762 44.0879 64.1446 44.5378L65.44 48.0007C65.6354 48.5232 66.2204 48.7847 66.7401 48.582L71.2965 46.804C71.8077 46.6046 72.0626 46.0304 71.8678 45.5174L70.5737 42.1097C70.4027 41.6595 70.5786 41.1538 70.9784 40.8853C72.6597 39.7561 74.1481 38.3628 75.3862 36.759C75.6753 36.3844 76.1795 36.24 76.6139 36.4276L80.0414 37.9077Z" stroke="#002D72" stroke-width="3" stroke-linecap="round" stroke-linejoin="round"/>
<path d="M60.5 35C65.7467 35 70 30.7467 70 25.5C70 20.2533 65.7467 16 60.5 16C55.2533 16 51 20.2533 51 25.5C51 30.7467 55.2533 35 60.5 35Z" stroke="#002D72" stroke-width="3" stroke-linecap="round" stroke-linejoin="round"/>
</svg>
