<svg width="80" height="110" viewBox="0 0 80 110" fill="none" xmlns="http://www.w3.org/2000/svg">
<path d="M66.4517 109.098V76.587C71.4343 72.4574 75.0804 66.947 76.93 60.7508C78.7797 54.5547 78.7501 47.9504 76.8449 41.771H14.4438C13.3395 45.1246 12.7751 48.6318 12.7715 52.162V52.8382L2.37818 71.5778C2.12309 72.0383 1.99283 72.5572 2.0003 73.0834C2.00778 73.6096 2.15273 74.1246 2.4208 74.5777C2.68886 75.0307 3.07076 75.4061 3.5287 75.6665C3.98665 75.9269 4.50475 76.0635 5.03178 76.0626H12.7715V90.966C12.7751 92.9546 13.5689 94.8604 14.9785 96.2653C16.3881 97.6701 18.2984 98.4591 20.29 98.4591H29.1353V109.154" fill="white"/>
<path d="M66.4517 109.098V76.587C71.4343 72.4574 75.0804 66.947 76.93 60.7508C78.7797 54.5547 78.7501 47.9504 76.8449 41.771H14.4438C13.3395 45.1246 12.7751 48.6318 12.7715 52.162V52.8382L2.37818 71.5778C2.12309 72.0383 1.99283 72.5572 2.0003 73.0834C2.00778 73.6096 2.15273 74.1246 2.4208 74.5777C2.68886 75.0307 3.07076 75.4061 3.5287 75.6665C3.98665 75.9269 4.50475 76.0635 5.03178 76.0626H12.7715V90.966C12.7751 92.9546 13.5689 94.8604 14.9785 96.2653C16.3881 97.6701 18.2984 98.4591 20.29 98.4591H29.1353V109.154" stroke="#111111" stroke-width="2.5" stroke-linejoin="round"/>
<path d="M31.486 61.9043V55.6117C31.4217 51.9341 29.9361 48.4236 27.3398 45.8142C24.2574 42.5867 22.1653 38.5453 21.3108 34.1681C20.4564 29.7908 20.8753 25.2608 22.518 21.1138C24.1608 16.9668 26.9587 13.3762 30.5809 10.7668C34.203 8.15742 38.4978 6.63832 42.9573 6.38916H44.2427C48.833 6.38773 53.3223 7.73524 57.1509 10.2637C60.9796 12.7922 63.9782 16.3898 65.7731 20.6082C67.568 24.8266 68.0797 29.4791 67.2445 33.9858C66.4094 38.4926 64.2642 42.6543 61.0764 45.9521C58.5253 48.5273 57.0737 51.9899 57.0269 55.6117V61.9043H31.486Z" fill="white"/>
<path d="M62.1392 29.6687C62.1415 26.752 61.4277 23.8792 60.0602 21.3017C58.6928 18.7243 56.7133 16.5209 54.2952 14.8845C51.877 13.248 49.0939 12.2284 46.1896 11.9149C43.2853 11.6014 40.3483 12.0035 37.6357 13.0862C34.9232 14.1688 32.5178 15.8988 30.6302 18.1249C28.7426 20.3509 27.4303 23.005 26.8083 25.8548C26.1862 28.7047 26.2734 31.6633 27.0621 34.4717C27.8508 37.2801 29.3171 39.8526 31.3325 41.964C34.9067 45.6021 36.9408 50.4745 37.0129 55.5702V56.343H51.5247V55.5702C51.5594 50.5047 53.5726 45.6527 57.136 42.0468C60.3498 38.7257 62.144 34.2867 62.1392 29.6687Z" fill="white" stroke="#002D72" stroke-width="2.5" stroke-linejoin="round"/>
<path d="M51.3581 56.3845H37.1917C35.375 56.3845 33.9023 57.8518 33.9023 59.6619C33.9023 61.4719 35.375 62.9393 37.1917 62.9393H51.3581C53.1747 62.9393 54.6474 61.4719 54.6474 59.6619C54.6474 57.8518 53.1747 56.3845 51.3581 56.3845Z" fill="white" stroke="#002D72" stroke-width="2.5" stroke-linejoin="round"/>
<path d="M51.3581 62.9392H37.1917C35.375 62.9392 33.9023 64.4065 33.9023 66.2166C33.9023 68.0266 35.375 69.4939 37.1917 69.4939H51.3581C53.1747 69.4939 54.6474 68.0266 54.6474 66.2166C54.6474 64.4065 53.1747 62.9392 51.3581 62.9392Z" fill="white" stroke="#002D72" stroke-width="2.5" stroke-linejoin="round"/>
<path d="M44.2695 6.34774V0" stroke="#111111" stroke-width="2.5" stroke-linejoin="round"/>
<path d="M60.7305 13.1646L65.2361 8.66602" stroke="#111111" stroke-width="2.5" stroke-linejoin="round"/>
<path d="M67.5586 29.5999H73.9162" stroke="#111111" stroke-width="2.5" stroke-linejoin="round"/>
<path d="M20.9943 29.5999H14.6367" stroke="#111111" stroke-width="2.5" stroke-linejoin="round"/>
<path d="M27.8082 13.1646L23.3164 8.66602" stroke="#111111" stroke-width="2.5" stroke-linejoin="round"/>
<path d="M22.584 52.4656V57.1988" stroke="#111111" stroke-width="2.5" stroke-linejoin="round"/>
</svg>
