<svg width="86" height="72" viewBox="0 0 86 72" fill="none" xmlns="http://www.w3.org/2000/svg">
<path d="M23.5848 27.844C21.7297 29.0761 20.0028 30.488 18.4296 32.0589C16.8603 33.6206 15.4425 35.325 14.195 37.1496C10.3224 42.8429 8.25173 49.5517 8.24805 56.4177" stroke="#111111" stroke-width="3" stroke-linecap="round" stroke-linejoin="round"/>
<path d="M77.752 56.4177C77.7545 54.0831 77.5201 51.7541 77.0523 49.4659C76.5981 47.2508 75.9196 45.0868 75.0271 43.0067C74.1503 40.9575 73.0776 38.9962 71.8235 37.1496C70.5753 35.3204 69.1509 33.6155 67.5705 32.0589C66.0037 30.4883 64.2829 29.0764 62.4336 27.844" stroke="#111111" stroke-width="3" stroke-linecap="round" stroke-linejoin="round"/>
<path d="M83.2378 64.1907C83.2403 64.8575 83.1095 65.5182 82.8532 66.1347C82.5968 66.7512 82.2198 67.3113 81.744 67.7828C81.2683 68.2543 80.7031 68.6279 80.081 68.8819C79.4589 69.136 78.7922 69.2656 78.1194 69.2631H7.93485C6.57737 69.2631 5.27548 68.7287 4.3156 67.7775C3.35571 66.8262 2.81641 65.536 2.81641 64.1907V64.1907C2.81641 62.8454 3.35571 61.5552 4.3156 60.6039C5.27548 59.6526 6.57737 59.1182 7.93485 59.1182H78.1747C78.8475 59.1158 79.5141 59.2453 80.1362 59.4994C80.7583 59.7535 81.3235 60.127 81.7993 60.5985C82.2751 61.07 82.652 61.6301 82.9083 62.2467C83.1647 62.8632 83.2954 63.5239 83.293 64.1907H83.2378Z" stroke="#111111" stroke-width="3" stroke-linecap="round" stroke-linejoin="round"/>
<path d="M61.3288 20.9104C61.3288 24.5192 60.249 28.0469 58.2259 31.0475C56.2028 34.0481 53.3274 36.3868 49.9631 37.7678C46.5989 39.1488 42.8969 39.5102 39.3254 38.8061C35.7539 38.1021 32.4734 36.3643 29.8985 33.8125C27.3236 31.2607 25.57 28.0095 24.8596 24.4701C24.1492 20.9306 24.5139 17.2619 25.9074 13.9278C27.3009 10.5937 29.6607 7.74405 32.6884 5.73912C35.7162 3.73419 39.2759 2.66406 42.9173 2.66406C47.8004 2.66406 52.4834 4.58642 55.9362 8.00827C59.389 11.4301 61.3288 16.0712 61.3288 20.9104Z" stroke="#002D72" stroke-width="3" stroke-linecap="round" stroke-linejoin="round"/>
<path d="M43.0098 13.8855V27.9534" stroke="#002D72" stroke-width="3" stroke-linecap="round" stroke-linejoin="round"/>
<path d="M35.9023 20.9104H50.0976" stroke="#002D72" stroke-width="3" stroke-linecap="round" stroke-linejoin="round"/>
</svg>
