<svg width="105" height="72" viewBox="0 0 105 72" fill="none" xmlns="http://www.w3.org/2000/svg">
<path d="M32.8574 13.8165C32.8574 16.2247 32.1552 18.5788 30.8398 20.5812C29.5243 22.5836 27.6546 24.1443 25.4671 25.0659C23.2795 25.9875 20.8725 26.2286 18.5502 25.7588C16.2279 25.2889 14.0948 24.1293 12.4205 22.4264C10.7463 20.7235 9.60602 18.5539 9.14409 16.1919C8.68216 13.83 8.91927 11.3817 9.82538 9.15674C10.7315 6.93181 12.2659 5.03012 14.2347 3.69216C16.2034 2.35421 18.518 1.64014 20.8857 1.64014C24.0608 1.64014 27.1058 2.92294 29.351 5.20644C31.5961 7.48994 32.8574 10.5871 32.8574 13.8165V13.8165Z" stroke="#111111" stroke-width="3" stroke-linecap="round" stroke-linejoin="round"/>
<path d="M96.0858 13.8165C96.0858 16.2247 95.3837 18.5788 94.0682 20.5812C92.7528 22.5836 90.8831 24.1443 88.6956 25.0659C86.5081 25.9875 84.1009 26.2286 81.7786 25.7588C79.4564 25.2889 77.3232 24.1293 75.649 22.4264C73.9747 20.7235 72.8346 18.5539 72.3726 16.1919C71.9107 13.83 72.1477 11.3817 73.0538 9.15674C73.9599 6.93181 75.4944 5.03012 77.4631 3.69216C79.4319 2.35421 81.7464 1.64014 84.1142 1.64014C87.2893 1.64014 90.3343 2.92294 92.5794 5.20644C94.8245 7.48994 96.0858 10.5871 96.0858 13.8165V13.8165Z" stroke="#111111" stroke-width="3" stroke-linecap="round" stroke-linejoin="round"/>
<path d="M38.6496 45.4157C36.8426 41.3418 33.7286 38.0132 29.8178 35.9753C25.9071 33.9373 21.4317 33.3111 17.1252 34.1991C12.8187 35.0872 8.93649 37.4369 6.11497 40.8631C3.29345 44.2893 1.69998 48.5887 1.5957 53.0567V64.395H30.1677" stroke="#111111" stroke-width="3" stroke-linecap="round" stroke-linejoin="round"/>
<path d="M74.8073 64.395H103.403V53.0567C103.299 48.5887 101.706 44.2893 98.8842 40.8631C96.0627 37.4369 92.1805 35.0872 87.874 34.1991C83.5675 33.3111 79.0921 33.9373 75.1814 35.9753C71.2706 38.0132 68.1566 41.3418 66.3496 45.4157" stroke="#111111" stroke-width="3" stroke-linecap="round" stroke-linejoin="round"/>
<path d="M64.459 19.7813C64.459 22.1895 63.7568 24.5437 62.4413 26.5461C61.1259 28.5485 59.2561 30.1092 57.0686 31.0307C54.8811 31.9523 52.474 32.1935 50.1518 31.7237C47.8295 31.2539 45.6963 30.0941 44.0221 28.3912C42.3478 26.6884 41.2076 24.5188 40.7457 22.1568C40.2837 19.7948 40.5208 17.3466 41.4269 15.1217C42.333 12.8967 43.8674 10.995 45.8362 9.65708C47.8049 8.31913 50.1195 7.60498 52.4873 7.60498C55.6624 7.60498 58.7074 8.88786 60.9525 11.1714C63.1976 13.4549 64.459 16.5519 64.459 19.7813V19.7813Z" stroke="#002D72" stroke-width="3" stroke-linecap="round" stroke-linejoin="round"/>
<path d="M66.3507 45.4157C64.5559 43.523 62.4044 42.0176 60.0248 40.9894C57.6452 39.9611 55.0864 39.4312 52.5009 39.4312C49.9155 39.4312 47.3565 39.9611 44.9769 40.9894C42.5974 42.0176 40.4459 43.523 38.6511 45.4157C35.2825 48.9405 33.2227 51.8243 33.2227 57.1237V70.3599H71.7791V57.2223C71.7791 51.8243 69.7192 48.9405 66.3507 45.4157Z" stroke="#111111" stroke-width="3" stroke-linecap="round" stroke-linejoin="round"/>
</svg>
