<svg width="96" height="92" viewBox="0 0 96 92" fill="none" xmlns="http://www.w3.org/2000/svg">
<g clip-path="url(#clip0_343_2008)">
<path d="M39.3307 35.1033H25.7773V72.264H39.3307V35.1033Z" fill="white" stroke="#002D72" stroke-width="2.5" stroke-linejoin="round"/>
<path d="M52.8854 15.3672H39.332V72.2512H52.8854V15.3672Z" fill="white" stroke="#002D72" stroke-width="2.5" stroke-linejoin="round"/>
<path d="M66.4264 45.1238H52.873V72.264H66.4264V45.1238Z" fill="white" stroke="#002D72" stroke-width="2.5" stroke-linejoin="round"/>
<path d="M79.9792 36.5002H66.4258V72.2512H79.9792V36.5002Z" fill="white" stroke="#002D72" stroke-width="2.5" stroke-linejoin="round"/>
<path d="M13.7302 69.1651H24.5386L33.397 64.2501C34.8661 63.4391 36.4846 62.9375 38.1536 62.7759C39.8225 62.6143 41.5068 62.7962 43.1033 63.3103L53.0247 66.5107L47.9628 77.3821H56.8212L87.1929 54.725C88.1147 54.0389 89.2539 53.7133 90.3976 53.8092C91.5412 53.905 92.6109 54.4157 93.4065 55.2457C93.8456 55.7023 94.1885 56.2429 94.4148 56.8354C94.6411 57.4279 94.7462 58.0601 94.7238 58.6942C94.7013 59.3283 94.5518 59.9514 94.2842 60.5263C94.0166 61.1012 93.6363 61.6161 93.166 62.0403L64.5027 87.9105C63.3681 88.9365 62.032 89.7129 60.5805 90.1897C59.129 90.6665 57.5941 90.8333 56.0745 90.6791L25.2472 87.5422H13.6543" fill="white"/>
<path d="M13.7302 69.1651H24.5386L33.397 64.2501C34.8661 63.4391 36.4846 62.9375 38.1536 62.7759C39.8225 62.6143 41.5068 62.7962 43.1033 63.3103L53.0247 66.5107L47.9628 77.3821H56.8212L87.1929 54.725C88.1147 54.0389 89.2539 53.7133 90.3976 53.8092C91.5412 53.905 92.6109 54.4157 93.4065 55.2457C93.8456 55.7023 94.1885 56.2429 94.4148 56.8354C94.6411 57.4279 94.7462 58.0601 94.7238 58.6942C94.7013 59.3283 94.5518 59.9514 94.2842 60.5263C94.0166 61.1012 93.6363 61.6161 93.166 62.0403L64.5027 87.9105C63.3681 88.9365 62.032 89.7129 60.5805 90.1897C59.129 90.6665 57.5941 90.8333 56.0745 90.6791L25.2472 87.5422H13.6543" stroke="#111111" stroke-width="2.5" stroke-linejoin="round"/>
<path d="M43.5586 63.4626L52.9612 66.5107L65.1605 65.5328C66.0062 65.4708 66.8482 65.6948 67.5523 66.1689C68.2564 66.6431 68.7821 67.3401 69.0456 68.149C69.3181 69.0297 69.2631 69.9797 68.8907 70.8228C68.5184 71.6659 67.854 72.3449 67.0208 72.7338L56.8209 77.382H43.5586" fill="white"/>
<path d="M43.5586 63.4626L52.9612 66.5107L65.1605 65.5328C66.0062 65.4708 66.8482 65.6948 67.5523 66.1689C68.2564 66.6431 68.7821 67.3401 69.0456 68.149V68.149C69.3181 69.0297 69.2631 69.9797 68.8907 70.8228C68.5184 71.6659 67.854 72.3449 67.0208 72.7338L56.8209 77.382H43.5586" stroke="#111111" stroke-width="2.5" stroke-linejoin="round"/>
<path d="M13 66H1V90H13V66Z" fill="white" stroke="#111111" stroke-width="2.5" stroke-linejoin="round"/>
</g>
<defs>
<clipPath id="clip0_343_2008">
<rect width="96" height="92" fill="white"/>
</clipPath>
</defs>
</svg>
