<svg width="86" height="104" viewBox="0 0 86 104" fill="none" xmlns="http://www.w3.org/2000/svg">
<path d="M42.9998 102C48.5614 102 53.0699 97.915 53.0699 92.8759C53.0699 87.8368 48.5614 83.7518 42.9998 83.7518C37.4382 83.7518 32.9297 87.8368 32.9297 92.8759C32.9297 97.915 37.4382 102 42.9998 102Z" fill="white" stroke="#111111" stroke-width="3" stroke-linejoin="bevel"/>
<path d="M68.8946 44.4146C68.8993 39.7917 67.7067 35.2491 65.437 31.2435C63.1672 27.2379 59.9002 23.9106 55.9646 21.5961C52.0289 19.2815 47.5632 18.0614 43.0166 18.0585C38.4701 18.0555 34.0029 19.2698 30.0643 21.5792C26.1256 23.8886 22.8545 27.2116 20.5797 31.2143C18.3049 35.2169 17.1066 39.758 17.1055 44.3808C17.1043 49.0037 18.3002 53.5454 20.573 57.5492C22.1518 60.3305 24.2116 62.7841 26.6421 64.7979C28.6312 66.4461 30.0528 68.7759 30.0528 71.3592V71.3592C30.0528 75.3816 33.3136 78.6424 37.336 78.6424H48.6641C52.6865 78.6424 55.9473 75.3816 55.9473 71.3592V71.3592C55.9473 68.7759 57.3689 66.4461 59.358 64.7979C61.7842 62.7876 63.841 60.3391 65.4187 57.5638C67.6912 53.5665 68.89 49.0317 68.8946 44.4146Z" stroke="#111111" stroke-width="3" stroke-linejoin="bevel"/>
<path d="M52.2977 78.6423H33.7024C31.6867 78.6423 30.0527 80.2763 30.0527 82.292C30.0527 84.3076 31.6867 85.9416 33.7024 85.9416H52.2977C54.3133 85.9416 55.9473 84.3076 55.9473 82.292C55.9473 80.2763 54.3133 78.6423 52.2977 78.6423Z" fill="white" stroke="#111111" stroke-width="3" stroke-linejoin="bevel"/>
<path d="M51.9327 85.9415H34.0673C31.8501 85.9415 30.0527 87.7389 30.0527 89.9561C30.0527 92.1733 31.8501 93.9707 34.0673 93.9707H51.9327C54.1499 93.9707 55.9473 92.1733 55.9473 89.9561C55.9473 87.7389 54.1499 85.9415 51.9327 85.9415Z" fill="white" stroke="#111111" stroke-width="3" stroke-linejoin="bevel"/>
<path d="M43 10.0292V2" stroke="#002D72" stroke-width="3" stroke-linecap="round" stroke-linejoin="bevel"/>
<path d="M19.2622 20.2482L13.5078 14.4088" stroke="#002D72" stroke-width="3" stroke-linecap="round" stroke-linejoin="bevel"/>
<path d="M9.19294 44.3358H2" stroke="#002D72" stroke-width="3" stroke-linecap="round" stroke-linejoin="bevel"/>
<path d="M19.2622 68.4233L13.5078 74.2628" stroke="#002D72" stroke-width="3" stroke-linecap="round" stroke-linejoin="bevel"/>
<path d="M66.7363 68.0875L72.4907 73.9269" stroke="#002D72" stroke-width="3" stroke-linecap="round" stroke-linejoin="bevel"/>
<path d="M76.8066 44H83.9996" stroke="#002D72" stroke-width="3" stroke-linecap="round" stroke-linejoin="bevel"/>
<path d="M66.7363 20.2482L72.4907 14.4088" stroke="#002D72" stroke-width="3" stroke-linecap="round" stroke-linejoin="bevel"/>
<path d="M43 28.2774C47.1969 28.2774 51.2219 29.9693 54.1896 32.9808C57.1572 35.9923 58.8245 40.0769 58.8245 44.3358" fill="white"/>
<path d="M43 28.2774C47.1969 28.2774 51.2219 29.9693 54.1896 32.9808C57.1572 35.9923 58.8245 40.0769 58.8245 44.3358" stroke="#111111" stroke-width="3" stroke-linejoin="bevel"/>
</svg>
