<svg width="108" height="100" viewBox="0 0 108 100" fill="none" xmlns="http://www.w3.org/2000/svg">
<path d="M54.0854 98.4615C73.2424 98.4615 88.7723 83.0972 88.7723 64.1445C88.7723 45.1917 73.2424 29.8274 54.0854 29.8274C34.9283 29.8274 19.3984 45.1917 19.3984 64.1445C19.3984 83.0972 34.9283 98.4615 54.0854 98.4615Z" fill="white" stroke="#111111" stroke-width="2.5" stroke-linejoin="bevel"/>
<path d="M71.7193 40.1832L72.809 30.4803L57.4608 23.9357V19.6385C58.4038 19.0648 59.1817 18.2605 59.7193 17.3031C60.2569 16.3456 60.5363 15.2673 60.5304 14.1721V7.96161C60.4493 6.31014 59.7291 4.75286 58.519 3.61246C57.3089 2.47205 55.7017 1.83594 54.0305 1.83594C52.3592 1.83594 50.7521 2.47205 49.542 3.61246C48.3319 4.75286 47.6117 6.31014 47.5305 7.96161V14.1721C47.5246 15.2673 47.804 16.3456 48.3416 17.3031C48.8793 18.2605 49.6571 19.0648 50.6002 19.6385V23.9357L35.252 30.4803L36.3417 40.1832" fill="white"/>
<path d="M71.7193 40.1832L72.809 30.4803L57.4608 23.9357V19.6385C58.4038 19.0648 59.1817 18.2605 59.7193 17.3031C60.2569 16.3456 60.5363 15.2673 60.5304 14.1721V7.96161C60.4493 6.31014 59.7291 4.75286 58.519 3.61246C57.3089 2.47205 55.7017 1.83594 54.0305 1.83594C52.3592 1.83594 50.7521 2.47205 49.542 3.61246C48.3319 4.75286 47.6117 6.31014 47.5305 7.96161V14.1721C47.5246 15.2673 47.804 16.3456 48.3416 17.3031C48.8793 18.2605 49.6571 19.0648 50.6002 19.6385V23.9357L35.252 30.4803L36.3417 40.1832H71.7193Z" stroke="#002D72" stroke-width="2.5" stroke-linejoin="bevel"/>
<path d="M37.9068 93.7998L38.9965 84.0969L23.6483 77.5371V73.2551C24.5905 72.6768 25.3673 71.8694 25.9047 70.9098C26.442 69.9502 26.722 68.8705 26.7179 67.7735V61.5782C26.7607 60.7074 26.6243 59.8371 26.317 59.0201C26.0096 58.203 25.5377 57.4562 24.93 56.825C24.3222 56.1938 23.5911 55.6912 22.7812 55.3478C21.9712 55.0044 21.0992 54.8274 20.218 54.8274C19.3368 54.8274 18.4648 55.0044 17.6548 55.3478C16.8448 55.6912 16.1138 56.1938 15.506 56.825C14.8982 57.4562 14.4264 58.203 14.119 59.0201C13.8117 59.8371 13.6752 60.7074 13.718 61.5782V67.7735C13.7169 68.8699 13.9981 69.9486 14.5352 70.9077C15.0722 71.8668 15.8475 72.6747 16.7877 73.2551V77.5371L1.43945 84.0969L2.52919 93.7998" fill="white"/>
<path d="M37.9068 93.7998L38.9965 84.0969L23.6483 77.5371V73.2551C24.5905 72.6768 25.3673 71.8694 25.9047 70.9098C26.442 69.9502 26.722 68.8705 26.7179 67.7735V61.5782C26.7607 60.7074 26.6243 59.8371 26.317 59.0201C26.0096 58.203 25.5377 57.4562 24.93 56.825C24.3222 56.1938 23.5911 55.6912 22.7812 55.3478C21.9712 55.0044 21.0992 54.8274 20.218 54.8274C19.3368 54.8274 18.4648 55.0044 17.6548 55.3478C16.8448 55.6912 16.1138 56.1938 15.506 56.825C14.8982 57.4562 14.4264 58.203 14.119 59.0201C13.8117 59.8371 13.6752 60.7074 13.718 61.5782V67.7735C13.7169 68.8699 13.9981 69.9486 14.5352 70.9077C15.0722 71.8668 15.8475 72.6747 16.7877 73.2551V77.5371L1.43945 84.0969L2.52919 93.7998H37.9068Z" stroke="#002D72" stroke-width="2.5" stroke-linejoin="bevel"/>
<path d="M70.0917 93.7997L69.002 84.0968L84.3502 77.5371V73.2551C83.4079 72.6767 82.6311 71.8693 82.0938 70.9097C81.5564 69.9502 81.2764 68.8704 81.2805 67.7734V61.5781C81.2805 59.8706 81.9661 58.233 83.1866 57.0256C84.407 55.8182 86.0622 55.1399 87.7882 55.1399C89.5141 55.1399 91.1693 55.8182 92.3897 57.0256C93.6102 58.233 94.2958 59.8706 94.2958 61.5781V67.7734C94.2999 68.8704 94.0199 69.9502 93.4825 70.9097C92.9452 71.8693 92.1684 72.6767 91.2261 73.2551V77.5371L106.574 84.0968L105.485 93.7997" fill="white"/>
<path d="M70.0917 93.7997L69.002 84.0968L84.3502 77.5371V73.2551C83.4079 72.6767 82.6311 71.8693 82.0938 70.9097C81.5564 69.9502 81.2764 68.8704 81.2805 67.7734V61.5781C81.2805 59.8706 81.9661 58.233 83.1866 57.0256C84.407 55.8182 86.0622 55.1399 87.7882 55.1399C89.5141 55.1399 91.1693 55.8182 92.3897 57.0256C93.6102 58.233 94.2958 59.8706 94.2958 61.5781V67.7734C94.2999 68.8704 94.0199 69.9502 93.4825 70.9097C92.9452 71.8693 92.1684 72.6767 91.2261 73.2551V77.5371L106.574 84.0968L105.485 93.7997H70.0917Z" stroke="#002D72" stroke-width="2.5" stroke-linejoin="bevel"/>
</svg>
