<svg width="100" height="101" viewBox="0 0 100 101" fill="none" xmlns="http://www.w3.org/2000/svg">
<path d="M88.54 44.91C87.5924 38.6273 85.1242 32.6713 81.35 27.56L88.28 20.63L79.96 12.31L73.03 19.2C67.9177 15.4294 61.9618 12.9646 55.68 12.02V2.21002H43.91V12.02C37.6282 12.9646 31.6723 15.4294 26.56 19.2L19.62 12.27L11.3 20.59L18.24 27.52C14.4658 32.6313 11.9976 38.5874 11.05 44.87H1.25V56.64H11.05C11.9925 62.9241 14.4612 68.8813 18.24 73.99L11.3 80.93L19.62 89.25L26.56 82.31C31.6658 86.1013 37.6228 88.5837 43.91 89.54V99.35H55.68V89.54C61.9635 88.5956 67.9203 86.127 73.03 82.35L79.96 89.29L88.28 80.97L81.35 74.03C85.1288 68.9213 87.5975 62.9641 88.54 56.68H98.34V44.91H88.54ZM49.79 76.76C44.6477 76.76 39.6209 75.2352 35.3452 72.3782C31.0695 69.5213 27.737 65.4607 25.7691 60.7098C23.8013 55.9589 23.2864 50.7312 24.2896 45.6877C25.2928 40.6441 27.769 36.0114 31.4052 32.3752C35.0414 28.7391 39.6741 26.2628 44.7177 25.2596C49.7612 24.2564 54.9889 24.7713 59.7398 26.7391C64.4907 28.707 68.5513 32.0395 71.4082 36.3152C74.2651 40.5909 75.79 45.6177 75.79 50.76C75.79 57.6556 73.0507 64.2688 68.1748 69.1448C63.2988 74.0207 56.6856 76.76 49.79 76.76V76.76Z" stroke="#002D72" stroke-width="2.5"/>
<path d="M49.8008 9.12V14.02" stroke="#002D72" stroke-width="2.5"/>
<path d="M49.8008 87.58V92.48" stroke="#002D72" stroke-width="2.5"/>
<path d="M20.3203 21.33L23.7903 24.79" stroke="#002D72" stroke-width="2.5"/>
<path d="M75.8008 76.81L79.2708 80.28" stroke="#002D72" stroke-width="2.5"/>
<path d="M8.11914 50.8H13.0191" stroke="#002D72" stroke-width="2.5"/>
<path d="M86.5801 50.8H91.4801" stroke="#002D72" stroke-width="2.5"/>
<path d="M20.3203 80.28L23.7903 76.81" stroke="#002D72" stroke-width="2.5"/>
<path d="M75.8008 24.79L79.2708 21.33" stroke="#002D72" stroke-width="2.5"/>
<path d="M69.5201 50.8C69.4201 50.67 61.5201 41.24 49.8801 41.16H49.7301C38.0501 41.24 30.1901 50.67 30.0801 50.8C30.1901 50.93 38.0801 60.36 49.7301 60.44H49.9101C61.5901 60.36 69.4501 50.93 69.5501 50.8H69.5201Z" stroke="#002D72" stroke-width="2.5" stroke-linejoin="round"/>
<path d="M55.75 50.8C55.75 51.9867 55.3981 53.1467 54.7388 54.1334C54.0795 55.1201 53.1425 55.8891 52.0461 56.3433C50.9498 56.7974 49.7434 56.9162 48.5795 56.6847C47.4156 56.4532 46.3465 55.8817 45.5074 55.0426C44.6682 54.2035 44.0968 53.1344 43.8653 51.9705C43.6338 50.8066 43.7526 49.6002 44.2067 48.5039C44.6608 47.4075 45.4299 46.4704 46.4166 45.8112C47.4033 45.1519 48.5633 44.8 49.75 44.8C51.3413 44.8 52.8674 45.4321 53.9926 46.5573C55.1179 47.6826 55.75 49.2087 55.75 50.8Z" stroke="#002D72" stroke-width="2.5" stroke-linejoin="round"/>
</svg>
