<svg width="120" height="100" viewBox="0 0 120 100" fill="none" xmlns="http://www.w3.org/2000/svg">
<path d="M62.7328 2H111.252C113.042 2 114.758 2.71031 116.023 3.9746C117.289 5.23889 118 6.95368 118 8.74166V34.6673C118 36.4553 117.289 38.17 116.023 39.4343C114.758 40.6986 113.042 41.4089 111.252 41.4089H97.9253V55L82.9001 41.4089H62.7328C60.9457 41.4048 59.2332 40.6927 57.971 39.4288C56.7088 38.165 56 36.4526 56 34.6673V8.74166C56 6.95635 56.7088 5.24391 57.971 3.98006C59.2332 2.71621 60.9457 2.00409 62.7328 2Z" stroke="#111111" stroke-width="3" stroke-linecap="round" stroke-linejoin="round"/>
<path d="M98 17H76" stroke="#111111" stroke-width="3" stroke-linecap="round" stroke-linejoin="round"/>
<path d="M98 26H76" stroke="#111111" stroke-width="3" stroke-linecap="round" stroke-linejoin="round"/>
<path d="M55.926 88.7214C56.685 89.2648 57.3251 89.96 57.8065 90.7638C58.2878 91.5676 58.6001 92.4629 58.724 93.3937V93.3937C58.724 94.0155 58.6024 94.6311 58.3661 95.2053C58.1299 95.7795 57.7836 96.301 57.3472 96.7398C56.9108 97.1787 56.3928 97.5263 55.823 97.7627C55.2532 97.9991 54.6428 98.1197 54.0267 98.1175H26.4874C26.4874 98.1175 19.4838 98.4084 16.4145 93.6162C15.8888 92.7947 12.9381 92.3154 9.63139 92.0244C5.15455 91.6479 1.79688 91.6308 1.79688 91.6308V69.0392H8.57997C8.57997 69.0392 24.2659 67.3277 26.5043 52.0783V41.6382C26.5043 41.6382 27.0639 35.9902 32.3886 35.9902C37.7134 35.9902 40.4945 37.7017 39.9349 57.7432H57.0113C57.0113 57.7432 65.134 56.8875 65.134 62.2616C65.134 69.3129 62.336 69.8778 55.8921 69.8778H44.4117" stroke="#111111" stroke-width="3" stroke-linecap="round" stroke-linejoin="round"/>
<path d="M47.5999 78.9144H60.1147C61.398 78.9144 62.629 78.4011 63.5381 77.4868C64.4471 76.5725 64.9601 75.3319 64.9646 74.0367C64.9662 73.2268 64.7689 72.4292 64.3901 71.7153C64.0112 71.0014 63.4628 70.3936 62.794 69.9462H45.3105" stroke="#111111" stroke-width="3" stroke-linecap="round" stroke-linejoin="round"/>
<path d="M46.6504 87.9339H58.6734C59.2895 87.9339 59.8995 87.8112 60.4684 87.5727C61.0374 87.3343 61.5541 86.9849 61.9889 86.5444C62.4238 86.104 62.7682 85.5812 63.0024 85.0061C63.2366 84.431 63.356 83.8148 63.3538 83.1931V83.1931C63.3558 82.4121 63.1644 81.6432 62.7972 80.9557C62.43 80.2683 61.8986 79.6843 61.251 79.2568H48.1427" stroke="#111111" stroke-width="3" stroke-linecap="round" stroke-linejoin="round"/>
<path d="M28.0654 30.9071L24.9961 25.9095" stroke="#002D72" stroke-width="3" stroke-linecap="round" stroke-linejoin="round"/>
<path d="M42.3086 31.5917L46.158 26.9364" stroke="#002D72" stroke-width="3" stroke-linecap="round" stroke-linejoin="round"/>
<path d="M35.5605 29.5379L35.8149 24.8826" stroke="#002D72" stroke-width="3" stroke-linecap="round" stroke-linejoin="round"/>
</svg>
