<svg width="82" height="100" viewBox="0 0 82 100" fill="none" xmlns="http://www.w3.org/2000/svg">
<g clip-path="url(#clip0_343_1947)">
<path d="M80.1987 59.9095L75.3515 49.1726L74.9971 34.1543C74.9971 34.1543 74.9971 14.239 47.0155 15.0471C43.603 15.1346 40.2091 15.5828 36.8901 16.3844C22.0419 19.9442 22.6838 34.0004 22.6838 34.0004V87.0406L57.5338 98.3837V79.7575H68.2053C72.3436 79.7575 74.1158 76.3998 74.1158 72.2436L75.1504 63.729H78.0721C80.601 63.729 81.5399 62.055 80.1987 59.9095Z" stroke="#002D72" stroke-width="2.5"/>
<path d="M51.5271 9.87108C45.9987 4.31873 38.5006 1.19943 30.6822 1.19943C22.8639 1.19943 15.3658 4.31873 9.83737 9.87108C4.30897 15.4234 1.20313 22.954 1.20312 30.8062C1.20312 38.6584 4.30897 46.189 9.83737 51.7414" stroke="#002D72" stroke-width="2.5" stroke-dasharray="4 3 4 3"/>
<path d="M9.83789 51.7414C12.5753 54.4906 15.825 56.6715 19.4016 58.1593C22.9782 59.6472 26.8115 60.413 30.6828 60.413C34.554 60.413 38.3874 59.6472 41.9639 58.1593C45.5405 56.6715 48.7902 54.4906 51.5276 51.7414C54.265 48.9921 56.4364 45.7283 57.9179 42.1363C59.3993 38.5442 60.1618 34.6942 60.1618 30.8062C60.1618 26.9182 59.3993 23.0683 57.9179 19.4762C56.4364 15.8841 54.265 12.6203 51.5276 9.87109" stroke="#002D72" stroke-width="2.5"/>
<path d="M30.6836 13.527C35.2567 13.527 39.6425 15.3516 42.8762 18.5993C46.1099 21.847 47.9266 26.2518 47.9266 30.8447H39.4296C39.3913 21.2623 35.4925 13.527 30.6836 13.527Z" fill="#F3F5F8" stroke="#002D72" stroke-width="2.5"/>
<path d="M39.3906 30.8062H47.8875C47.8875 35.3991 46.0709 39.804 42.8372 43.0517C39.6035 46.2994 35.2177 48.1239 30.6445 48.1239C35.4917 48.095 39.3906 40.3502 39.3906 30.8062Z" fill="#F3F5F8" stroke="#002D72" stroke-width="2.5"/>
<path d="M30.6824 48.095C26.1093 48.095 21.7235 46.2705 18.4898 43.0228C15.2561 39.7751 13.4395 35.3703 13.4395 30.7773H21.9364C21.9651 40.3502 25.864 48.095 30.6824 48.095Z" fill="#F3F5F8" stroke="#002D72" stroke-width="2.5"/>
<path d="M30.683 13.527C25.8933 13.527 21.9657 21.2238 21.9657 30.8447H13.4688C13.4687 26.2568 15.2815 21.8563 18.5089 18.6095C21.7364 15.3626 26.1149 13.5347 30.683 13.527Z" fill="#F3F5F8" stroke="#002D72" stroke-width="2.5"/>
<path d="M39.3913 30.8062H30.6836V13.4885C35.4925 13.527 39.3913 21.2622 39.3913 30.8062Z" fill="#F3F5F8" stroke="#002D72" stroke-width="2.5"/>
<path d="M21.9648 30.8062C21.9648 21.2622 25.8637 13.4885 30.6822 13.4885V30.8062H21.9648Z" fill="#E6EAF1" stroke="#002D72" stroke-width="2.5"/>
<path d="M39.3913 30.8062C39.3913 40.3502 35.4925 48.1239 30.6836 48.1239V30.8062H39.3913Z" fill="#F3F5F8" stroke="#002D72" stroke-width="2.5"/>
<path d="M21.9648 30.8062H30.6822V48.1239C25.8637 48.095 21.9648 40.3502 21.9648 30.8062Z" fill="#F3F5F8" stroke="#002D72" stroke-width="2.5"/>
</g>
<defs>
<clipPath id="clip0_343_1947">
<rect width="82" height="100" fill="white"/>
</clipPath>
</defs>
</svg>
