<svg width="80" height="70" viewBox="0 0 80 70" fill="none" xmlns="http://www.w3.org/2000/svg">
<path d="M26.2225 26.5332C39.3338 24.506 43.4822 10.494 45.8743 6.23084C46.5153 4.47691 47.8132 3.03067 49.502 2.1882C51.1909 1.34574 53.1428 1.17075 54.9583 1.69927C55.7949 2.04415 56.5469 2.56119 57.1637 3.21574C57.7806 3.87029 58.2481 4.64718 58.5349 5.49426C58.8216 6.34135 58.9211 7.23903 58.8265 8.12707C58.7319 9.01511 58.4454 9.87298 57.9863 10.6431C56.2906 14.4293 55.3823 16.8143 54.1106 19.5868C51.8093 25.0724 54.7464 25.2513 57.411 25.2513H72.0363C73.506 25.2513 74.9154 25.8261 75.9546 26.8493C76.9938 27.8724 77.5776 29.2601 77.5776 30.7071C77.5776 32.154 76.9938 33.5417 75.9546 34.5648C74.9154 35.588 73.506 36.1626 72.0363 36.1626H72.9146C74.3174 36.2647 75.629 36.8853 76.5863 37.9C77.5436 38.9147 78.0755 40.2484 78.0755 41.6333C78.0755 43.0182 77.5436 44.3519 76.5863 45.3666C75.629 46.3813 74.3174 47.002 72.9146 47.104H70.4316C71.9012 47.104 73.3107 47.6787 74.3498 48.7018C75.389 49.7249 75.9727 51.1126 75.9727 52.5596C75.9727 54.0065 75.389 55.3942 74.3498 56.4173C73.3107 57.4405 71.9012 58.0153 70.4316 58.0153H66.495C67.8763 58.0153 69.2011 58.5556 70.1778 59.5172C71.1546 60.4789 71.7033 61.7832 71.7033 63.1432C71.7033 64.5032 71.1546 65.8073 70.1778 66.769C69.2011 67.7306 67.8763 68.2709 66.495 68.2709H46.6616C39.5155 68.2709 37.0931 64.2163 30.2498 63.1729C28.8998 62.941 27.5325 62.8213 26.1621 62.8151V26.5332H26.2225Z" fill="white" stroke="#111111" stroke-width="2.5" stroke-linecap="round" stroke-linejoin="round"/>
<path d="M1.45312 24.1781H26.2222V66.6611H1.45312V24.1781ZM13.5652 28.4711C14.4648 28.4652 15.3459 28.7225 16.0968 29.2103C16.8477 29.698 17.4346 30.3943 17.783 31.2109C18.1314 32.0275 18.2258 32.9275 18.0539 33.797C17.8821 34.6664 17.4519 35.466 16.8179 36.0944C16.1839 36.7228 15.3746 37.1517 14.4927 37.3267C13.6109 37.5016 12.696 37.4148 11.8643 37.0772C11.0326 36.7396 10.3214 36.1665 9.82099 35.4304C9.32056 34.6944 9.05348 33.8287 9.05346 32.943C9.05343 31.7621 9.52778 30.629 10.373 29.7913C11.2183 28.9535 12.3658 28.479 13.5652 28.4711Z" fill="white" stroke="#002D72" stroke-width="2.5" stroke-linecap="round" stroke-linejoin="round"/>
</svg>
