<svg width="100" height="102" viewBox="0 0 100 102" fill="none" xmlns="http://www.w3.org/2000/svg">
<path d="M20.5 24.5L38 38" stroke="#111111" stroke-width="3"/>
<path d="M55 14L52 32" stroke="#111111" stroke-width="3"/>
<path d="M78 20.5L60 37" stroke="#111111" stroke-width="3"/>
<path d="M80.5 63L61.5 53" stroke="#111111" stroke-width="3"/>
<path d="M58.5 73L53.5 59.5" stroke="#111111" stroke-width="3"/>
<path d="M31 91L43.5 59.5" stroke="#111111" stroke-width="3"/>
<path d="M24 58L35 51" stroke="#111111" stroke-width="3"/>
<path d="M63.5478 46.0838C63.5478 48.9697 62.6909 51.7908 61.0855 54.1902C59.4801 56.5896 57.1984 58.4595 54.5289 59.5634C51.8594 60.6673 48.9221 60.9556 46.0885 60.3918C43.2549 59.8281 40.6524 58.4375 38.6102 56.3962C36.5679 54.3548 35.1777 51.7542 34.6153 48.9235C34.0529 46.0928 34.3437 43.1591 35.4508 40.4935C36.5579 37.8279 38.4317 35.5501 40.835 33.9483C43.2383 32.3466 46.0633 31.4927 48.9525 31.4948C50.8701 31.4948 52.7689 31.8722 54.5403 32.6055C56.3118 33.3388 57.9212 34.4136 59.2767 35.7684C60.6321 37.1233 61.707 38.7317 62.4399 40.5017C63.1727 42.2717 63.5492 44.1685 63.5478 46.0838Z" stroke="#002D72" stroke-width="3"/>
<path d="M23.0898 19.0187C23.0919 21.0713 22.4843 23.0784 21.3439 24.786C20.2035 26.4936 18.5816 27.8249 16.6834 28.6114C14.7853 29.3979 12.6962 29.6042 10.6806 29.2042C8.66494 28.8043 6.8134 27.8161 5.36029 26.3647C3.90718 24.9132 2.9178 23.0638 2.5174 21.0505C2.11701 19.0372 2.32358 16.9505 3.11097 15.0546C3.89836 13.1586 5.23116 11.5385 6.94071 10.3994C8.65026 9.26034 10.6597 8.65342 12.7147 8.65552C15.4655 8.65833 18.1028 9.75107 20.0479 11.6939C21.993 13.6368 23.087 16.2711 23.0898 19.0187V19.0187Z" stroke="#111111" stroke-width="3"/>
<path d="M62.145 8.65551C62.145 9.91553 61.7709 11.1473 61.07 12.1949C60.3692 13.2426 59.3731 14.0591 58.2076 14.5413C57.0422 15.0235 55.7597 15.1498 54.5225 14.9039C53.2853 14.6581 52.1488 14.0513 51.2568 13.1604C50.3648 12.2694 49.7573 11.1343 49.5112 9.89844C49.2651 8.66263 49.3915 7.38164 49.8742 6.21754C50.3569 5.05343 51.1744 4.05848 52.2233 3.35845C53.2722 2.65842 54.5053 2.28473 55.7668 2.28473C57.4584 2.28473 59.0807 2.95596 60.2768 4.15071C61.473 5.34547 62.145 6.96587 62.145 8.65551Z" stroke="#111111" stroke-width="3"/>
<path d="M87.4774 17.0862C87.4795 18.269 87.1303 19.4258 86.474 20.4103C85.8176 21.3947 84.8837 22.1626 83.7903 22.6167C82.6969 23.0708 81.4932 23.1907 80.3316 22.9612C79.1699 22.7317 78.1025 22.1632 77.2645 21.3276C76.4264 20.492 75.8554 19.4269 75.6236 18.267C75.3918 17.1071 75.5097 15.9046 75.9623 14.8117C76.415 13.7187 77.1821 12.7844 78.1665 12.1271C79.151 11.4698 80.3085 11.1189 81.4926 11.1189C83.078 11.1189 84.5987 11.7472 85.7207 12.866C86.8428 13.9848 87.4746 15.5026 87.4774 17.0862V17.0862Z" stroke="#111111" stroke-width="3"/>
<path d="M97.7134 67.6808C97.7156 69.4894 97.1805 71.258 96.1761 72.7628C95.1717 74.2676 93.743 75.441 92.0707 76.1345C90.3985 76.8281 88.5579 77.0106 86.7818 76.6591C85.0056 76.3075 83.3738 75.4377 82.0927 74.1596C80.8116 72.8815 79.9389 71.2525 79.5848 69.4789C79.2308 67.7052 79.4115 65.8665 80.1039 64.1954C80.7963 62.5242 81.9694 61.0958 83.4748 60.0908C84.9802 59.0858 86.7502 58.5494 88.5608 58.5494C90.9864 58.5494 93.3128 59.5111 95.029 61.2232C96.7451 62.9354 97.7106 65.258 97.7134 67.6808V67.6808Z" stroke="#111111" stroke-width="3"/>
<path d="M66.014 77.7148C66.014 78.7922 65.6942 79.8452 65.095 80.741C64.4957 81.6368 63.6441 82.335 62.6476 82.7472C61.6511 83.1595 60.5547 83.2674 59.4968 83.0572C58.439 82.847 57.4673 82.3282 56.7047 81.5664C55.942 80.8047 55.4226 79.8341 55.2122 78.7775C55.0018 77.7209 55.1098 76.6256 55.5225 75.6303C55.9353 74.635 56.6342 73.7843 57.531 73.1858C58.4278 72.5873 59.4821 72.2678 60.5607 72.2678C62.007 72.2678 63.3941 72.8417 64.4168 73.8632C65.4395 74.8848 66.014 76.2702 66.014 77.7148V77.7148Z" stroke="#111111" stroke-width="3"/>
<path d="M34.3471 95.107C34.3471 96.01 34.079 96.8927 33.5767 97.6436C33.0744 98.3944 32.3606 98.9796 31.5253 99.3252C30.6901 99.6708 29.771 99.7612 28.8843 99.585C27.9976 99.4088 27.1832 98.974 26.5439 98.3355C25.9046 97.6969 25.4693 96.8834 25.2929 95.9977C25.1165 95.1121 25.2071 94.1941 25.553 93.3598C25.899 92.5255 26.4849 91.8125 27.2366 91.3108C27.9883 90.8091 28.872 90.5413 29.7761 90.5413C30.9884 90.5413 32.151 91.0223 33.0083 91.8785C33.8655 92.7348 34.3471 93.8961 34.3471 95.107V95.107Z" stroke="#111111" stroke-width="3"/>
<path d="M25.5568 63.4337C25.5589 65.1729 25.0444 66.8738 24.0786 68.321C23.1127 69.7681 21.7388 70.8966 20.1306 71.5637C18.5225 72.2307 16.7524 72.4064 15.0443 72.0683C13.3362 71.7303 11.7669 70.8938 10.5349 69.6647C9.30286 68.4356 8.46352 66.8691 8.12303 65.1634C7.78255 63.4577 7.95623 61.6894 8.6221 60.0823C9.28798 58.4752 10.4161 57.1015 11.8638 56.135C13.3115 55.1685 15.0136 54.6526 16.7549 54.6526C19.0875 54.6526 21.3247 55.5774 22.975 57.2239C24.6254 58.8703 25.5539 61.1038 25.5568 63.4337V63.4337Z" stroke="#111111" stroke-width="3"/>
</svg>
