<svg width="66" height="78" viewBox="0 0 66 78" fill="none" xmlns="http://www.w3.org/2000/svg">
<path d="M47.5 16C47.5 18.8678 46.6496 21.6713 45.0563 24.0558C43.463 26.4403 41.1985 28.2988 38.5489 29.3962C35.8994 30.4937 32.9839 30.7809 30.1712 30.2214C27.3585 29.6619 24.7748 28.2809 22.747 26.253C20.7191 24.2251 19.3381 21.6415 18.7786 18.8288C18.2191 16.016 18.5063 13.1006 19.6037 10.4511C20.7012 7.80154 22.5597 5.53696 24.9442 3.94368C27.3287 2.3504 30.1322 1.5 33 1.5C34.9042 1.5 36.7897 1.87506 38.5489 2.60376C40.3081 3.33246 41.9066 4.40048 43.253 5.74691C44.5995 7.09336 45.6676 8.69185 46.3963 10.4511C47.125 12.2103 47.5 14.0958 47.5 16Z" stroke="#111111" stroke-width="3" stroke-linecap="round" stroke-linejoin="round"/>
<path d="M1.5 58C1.5 47.7827 9.78273 39.5 20 39.5H46C56.2173 39.5 64.5 47.7827 64.5 58V76.5H1.5V58Z" stroke="#111111" stroke-width="3"/>
<g clip-path="url(#clip0_343_1760)">
<path d="M36.1751 45.9075H30.8258L29.1484 39H37.8411L36.1751 45.9075Z" stroke="#002D72" stroke-width="3" stroke-linejoin="round"/>
<path d="M39.721 65.3812L33.499 70.905L27.2656 65.3812L30.8243 45.9075H36.1736L39.721 65.3812Z" stroke="#002D72" stroke-width="3" stroke-linejoin="round"/>
</g>
<defs>
<clipPath id="clip0_343_1760">
<rect width="17" height="36" fill="white" transform="translate(25 38)"/>
</clipPath>
</defs>
</svg>
