<svg width="220" height="40" viewBox="0 0 220 40" fill="none" xmlns="http://www.w3.org/2000/svg">
<path d="M8.65009 3.82838V0H15.0608V3.82838H23.5792V8.05281H26.8724V0.616062H32.7562V30.143H26.8724V22.6183H22.8327V17.2497H26.8724V13.4213H22.8327V8.88889H19.803C20.5348 9.65163 21.1495 10.5171 21.6472 11.4851C22.2034 12.6879 22.4815 13.9641 22.4815 15.3135C22.4815 16.663 22.1887 17.9391 21.6033 19.1419C21.0471 20.3154 20.286 21.3568 19.32 22.2662C18.3833 23.1463 17.2709 23.8504 15.9829 24.3784C14.6949 24.9065 13.3191 25.1705 11.8555 25.1705C10.3918 25.1705 9.016 24.9065 7.728 24.3784C6.44 23.8504 5.313 23.1463 4.347 22.2662C3.41027 21.3568 2.64918 20.3154 2.06373 19.1419C1.50755 17.9391 1.22945 16.663 1.22945 15.3135C1.22945 13.9641 1.52218 12.6879 2.10764 11.4851C2.576 10.5171 3.16146 9.65163 3.864 8.88889H0V3.82838H8.65009ZM16.6415 15.0935C16.6415 13.7734 16.1585 12.6439 15.1925 11.7052C14.2558 10.7664 13.1435 10.297 11.8555 10.297C10.5675 10.297 9.44046 10.7664 8.47446 11.7052C7.53773 12.6439 7.06937 13.7734 7.06937 15.0935C7.06937 16.4136 7.53773 17.5431 8.47446 18.4818C9.44046 19.4206 10.5675 19.89 11.8555 19.89C13.1435 19.89 14.2558 19.4206 15.1925 18.4818C16.1585 17.5431 16.6415 16.4136 16.6415 15.0935ZM34.0735 40H7.42064V27.6348H13.5679V34.7635H34.0735V40Z" fill="#002D72"/>
<path d="M39.7408 30.187V2.33223H53.66V7.61276H45.5807V24.9065H48.5226C51.0108 24.9065 53.7625 24.6865 56.7775 24.2464V0.616062H62.4857V13.4653H65.5155V0.616062H71.3115V40H65.5155V18.7459H62.4857V40H56.7775V29.527C54.0259 29.967 51.0547 30.187 47.864 30.187H39.7408Z" fill="#002D72"/>
<path d="M97.7917 14.2134C97.7917 15.7682 97.4697 17.2351 96.8257 18.6139C96.211 19.9633 95.3767 21.1514 94.3229 22.1782C93.2398 23.2343 91.9665 24.0704 90.5028 24.6865C89.0685 25.2732 87.5316 25.5666 85.8924 25.5666C84.2531 25.5666 82.7016 25.2732 81.238 24.6865C79.8036 24.0704 78.5449 23.2343 77.4618 22.1782C76.408 21.1514 75.5591 19.9633 74.9151 18.6139C74.3004 17.2351 73.993 15.7682 73.993 14.2134C73.993 12.6586 74.3004 11.2065 74.9151 9.85698C75.5591 8.47818 76.408 7.27539 77.4618 6.24863C78.5449 5.19252 79.8036 4.3711 81.238 3.78438C82.7016 3.16832 84.2531 2.86029 85.8924 2.86029C87.5316 2.86029 89.0685 3.16832 90.5028 3.78438C91.9665 4.3711 93.2398 5.19252 94.3229 6.24863C95.3767 7.27539 96.211 8.47818 96.8257 9.85698C97.4697 11.2065 97.7917 12.6586 97.7917 14.2134ZM91.9079 14.2134C91.9079 13.3627 91.7469 12.5706 91.4249 11.8372C91.1029 11.1038 90.6638 10.4437 90.1076 9.85698C89.5515 9.32893 88.9075 8.90356 88.1756 8.58086C87.4731 8.25816 86.712 8.09681 85.8924 8.09681C85.0727 8.09681 84.297 8.25816 83.5652 8.58086C82.8626 8.90356 82.2333 9.32893 81.6771 9.85698C81.1209 10.4437 80.6818 11.1038 80.3598 11.8372C80.0378 12.5706 79.8768 13.3627 79.8768 14.2134C79.8768 15.0642 80.0378 15.8709 80.3598 16.6337C80.6818 17.3671 81.1209 18.0125 81.6771 18.5699C82.2333 19.0979 82.8626 19.5233 83.5652 19.846C84.297 20.1687 85.0727 20.33 85.8924 20.33C86.712 20.33 87.4731 20.1687 88.1756 19.846C88.9075 19.5233 89.5515 19.0979 90.1076 18.5699C90.6638 18.0125 91.1029 17.3671 91.4249 16.6337C91.7469 15.8709 91.9079 15.0642 91.9079 14.2134ZM106.091 0.616062V11.3531H111.316V16.9417H106.091V40H100.207V0.616062H106.091Z" fill="#002D72"/>
<path d="M135.864 14.2134C135.864 15.7682 135.542 17.2351 134.898 18.6139C134.283 19.9633 133.449 21.1514 132.395 22.1782C131.312 23.2343 130.039 24.0704 128.575 24.6865C127.141 25.2732 125.604 25.5666 123.965 25.5666C122.325 25.5666 120.774 25.2732 119.31 24.6865C117.876 24.0704 116.617 23.2343 115.534 22.1782C114.48 21.1514 113.631 19.9633 112.987 18.6139C112.373 17.2351 112.065 15.7682 112.065 14.2134C112.065 12.6586 112.373 11.2065 112.987 9.85698C113.631 8.47818 114.48 7.27539 115.534 6.24863C116.617 5.19252 117.876 4.3711 119.31 3.78438C120.774 3.16832 122.325 2.86029 123.965 2.86029C125.604 2.86029 127.141 3.16832 128.575 3.78438C130.039 4.3711 131.312 5.19252 132.395 6.24863C133.449 7.27539 134.283 8.47818 134.898 9.85698C135.542 11.2065 135.864 12.6586 135.864 14.2134ZM129.98 14.2134C129.98 13.3627 129.819 12.5706 129.497 11.8372C129.175 11.1038 128.736 10.4437 128.18 9.85698C127.624 9.32893 126.98 8.90356 126.248 8.58086C125.545 8.25816 124.784 8.09681 123.965 8.09681C123.145 8.09681 122.369 8.25816 121.637 8.58086C120.935 8.90356 120.306 9.32893 119.749 9.85698C119.193 10.4437 118.754 11.1038 118.432 11.8372C118.11 12.5706 117.949 13.3627 117.949 14.2134C117.949 15.0642 118.11 15.8709 118.432 16.6337C118.754 17.3671 119.193 18.0125 119.749 18.5699C120.306 19.0979 120.935 19.5233 121.637 19.846C122.369 20.1687 123.145 20.33 123.965 20.33C124.784 20.33 125.545 20.1687 126.248 19.846C126.98 19.5233 127.624 19.0979 128.18 18.5699C128.736 18.0125 129.175 17.3671 129.497 16.6337C129.819 15.8709 129.98 15.0642 129.98 14.2134ZM139.333 0.616062H145.217V40H139.333V0.616062Z" fill="#002D72"/>
<path d="M152.684 30.9351V2.06821H171.96V7.26073H158.524V13.7294H171.17V18.8339H158.524V25.8306H164.628C168.579 25.8306 172.546 25.5812 176.527 25.0825V0.616062H182.411V40H176.527V30.187C172.751 30.6857 168.594 30.9351 164.057 30.9351H152.684Z" fill="#002D72"/>
<path d="M202.832 12.2332V1.71617H208.101V12.1892C208.101 18.0271 210.033 23.425 213.897 28.3828L209.989 31.5952C207.676 28.3682 206.066 25.6692 205.159 23.4984C204.222 25.6106 202.48 28.3242 199.934 31.6392C197.387 28.3242 195.645 25.6106 194.708 23.4984C193.801 25.6692 192.191 28.3682 189.878 31.5952L185.97 28.3828C189.834 23.513 191.766 18.1151 191.766 12.1892V1.71617H197.036V12.2332C197.036 16.4576 198.002 20.1247 199.934 23.2343C201.866 20.1247 202.832 16.4576 202.832 12.2332ZM214.204 0.616062H220V40H214.204V0.616062Z" fill="#002D72"/>
</svg>
