<svg width="267" height="45" viewBox="0 0 267 45" fill="none" xmlns="http://www.w3.org/2000/svg">
<g clip-path="url(#clip0_845_3298)">
<path d="M12.8204 0V7.49878H4.55806V0H0V19.6405H4.55806V11.7406H12.8204V19.6405H17.3606V0H12.8204Z" fill="#002D72"/>
<path d="M34.0625 0L29.2901 7.78327L24.5427 0H19.1523L27.0111 12.8493V19.6405H31.5513V12.8493L39.41 0H34.0518H34.0625Z" fill="#002D72"/>
<path d="M53.2948 0V14.4067C53.2977 14.5372 53.2747 14.6669 53.2274 14.7881C53.18 14.9093 53.1092 15.0196 53.0192 15.1122C52.9291 15.2048 52.8217 15.2779 52.7033 15.3272C52.585 15.3764 52.4581 15.4008 52.3303 15.3988H45.0324V0H40.4922V19.6405H53.9413C54.467 19.6847 54.9958 19.611 55.4906 19.4245C55.9854 19.2381 56.4344 18.9435 56.806 18.5613C57.1776 18.1791 57.4629 17.7186 57.6419 17.212C57.8208 16.7054 57.8892 16.1649 57.8421 15.6285V0H53.2948Z" fill="#002D72"/>
<path d="M75.1281 3.73833e-05H61.6719V19.6406H66.2264V4.26004H73.5278C73.6556 4.25805 73.7825 4.2824 73.9009 4.33164C74.0192 4.38088 74.1267 4.45401 74.2167 4.54663C74.3068 4.63925 74.3776 4.74947 74.4249 4.87069C74.4723 4.9919 74.4952 5.12163 74.4923 5.2521V19.6588H79.0289V4.01203C79.0716 3.47663 79.0003 2.93813 78.8197 2.43357C78.6392 1.929 78.3538 1.47034 77.9832 1.08911C77.6125 0.707889 77.1654 0.413142 76.6725 0.225142C76.1797 0.0371424 75.6528 -0.0396534 75.1281 3.73833e-05Z" fill="#002D72"/>
<path d="M95.4962 5.28495V14.4031C95.501 14.5355 95.4796 14.6675 95.4333 14.7912C95.387 14.9149 95.3167 15.0278 95.2267 15.1231C95.1366 15.2185 95.0287 15.2943 94.9093 15.3461C94.7898 15.3978 94.6615 15.4244 94.5317 15.4243H87.2338V4.26006H94.4996C94.6327 4.25375 94.7657 4.276 94.8899 4.32537C95.014 4.37474 95.1267 4.45014 95.2206 4.54671C95.3145 4.64327 95.3876 4.75886 95.435 4.88601C95.4825 5.01316 95.5033 5.14907 95.4962 5.28495ZM96.132 5.34225e-05H82.6758V19.6406H96.132C96.659 19.6847 97.1891 19.6113 97.6854 19.4253C98.1818 19.2392 98.6326 18.9452 99.0064 18.5634C99.3803 18.1817 99.6683 17.7215 99.8505 17.2147C100.033 16.7079 100.105 16.1666 100.061 15.6286V4.01205C100.082 3.4773 99.9984 2.94367 99.8144 2.44256C99.6303 1.94146 99.35 1.48302 98.9898 1.09423C98.6112 0.723167 98.1626 0.434766 97.6713 0.24664C97.1799 0.0585144 96.6562 -0.0253887 96.132 5.34225e-05Z" fill="#002D72"/>
<path d="M116.291 4.25997V9.32604H108.029V5.26662C108.027 5.13591 108.05 5.00602 108.097 4.88446C108.144 4.76291 108.214 4.65211 108.304 4.55849C108.393 4.46486 108.5 4.39027 108.617 4.33903C108.735 4.28779 108.862 4.26092 108.99 4.25997H116.291ZM107.39 -3.29232e-05C106.866 -0.0248335 106.342 0.0593696 105.851 0.247461C105.359 0.435553 104.911 0.723609 104.532 1.09415C104.177 1.4853 103.902 1.94481 103.723 2.44581C103.543 2.9468 103.464 3.47924 103.489 4.01196V19.6259H108.029V13.5715H116.291V19.6405H120.832V-3.29232e-05H107.39Z" fill="#002D72"/>
<path d="M129.633 0H125.078V19.6405H129.633V0Z" fill="#002D72"/>
<path d="M154.781 45L166.598 0H153.274L141.457 45H154.781Z" fill="#002D72"/>
<path d="M213.655 11.5327L216.684 0H174.815L171.789 11.5327H186.078L177.287 45H190.611L199.402 11.5327H213.655Z" fill="#002D72"/>
<path d="M255.178 45L258.107 33.8467H230.073C229.105 33.8467 228.708 33.5549 228.53 33.2266C228.312 32.8218 228.237 32.0558 228.583 30.7355L232.941 14.1405C233.118 13.4081 233.523 12.7542 234.095 12.2767C234.64 11.7913 235.344 11.5311 236.067 11.5473H263.98L266.998 0H235.638C230.78 0 226.986 1.12336 224.393 3.51232C222.607 5.12806 221.364 7.49149 220.567 10.5187L214.684 32.9202C213.68 36.7426 214.159 39.9011 216.37 42.1624C218.245 44.0918 220.914 45 224.229 45H255.178Z" fill="#002D72"/>
</g>
<defs>
<clipPath id="clip0_845_3298">
<rect width="267" height="45" fill="white"/>
</clipPath>
</defs>
</svg>
