<svg width="17" height="17" viewBox="0 0 17 17" fill="none" xmlns="http://www.w3.org/2000/svg">
<g clip-path="url(#clip0_591_1551)">
<path opacity="0.2" d="M8.88672 0V3.68722C10.0607 3.68722 11.1866 4.15357 12.0167 4.98368C12.8468 5.8138 13.3131 6.93967 13.3131 8.11363H17.0004C17.0004 5.96176 16.1455 3.89803 14.6239 2.37643C13.1023 0.854826 11.0386 0 8.88672 0Z" fill="#459D72"/>
<path d="M8.11227 4.4602V0.780274C6.50732 0.779774 4.93829 1.25545 3.6038 2.14709C2.26932 3.03873 1.22936 4.30624 0.615575 5.78919C0.00178846 7.27214 -0.158233 8.90387 0.155766 10.4778C0.469765 12.0517 1.24367 13.4971 2.37951 14.631L4.98492 12.0242C4.36591 11.4053 3.94429 10.6168 3.77335 9.75836C3.60241 8.8999 3.68982 8.01003 4.02454 7.20125C4.35926 6.39247 4.92625 5.70108 5.65385 5.21449C6.38144 4.7279 7.23696 4.46794 8.11227 4.46749V4.4602Z" fill="#459D72"/>
<path d="M12.5391 8.88672C12.5393 9.76199 12.28 10.6177 11.7939 11.3455C11.3077 12.0734 10.6167 12.6408 9.8081 12.9758C8.99952 13.3109 8.10971 13.3987 7.25125 13.228C6.39278 13.0573 5.60421 12.6359 4.98529 12.017L2.37988 14.6311C3.51432 15.7665 4.96007 16.5399 6.53418 16.8534C8.10829 17.1668 9.74001 17.0063 11.2229 16.3921C12.7057 15.7779 13.973 14.7376 14.8644 13.4029C15.7559 12.0682 16.2313 10.499 16.2307 8.89402L12.5391 8.88672Z" fill="#459D72"/>
</g>
<defs>
<clipPath id="clip0_591_1551">
<rect width="17" height="17" fill="white"/>
</clipPath>
</defs>
</svg>
