<svg width="43" height="42" viewBox="0 0 43 42" fill="none" xmlns="http://www.w3.org/2000/svg">
<g clip-path="url(#clip0_523_3030)">
<path d="M5.90045 1.5H37.9005C38.3714 1.49999 38.8378 1.59293 39.2728 1.77346C39.7078 1.954 40.1029 2.2186 40.4354 2.55209C40.768 2.88558 41.0315 3.28144 41.2108 3.71695C41.3901 4.15245 41.4818 4.61905 41.4805 5.09002V27.09C41.4818 27.561 41.3901 28.0276 41.2108 28.4631C41.0315 28.8986 40.768 29.2944 40.4354 29.6279C40.1029 29.9614 39.7078 30.226 39.2728 30.4066C38.8378 30.5871 38.3714 30.68 37.9005 30.68H28.5805V40.2L18.7405 30.64H5.88046C4.92833 30.64 4.0152 30.2618 3.34194 29.5885C2.66869 28.9153 2.29045 28.0021 2.29045 27.05V5.05001C2.30101 4.10136 2.68664 3.19546 3.36308 2.53027C4.03951 1.86507 4.95176 1.49465 5.90045 1.5Z" stroke="#515151" stroke-width="3" stroke-linecap="round" stroke-linejoin="round"/>
<path d="M18.0495 11.2C18.0495 11.9634 18.2759 12.7097 18.7001 13.3445C19.1242 13.9793 19.7271 14.474 20.4324 14.7662C21.1377 15.0583 21.9138 15.1348 22.6626 14.9858C23.4113 14.8369 24.0991 14.4693 24.639 13.9294C25.1788 13.3896 25.5464 12.7018 25.6954 11.9531C25.8443 11.2043 25.7679 10.4282 25.4757 9.72284C25.1836 9.01752 24.6888 8.41468 24.054 7.99054C23.4193 7.5664 22.673 7.34003 21.9095 7.34003C20.8858 7.34003 19.904 7.74669 19.1801 8.47058C18.4562 9.19447 18.0495 10.1763 18.0495 11.2V11.2Z" stroke="#002D72" stroke-width="3" stroke-linecap="round" stroke-linejoin="round"/>
<path d="M17.2309 20.66C17.2017 20.0279 17.3009 19.3964 17.5227 18.8037C17.7444 18.2111 18.0841 17.6695 18.5211 17.2119C18.9581 16.7542 19.4833 16.3899 20.0651 16.141C20.6469 15.8921 21.2731 15.7637 21.9059 15.7637C22.5387 15.7637 23.165 15.8921 23.7467 16.141C24.3285 16.3899 24.8538 16.7542 25.2908 17.2119C25.7278 17.6695 26.0674 18.2111 26.2892 18.8037C26.5109 19.3964 26.6102 20.0279 26.5809 20.66V24.79H17.2309V20.66Z" stroke="#002D72" stroke-width="3" stroke-linecap="round" stroke-linejoin="round"/>
</g>
<defs>
<clipPath id="clip0_523_3030">
<rect width="42.19" height="41.71" fill="white" transform="matrix(-1 0 0 1 43 0)"/>
</clipPath>
</defs>
</svg>
