<svg width="87" height="44" viewBox="0 0 87 44" fill="none" xmlns="http://www.w3.org/2000/svg">
<path d="M20.5368 2.19995H15.5343C13.9556 2.19995 12.6758 3.51325 12.6758 5.13328V38.8666C12.6758 40.4867 13.9556 41.7999 15.5343 41.7999H20.5368C22.1155 41.7999 23.3953 40.4867 23.3953 38.8666V5.13328C23.3953 3.51325 22.1155 2.19995 20.5368 2.19995Z" fill="#99ABC7" stroke="#515151" stroke-width="3" stroke-linecap="round" stroke-linejoin="round"/>
<path d="M6.96094 9.90002V33" stroke="#515151" stroke-width="3" stroke-linecap="round" stroke-linejoin="round"/>
<path d="M2.14453 21.4573H4.64576" stroke="#515151" stroke-width="3" stroke-linecap="round" stroke-linejoin="round"/>
<path d="M71.4626 2.19995H66.4601C64.8814 2.19995 63.6016 3.51325 63.6016 5.13328V38.8666C63.6016 40.4867 64.8814 41.7999 66.4601 41.7999H71.4626C73.0413 41.7999 74.3211 40.4867 74.3211 38.8666V5.13328C74.3211 3.51325 73.0413 2.19995 71.4626 2.19995Z" fill="#99ABC7" stroke="#515151" stroke-width="3" stroke-linecap="round" stroke-linejoin="round"/>
<path d="M80.0391 9.90002V33" stroke="#515151" stroke-width="3" stroke-linecap="round" stroke-linejoin="round"/>
<path d="M84.8567 21.4573H82.3555" stroke="#515151" stroke-width="3" stroke-linecap="round" stroke-linejoin="round"/>
<rect x="23.5" y="16.5" width="40" height="10" fill="white" stroke="#515151" stroke-width="3"/>
</svg>
