<svg width="74" height="56" viewBox="0 0 74 56" fill="none" xmlns="http://www.w3.org/2000/svg">
<path d="M64 22H10L14.7957 2H59.2288L64 22Z" fill="white" stroke="#515151" stroke-width="3" stroke-linecap="round" stroke-linejoin="round"/>
<path d="M9.59166 21.9895H64.4101C65.3623 21.9893 66.305 22.1798 67.183 22.55C68.0609 22.9201 68.8564 23.4624 69.5229 24.145C70.1894 24.8276 70.7135 25.6369 71.0644 26.5254C71.4153 27.4139 71.5861 28.3638 71.5667 29.3193V41.096H2.43508V29.3193C2.41565 28.3638 2.58641 27.4139 2.93735 26.5254C3.28829 25.6369 3.81236 24.8276 4.47885 24.145C5.14535 23.4624 5.94086 22.9201 6.8188 22.55C7.69673 22.1798 8.63943 21.9893 9.59166 21.9895Z" fill="#99ABC7" stroke="#515151" stroke-width="3" stroke-linecap="round" stroke-linejoin="round"/>
<path d="M13.0977 31.5428H16.0187" stroke="#515151" stroke-width="3" stroke-linecap="round" stroke-linejoin="round"/>
<path d="M60.9024 31.5428H57.957" stroke="#515151" stroke-width="3" stroke-linecap="round" stroke-linejoin="round"/>
<path d="M9.44531 41.0227H19.669V50.0873C19.669 51.001 19.3074 51.8772 18.6637 52.5233C18.0201 53.1693 17.147 53.5323 16.2368 53.5323H12.9019C11.9916 53.5323 11.1186 53.1693 10.4749 52.5233C9.83126 51.8772 9.46965 51.001 9.46965 50.0873V41.0227H9.44531Z" fill="white" stroke="#515151" stroke-width="3" stroke-linecap="round" stroke-linejoin="round"/>
<path d="M61.099 53.5567H57.7641C57.3134 53.5567 56.8671 53.4676 56.4507 53.2945C56.0343 53.1213 55.6559 52.8676 55.3372 52.5477C55.0185 52.2278 54.7657 51.8481 54.5932 51.4301C54.4207 51.0121 54.3319 50.5641 54.3319 50.1117V41.0471H64.5312V50.1117C64.5312 51.0253 64.1697 51.9016 63.526 52.5477C62.8823 53.1938 62.0093 53.5567 61.099 53.5567Z" fill="white" stroke="#515151" stroke-width="3" stroke-linecap="round" stroke-linejoin="round"/>
</svg>
