<svg width="84" height="54" viewBox="0 0 84 54" fill="none" xmlns="http://www.w3.org/2000/svg">
<path d="M39.1849 13.665H17.6602V38.9707L39.1849 46.2543L60.7096 38.9707V13.665H39.1849Z" fill="white" stroke="#515151" stroke-width="3" stroke-linejoin="bevel"/>
<path d="M77.8578 13.6651L39.1848 25.7457L0.511719 13.6651L39.1848 1.56238L77.8578 13.6651Z" fill="#99ABC7" stroke="#515151" stroke-width="3" stroke-linejoin="bevel"/>
<path d="M39.1875 13.665H77.8605V29.0905" stroke="#515151" stroke-width="3" stroke-linejoin="bevel"/>
<path d="M77.8602 37.8924C80.3266 37.8924 82.326 35.922 82.326 33.4914C82.326 31.0608 80.3266 29.0905 77.8602 29.0905C75.3939 29.0905 73.3945 31.0608 73.3945 33.4914C73.3945 35.922 75.3939 37.8924 77.8602 37.8924Z" fill="#99ABC7" stroke="#515151" stroke-width="3" stroke-linejoin="bevel"/>
<path d="M77.1457 37.8925H78.5748C79.5696 37.8925 80.5238 38.2819 81.2273 38.9752C81.9307 39.6685 82.326 40.6088 82.326 41.5893V52.3717H73.3945V41.5893C73.3945 40.6088 73.7897 39.6685 74.4932 38.9752C75.1967 38.2819 76.1508 37.8925 77.1457 37.8925Z" fill="#99ABC7" stroke="#515151" stroke-width="3" stroke-linejoin="bevel"/>
</svg>
