<svg width="51" height="62" viewBox="0 0 51 62" fill="none" xmlns="http://www.w3.org/2000/svg">
<g clip-path="url(#clip0_575_2757)">
<path d="M26.0038 12.0785C26.0038 12.0785 16.3625 -2.13202 10.8658 2.32057C5.36912 6.77315 11.141 15.7029 11.141 15.7029L26.0038 12.0785Z" fill="#F3F5F8" stroke="#515151" stroke-width="3"/>
<path d="M25 12.0785C25 12.0785 34.6333 -2.13202 40.1381 2.32057C45.6429 6.77315 39.8629 15.7029 39.8629 15.7029L25 12.0785Z" fill="#F3F5F8" stroke="#515151" stroke-width="3"/>
<path d="M2.24417 24.0834C2.75399 24.6042 3.44681 24.899 4.17084 24.9034H13.9337L20.8065 31.8652V45.1081L2.1875 26.2974L2.24417 24.0834Z" fill="white" stroke="#515151" stroke-width="3"/>
<path d="M20.8221 24.8787V31.8404L13.9492 24.8787H20.8221Z" fill="white" stroke="#515151" stroke-width="3"/>
<path d="M2.24219 39.5156L20.8208 58.3346V60.565H9.94885L2.24219 52.7586V39.5156Z" fill="white" stroke="#515151" stroke-width="3"/>
<path d="M9.94776 60.565H5.02584C4.29586 60.565 3.59577 60.2713 3.0796 59.7485C2.56343 59.2256 2.27344 58.5165 2.27344 57.7771V52.7587L9.94776 60.565Z" fill="white" stroke="#515151" stroke-width="3"/>
<path d="M2.24219 26.2727L20.8208 45.0916V58.3346L2.24219 39.5157V26.2727Z" fill="white" stroke="#515151" stroke-width="3"/>
<path d="M30.1797 60.565V54.5708L36.0973 60.565H33.1385H30.1797Z" fill="#F3F5F8" stroke="#515151" stroke-width="3"/>
<path d="M46.8329 24.8787C47.5543 24.8731 48.2441 24.5783 48.7515 24.0587V33.6445L40.0977 24.8787H46.8329Z" fill="white" stroke="#515151" stroke-width="3"/>
<path d="M48.143 59.5236C47.8855 59.8491 47.559 60.1118 47.1876 60.292C46.8162 60.4723 46.4096 60.5656 45.9978 60.565H36.0973L30.1797 54.5709V41.3197L48.143 59.5236Z" fill="white" stroke="#515151" stroke-width="3"/>
<path d="M30.1797 24.8787H40.0964L48.7583 33.6526V46.8956L30.1797 28.0767V24.8787Z" fill="white" stroke="#515151" stroke-width="3"/>
<path d="M30.1797 28.0767L48.7502 46.9366V57.3471C48.7521 57.9827 48.5377 58.5995 48.143 59.0937L30.1797 41.3606V28.0767Z" fill="white" stroke="#515151" stroke-width="3"/>
<path d="M46.8316 11.4963C47.5602 11.4985 48.2582 11.7932 48.7726 12.3158C49.287 12.8384 49.5759 13.5463 49.5759 14.2843V22.0907C49.5759 22.8287 49.287 23.5366 48.7726 24.0592C48.2582 24.5818 47.5602 24.8765 46.8316 24.8787H30.1797V11.4963H46.8316Z" fill="#99ABC7" stroke="#515151" stroke-width="3" stroke-linecap="round" stroke-linejoin="round"/>
<path d="M4.17037 11.4963H20.8223V24.8787H4.17037C3.44039 24.8787 2.7403 24.585 2.22413 24.0621C1.70796 23.5393 1.41797 22.8301 1.41797 22.0907V14.2843C1.41797 13.5449 1.70796 12.8358 2.22413 12.3129C2.7403 11.7901 3.44039 11.4963 4.17037 11.4963Z" fill="#99ABC7" stroke="#515151" stroke-width="3" stroke-linecap="round" stroke-linejoin="round"/>
<path d="M30.1784 24.8787H20.8203V60.5649H25.4994H30.1784V24.8787Z" fill="white" stroke="#515151" stroke-width="3"/>
<path d="M30.1784 11.5045H20.8203V24.8869H30.1784V11.5045Z" fill="white" stroke="#515151" stroke-width="3"/>
</g>
<defs>
<clipPath id="clip0_575_2757">
<rect width="51" height="62" fill="white"/>
</clipPath>
</defs>
</svg>
