<svg width="70" height="70" viewBox="0 0 70 70" fill="none" xmlns="http://www.w3.org/2000/svg">
<path d="M68.4518 34.9922C68.4485 42.058 66.2064 48.9409 62.0473 54.6529C57.8882 60.3648 52.0261 64.612 45.3027 66.7845C38.5793 68.9571 31.3403 68.9432 24.6252 66.745C17.9102 64.5468 12.0644 60.2773 7.92713 54.5495C3.78991 48.8217 1.57411 41.9302 1.59785 34.8645C1.62158 27.7988 3.88365 20.9224 8.05926 15.2225C12.2349 9.52262 18.1092 5.29248 24.8389 3.13944C31.5686 0.986397 38.8075 1.02119 45.5162 3.23885C52.1909 5.45023 57.9992 9.7083 62.1164 15.4084C66.2336 21.1084 68.4503 27.9607 68.4518 34.9922Z" fill="white" stroke="#515151" stroke-width="3" stroke-linecap="round" stroke-linejoin="round"/>
<path d="M35.0072 22.9976L23.5859 31.2885L27.9561 44.6934H42.0584L46.413 31.2885L35.0072 22.9976Z" fill="#99ABC7" stroke="#515151" stroke-width="3" stroke-linecap="round" stroke-linejoin="round"/>
<path d="M45.5177 3.23883L35.0108 10.8789L24.4883 3.23883" fill="#99ABC7"/>
<path d="M45.5177 3.23883L35.0108 10.8789L24.4883 3.23883" stroke="#515151" stroke-width="3" stroke-linecap="round" stroke-linejoin="round"/>
<path d="M35.0078 10.8789V22.9976" stroke="#515151" stroke-width="3" stroke-linecap="round" stroke-linejoin="round"/>
<path d="M8.04403 15.1871L12.0733 27.5382L1.55078 35.1782" fill="#99ABC7"/>
<path d="M8.04403 15.1871L12.0733 27.5382L1.55078 35.1782" stroke="#515151" stroke-width="3" stroke-linecap="round" stroke-linejoin="round"/>
<path d="M12.0742 27.5381L23.5885 31.2884" stroke="#515151" stroke-width="3" stroke-linecap="round" stroke-linejoin="round"/>
<path d="M7.82812 54.5029H20.8301L24.8438 66.8695" fill="#99ABC7"/>
<path d="M7.82812 54.5029H20.8301L24.8438 66.8695" stroke="#515151" stroke-width="3" stroke-linecap="round" stroke-linejoin="round"/>
<path d="M20.8281 54.503L27.9413 44.6934" stroke="#515151" stroke-width="3" stroke-linecap="round" stroke-linejoin="round"/>
<path d="M45.1602 66.8695L49.1739 54.5029H62.1759" fill="#99ABC7"/>
<path d="M45.1602 66.8695L49.1739 54.5029H62.1759" stroke="#515151" stroke-width="3" stroke-linecap="round" stroke-linejoin="round"/>
<path d="M49.1716 54.503L42.043 44.7089" stroke="#515151" stroke-width="3" stroke-linecap="round" stroke-linejoin="round"/>
<path d="M68.4523 35.1782L57.9453 27.5537L61.959 15.1871" fill="#99ABC7"/>
<path d="M68.4523 35.1782L57.9453 27.5537L61.959 15.1871" stroke="#515151" stroke-width="3" stroke-linecap="round" stroke-linejoin="round"/>
<path d="M57.9438 27.5536L46.4141 31.2884" stroke="#515151" stroke-width="3" stroke-linecap="round" stroke-linejoin="round"/>
</svg>
