<svg width="57" height="69" viewBox="0 0 57 69" fill="none" xmlns="http://www.w3.org/2000/svg">
<path d="M55.4579 1.56009V62.8934L51.6972 67.4399C51.6972 67.4399 42.2207 54.6562 42.0974 54.2907C41.9741 53.9252 45.0126 6.35622 45.0126 6.35622L55.4579 1.56009Z" fill="white" stroke="#515151" stroke-width="3" stroke-linecap="round" stroke-linejoin="round"/>
<path d="M1.54297 8.93259L8.83533 5.86592L5.92016 1.56009H55.4605L48.6613 5.49146L51.6998 8.93259C51.6998 8.93259 32.7556 17.1698 32.3857 17.4194C32.0158 17.669 1.54297 8.93259 1.54297 8.93259Z" fill="#99ABC7" stroke="#515151" stroke-width="3" stroke-linecap="round" stroke-linejoin="round"/>
<path d="M51.691 8.93256H1.54297V67.4399H51.691V8.93256Z" fill="white" stroke="#515151" stroke-width="3" stroke-linecap="round" stroke-linejoin="round"/>
<path d="M37.5365 20.3077V33.7333C37.5365 36.6273 36.4007 39.4027 34.3791 41.449C32.3575 43.4954 29.6156 44.645 26.7565 44.645C23.8975 44.645 21.1556 43.4954 19.134 41.449C17.1123 39.4027 15.9766 36.6273 15.9766 33.7333V20.3077" stroke="#515151" stroke-width="3" stroke-linecap="round" stroke-linejoin="round"/>
<path d="M18.3468 17.7492C18.352 18.1951 18.2253 18.6324 17.9832 19.005C17.7411 19.3776 17.3946 19.6684 16.988 19.8402C16.5815 20.012 16.1335 20.0569 15.7015 19.9692C15.2696 19.8815 14.8734 19.6651 14.5637 19.3479C14.2541 19.0307 14.0452 18.627 13.9638 18.1887C13.8824 17.7505 13.9323 17.2976 14.1069 16.8882C14.2816 16.4788 14.5731 16.1316 14.9441 15.891C15.3151 15.6505 15.7486 15.5277 16.1891 15.5384C16.7616 15.5522 17.3065 15.7904 17.709 16.2028C18.1115 16.6152 18.3402 17.1695 18.3468 17.7492Z" fill="white" stroke="#515151" stroke-width="3" stroke-linecap="round" stroke-linejoin="round"/>
<path d="M39.5813 17.7492C39.5813 18.1918 39.4517 18.6244 39.2088 18.9924C38.9659 19.3604 38.6206 19.6471 38.2167 19.8165C37.8128 19.9859 37.3683 20.0302 36.9395 19.9438C36.5106 19.8575 36.1167 19.6444 35.8076 19.3314C35.4984 19.0185 35.2879 18.6198 35.2026 18.1857C35.1173 17.7517 35.1611 17.3018 35.3284 16.8929C35.4957 16.4841 35.7791 16.1346 36.1426 15.8887C36.5061 15.6429 36.9335 15.5116 37.3707 15.5116C37.957 15.5116 38.5193 15.7473 38.9339 16.167C39.3484 16.5866 39.5813 17.1558 39.5813 17.7492Z" fill="white" stroke="#515151" stroke-width="3" stroke-linecap="round" stroke-linejoin="round"/>
</svg>
