<svg width="70" height="68" viewBox="0 0 70 68" fill="none" xmlns="http://www.w3.org/2000/svg">
<path d="M10.6992 34.5724V52.6771C10.7057 53.768 11.1425 54.812 11.9142 55.5811C12.686 56.3502 13.7301 56.7818 14.8183 56.7818H55.1804C56.2664 56.7818 57.3079 56.3494 58.0758 55.5796C58.8437 54.8098 59.2751 53.7657 59.2751 52.6771V34.5724H10.6992Z" fill="#99ABC7" stroke="#515151" stroke-width="3" stroke-linejoin="round"/>
<path d="M20.5222 48.1815C21.9086 48.1815 23.0326 47.0548 23.0326 45.6649C23.0326 44.2751 21.9086 43.1483 20.5222 43.1483C19.1357 43.1483 18.0117 44.2751 18.0117 45.6649C18.0117 47.0548 19.1357 48.1815 20.5222 48.1815Z" fill="white" stroke="#515151" stroke-width="3" stroke-linejoin="round"/>
<path d="M49.4792 48.1815C50.8657 48.1815 51.9896 47.0548 51.9896 45.6649C51.9896 44.2751 50.8657 43.1483 49.4792 43.1483C48.0927 43.1483 46.9688 44.2751 46.9688 45.6649C46.9688 47.0548 48.0927 48.1815 49.4792 48.1815Z" fill="white" stroke="#515151" stroke-width="3" stroke-linejoin="round"/>
<path d="M59.2995 6.57242C59.2995 5.48152 58.8689 4.43492 58.1017 3.66125C57.3345 2.88759 56.293 2.44972 55.2048 2.44327H14.8183C13.7259 2.44327 12.6782 2.87832 11.9057 3.65268C11.1332 4.42704 10.6992 5.4773 10.6992 6.57242V10.5305H59.2995V6.57242Z" fill="#99ABC7" stroke="#515151" stroke-width="3" stroke-linejoin="round"/>
<path d="M59.2986 10.5061H10.7227V34.548H59.2986V10.5061Z" fill="white" stroke="#515151" stroke-width="3" stroke-linejoin="round"/>
<path d="M8.75017 15.6859H4.41173C3.32139 15.6859 2.4375 16.5719 2.4375 17.6649V27.4136C2.4375 28.5066 3.32139 29.3927 4.41173 29.3927H8.75017C9.84051 29.3927 10.7244 28.5066 10.7244 27.4136V17.6649C10.7244 16.5719 9.84051 15.6859 8.75017 15.6859Z" stroke="#515151" stroke-width="3" stroke-linejoin="round"/>
<path d="M61.2498 29.3926H65.5883C66.6786 29.3926 67.5625 28.5066 67.5625 27.4136V17.6649C67.5625 16.5719 66.6786 15.6859 65.5883 15.6859H61.2498C60.1595 15.6859 59.2755 16.5719 59.2755 17.6649V27.4136C59.2755 28.5066 60.1595 29.3926 61.2498 29.3926Z" stroke="#515151" stroke-width="3" stroke-linejoin="round"/>
<path d="M23 57H18C17.4477 57 17 57.4477 17 58V65C17 65.5523 17.4477 66 18 66H23C23.5523 66 24 65.5523 24 65V58C24 57.4477 23.5523 57 23 57Z" fill="white" stroke="#515151" stroke-width="3" stroke-linejoin="round"/>
<path d="M52 57H47C46.4477 57 46 57.4477 46 58V65C46 65.5523 46.4477 66 47 66H52C52.5523 66 53 65.5523 53 65V58C53 57.4477 52.5523 57 52 57Z" fill="white" stroke="#515151" stroke-width="3" stroke-linejoin="round"/>
</svg>
