<svg width="72" height="63" viewBox="0 0 72 63" fill="none" xmlns="http://www.w3.org/2000/svg">
<path d="M53.4464 1.80615H18.5703V61.1938H53.4464V1.80615Z" fill="white" stroke="#515151" stroke-width="3" stroke-linejoin="round"/>
<path d="M36 7.1886V18.098" stroke="#515151" stroke-width="3" stroke-linejoin="round"/>
<path d="M30.6133 12.6433H41.3883" stroke="#515151" stroke-width="3" stroke-linejoin="round"/>
<path d="M25.2266 24.3295H29.8827" stroke="#515151" stroke-width="3" stroke-linejoin="round"/>
<path d="M33.6797 24.3295H38.3358" stroke="#515151" stroke-width="3" stroke-linejoin="round"/>
<path d="M42.1367 24.3295H46.7928" stroke="#515151" stroke-width="3" stroke-linejoin="round"/>
<path d="M25.2266 31.5H29.8827" stroke="#515151" stroke-width="3" stroke-linejoin="round"/>
<path d="M33.6797 31.5H38.3358" stroke="#515151" stroke-width="3" stroke-linejoin="round"/>
<path d="M42.1367 31.5H46.7928" stroke="#515151" stroke-width="3" stroke-linejoin="round"/>
<path d="M25.2266 38.6525H29.8827" stroke="#515151" stroke-width="3" stroke-linejoin="round"/>
<path d="M33.6797 38.6525H38.3358" stroke="#515151" stroke-width="3" stroke-linejoin="round"/>
<path d="M42.1367 38.6525H46.7928" stroke="#515151" stroke-width="3" stroke-linejoin="round"/>
<path d="M40.1386 49.3452H31.8789V61.1938H40.1386V49.3452Z" fill="#99ABC7" stroke="#515151" stroke-width="3" stroke-linejoin="round"/>
<path d="M18.5721 26.6052H1.78516V61.1938H18.5721V26.6052Z" fill="#99ABC7" stroke="#515151" stroke-width="3" stroke-linejoin="round"/>
<path d="M7.84766 34.6067H12.5038" stroke="#515151" stroke-width="3" stroke-linejoin="round"/>
<path d="M7.84766 40.6754H12.5038" stroke="#515151" stroke-width="3" stroke-linejoin="round"/>
<path d="M7.84766 46.7443H12.5038" stroke="#515151" stroke-width="3" stroke-linejoin="round"/>
<path d="M70.2322 26.6052H53.4453V61.1938H70.2322V26.6052Z" fill="#99ABC7" stroke="#515151" stroke-width="3" stroke-linejoin="round"/>
<path d="M59.5117 34.6067H64.1678" stroke="#515151" stroke-width="3" stroke-linejoin="round"/>
<path d="M59.5117 40.6754H64.1678" stroke="#515151" stroke-width="3" stroke-linejoin="round"/>
<path d="M59.5117 46.7443H64.1678" stroke="#515151" stroke-width="3" stroke-linejoin="round"/>
</svg>
