<svg width="1179" height="424" viewBox="0 0 1179 424" fill="none" xmlns="http://www.w3.org/2000/svg">
<rect x="80.3527" y="231.534" width="1049" height="1" transform="rotate(-10 80.3527 231.534)" stroke="#002D72" stroke-dasharray="2 6"/>
<rect x="40" y="249" width="1" height="175" fill="#AAAAAA"/>
<rect y="200" width="80" height="80" rx="40" fill="#515151"/>
<path d="M37.7053 238.373C37.5893 237.971 37.407 237.627 37.1584 237.341C36.9139 237.051 36.6093 236.829 36.2447 236.676C35.8801 236.519 35.4657 236.44 35.0016 236.44C34.3469 236.44 33.7709 236.606 33.2737 236.937C32.7765 237.265 32.389 237.741 32.1114 238.367C31.8379 238.992 31.7012 239.744 31.7012 240.623C31.7012 241.51 31.8359 242.268 32.1052 242.898C32.3787 243.523 32.764 244.002 33.2613 244.334C33.7627 244.665 34.3531 244.831 35.0327 244.831C35.6377 244.831 36.1598 244.721 36.599 244.501C37.0424 244.278 37.3801 243.963 37.6121 243.557C37.8441 243.151 37.9602 242.674 37.9602 242.127L38.5009 242.208H35.2067V240.206H40.5147V241.798C40.5147 242.892 40.2806 243.845 39.8124 244.657C39.3483 245.469 38.6998 246.093 37.8669 246.528C37.0341 246.959 36.0831 247.174 35.014 247.174C33.829 247.174 32.7827 246.909 31.8752 246.378C30.9719 245.848 30.2696 245.092 29.7682 244.11C29.2709 243.128 29.0223 241.974 29.0223 240.648C29.0223 239.305 29.2792 238.141 29.793 237.155C30.311 236.164 31.0196 235.408 31.9187 234.886C32.8179 234.36 33.831 234.097 34.9581 234.097C35.9029 234.097 36.7668 234.279 37.55 234.644C38.3372 235.004 38.9795 235.51 39.4767 236.16C39.974 236.807 40.2806 237.544 40.3966 238.373H37.7053ZM47.8558 247H45.208V236.788H45.1334L42.2121 238.622V236.272L45.3634 234.271H47.8558V247Z" fill="white"/>
<rect x="408" y="179" width="1" height="245" fill="#AAAAAA"/>
<rect x="366" y="130" width="81" height="80" rx="40" fill="#515151"/>
<path d="M403.931 168.373C403.815 167.971 403.633 167.627 403.384 167.341C403.139 167.051 402.835 166.829 402.47 166.676C402.106 166.519 401.691 166.44 401.227 166.44C400.572 166.44 399.997 166.606 399.499 166.937C399.002 167.265 398.615 167.741 398.337 168.367C398.064 168.992 397.927 169.744 397.927 170.623C397.927 171.51 398.061 172.268 398.331 172.898C398.604 173.523 398.99 174.002 399.487 174.334C399.988 174.665 400.579 174.831 401.258 174.831C401.863 174.831 402.385 174.721 402.825 174.501C403.268 174.278 403.606 173.963 403.838 173.557C404.07 173.151 404.186 172.674 404.186 172.127L404.727 172.208H401.432V170.206H406.74V171.798C406.74 172.892 406.506 173.845 406.038 174.657C405.574 175.469 404.925 176.093 404.093 176.528C403.26 176.959 402.309 177.174 401.24 177.174C400.055 177.174 399.008 176.909 398.101 176.378C397.197 175.848 396.495 175.092 395.994 174.11C395.497 173.128 395.248 171.974 395.248 170.648C395.248 169.305 395.505 168.141 396.019 167.155C396.537 166.164 397.245 165.408 398.144 164.886C399.043 164.36 400.057 164.097 401.184 164.097C402.128 164.097 402.992 164.279 403.776 164.644C404.563 165.004 405.205 165.51 405.702 166.16C406.2 166.807 406.506 167.544 406.622 168.373H403.931ZM408.587 175.092L413.161 170.884C413.609 170.453 413.957 170.095 414.206 169.809C414.458 169.523 414.651 169.237 414.784 168.951C414.92 168.661 414.989 168.352 414.989 168.025C414.989 167.66 414.902 167.339 414.728 167.061C414.554 166.784 414.313 166.573 414.007 166.427C413.7 166.278 413.354 166.204 412.969 166.204C412.571 166.204 412.223 166.282 411.925 166.44C411.626 166.597 411.394 166.827 411.228 167.13C411.067 167.428 410.986 167.778 410.986 168.18H408.475C408.475 167.36 408.664 166.641 409.041 166.023C409.422 165.406 409.952 164.932 410.632 164.6C411.315 164.265 412.101 164.097 412.987 164.097C413.887 164.097 414.68 164.256 415.368 164.575C416.06 164.89 416.594 165.334 416.972 165.905C417.349 166.477 417.537 167.128 417.537 167.857C417.537 168.358 417.44 168.841 417.245 169.305C417.05 169.765 416.713 170.277 416.232 170.84C415.755 171.404 415.08 172.081 414.206 172.873L412.266 174.744V174.831H417.711V177H408.593L408.587 175.092Z" fill="white"/>
<rect x="774" y="119" width="1" height="305" fill="#AAAAAA"/>
<rect x="732" y="70" width="81" height="80" rx="40" fill="#275090"/>
<path d="M769.676 108.373C769.56 107.971 769.378 107.627 769.129 107.341C768.885 107.051 768.58 106.829 768.215 106.676C767.851 106.519 767.436 106.44 766.972 106.44C766.318 106.44 765.742 106.606 765.244 106.937C764.747 107.265 764.36 107.741 764.082 108.367C763.809 108.992 763.672 109.744 763.672 110.623C763.672 111.51 763.807 112.268 764.076 112.898C764.349 113.523 764.735 114.002 765.232 114.334C765.733 114.665 766.324 114.831 767.003 114.831C767.608 114.831 768.13 114.721 768.57 114.501C769.013 114.278 769.351 113.963 769.583 113.557C769.815 113.151 769.931 112.674 769.931 112.127L770.472 112.208H767.177V110.206H772.485V111.798C772.485 112.892 772.251 113.845 771.783 114.657C771.319 115.469 770.671 116.093 769.838 116.528C769.005 116.959 768.054 117.174 766.985 117.174C765.8 117.174 764.753 116.909 763.846 116.378C762.943 115.848 762.24 115.092 761.739 114.11C761.242 113.128 760.993 111.974 760.993 110.648C760.993 109.305 761.25 108.141 761.764 107.155C762.282 106.164 762.99 105.408 763.889 104.886C764.789 104.36 765.802 104.097 766.929 104.097C767.874 104.097 768.738 104.279 769.521 104.644C770.308 105.004 770.95 105.51 771.447 106.16C771.945 106.807 772.251 107.544 772.367 108.373H769.676ZM779.062 117.174C778.138 117.174 777.309 117.017 776.576 116.702C775.847 116.383 775.273 115.939 774.854 115.372C774.44 114.8 774.226 114.149 774.214 113.42H776.88C776.893 113.727 776.996 114 777.191 114.24C777.386 114.477 777.645 114.661 777.968 114.794C778.295 114.922 778.662 114.986 779.068 114.986C779.487 114.986 779.862 114.914 780.193 114.769C780.525 114.619 780.782 114.414 780.964 114.153C781.15 113.892 781.242 113.594 781.237 113.258C781.242 112.914 781.146 112.608 780.951 112.338C780.757 112.069 780.477 111.86 780.112 111.711C779.748 111.561 779.319 111.487 778.826 111.487H777.645V109.529H778.826C779.24 109.529 779.609 109.459 779.932 109.318C780.259 109.177 780.512 108.978 780.69 108.721C780.869 108.464 780.958 108.17 780.958 107.838C780.958 107.515 780.881 107.229 780.728 106.981C780.574 106.732 780.355 106.541 780.069 106.409C779.787 106.272 779.46 106.204 779.087 106.204C778.714 106.204 778.372 106.27 778.061 106.403C777.751 106.535 777.5 106.724 777.309 106.968C777.119 107.213 777.017 107.492 777.005 107.807H774.469C774.481 107.09 774.69 106.45 775.097 105.887C775.503 105.319 776.056 104.88 776.756 104.569C777.456 104.254 778.237 104.097 779.099 104.097C779.965 104.097 780.732 104.254 781.399 104.569C782.07 104.884 782.59 105.315 782.959 105.862C783.328 106.405 783.51 107.01 783.506 107.677C783.51 108.145 783.411 108.568 783.208 108.945C783.009 109.322 782.725 109.633 782.356 109.877C781.987 110.122 781.565 110.287 781.088 110.374V110.474C781.706 110.552 782.232 110.722 782.667 110.983C783.106 111.244 783.436 111.586 783.655 112.009C783.879 112.427 783.989 112.902 783.985 113.432C783.989 114.145 783.78 114.787 783.357 115.359C782.938 115.927 782.354 116.372 781.604 116.695C780.854 117.015 780.007 117.174 779.062 117.174Z" fill="white"/>
<rect x="1140" y="49" width="1" height="375" fill="#AAAAAA"/>
<rect x="1098" width="81" height="80" rx="40" fill="#275090"/>
<path d="M1135.01 38.3729C1134.89 37.971 1134.71 37.6271 1134.46 37.3412C1134.22 37.0511 1133.91 36.8294 1133.55 36.6761C1133.18 36.5186 1132.77 36.4399 1132.31 36.4399C1131.65 36.4399 1131.07 36.6057 1130.58 36.9372C1130.08 37.2645 1129.69 37.741 1129.42 38.3667C1129.14 38.9924 1129 39.7445 1129 40.6229C1129 41.5097 1129.14 42.268 1129.41 42.8978C1129.68 43.5235 1130.07 44.0021 1130.56 44.3336C1131.07 44.6651 1131.66 44.8308 1132.34 44.8308C1132.94 44.8308 1133.46 44.721 1133.9 44.5014C1134.35 44.2776 1134.68 43.9627 1134.92 43.5566C1135.15 43.1506 1135.26 42.674 1135.26 42.1271L1135.8 42.2079H1132.51V40.2065H1137.82V41.7977C1137.82 42.8916 1137.58 43.8446 1137.12 44.6568C1136.65 45.4689 1136 46.0925 1135.17 46.5276C1134.34 46.9586 1133.39 47.174 1132.32 47.174C1131.13 47.174 1130.09 46.9088 1129.18 46.3785C1128.28 45.8481 1127.57 45.0919 1127.07 44.1098C1126.57 43.1278 1126.33 41.9738 1126.33 40.6478C1126.33 39.3052 1126.58 38.1409 1127.1 37.1547C1127.61 36.1644 1128.32 35.4081 1129.22 34.886C1130.12 34.3598 1131.13 34.0967 1132.26 34.0967C1133.21 34.0967 1134.07 34.279 1134.85 34.6436C1135.64 35.0041 1136.28 35.5097 1136.78 36.1602C1137.28 36.8066 1137.58 37.5442 1137.7 38.3729H1135.01ZM1139.47 42.6616L1144.85 34.2707H1146.64V37.1671H1145.57L1142.13 42.5249V42.6243H1149.78V44.7438H1139.47V42.6616ZM1145.65 44.1098L1145.69 43.1837V34.2707H1148.17V47H1145.65V44.1098Z" fill="white"/>
</svg>
