<svg width="320" height="237" viewBox="0 0 320 237" fill="none" xmlns="http://www.w3.org/2000/svg">
<rect x="15.9299" y="124.868" width="299" height="1" transform="rotate(-20 15.9299 124.868)" stroke="#002D72" stroke-dasharray="2 5"/>
<rect x="28" y="146" width="1" height="91" fill="#AAAAAA"/>
<rect x="116" y="110" width="1" height="127" fill="#AAAAAA"/>
<rect x="204" y="80" width="1" height="157" fill="#AAAAAA"/>
<path d="M292 50H293V237H292V50Z" fill="#AAAAAA"/>
<rect y="90.0001" width="56" height="56" rx="28" fill="#515151"/>
<rect x="88" y="60.0001" width="56" height="56" rx="28" fill="#515151"/>
<rect x="176" y="30.0001" width="56" height="56" rx="28" fill="#275090"/>
<rect x="264" y="0.00012207" width="56" height="56" rx="28" fill="#275090"/>
<path d="M27.493 117.29C27.4028 116.978 27.261 116.71 27.0676 116.488C26.8775 116.262 26.6406 116.09 26.357 115.97C26.0734 115.848 25.7511 115.787 25.3901 115.787C24.8809 115.787 24.433 115.916 24.0462 116.173C23.6595 116.428 23.3581 116.799 23.1422 117.285C22.9295 117.772 22.8232 118.357 22.8232 119.04C22.8232 119.73 22.9279 120.32 23.1374 120.81C23.3501 121.296 23.6498 121.668 24.0365 121.926C24.4265 122.184 24.8858 122.313 25.4143 122.313C25.8848 122.313 26.2909 122.228 26.6325 122.057C26.9774 121.883 27.24 121.638 27.4205 121.322C27.601 121.006 27.6912 120.635 27.6912 120.21L28.1118 120.273H25.5497V118.716H29.6781V119.954C29.6781 120.805 29.496 121.546 29.1319 122.178C28.7709 122.809 28.2665 123.294 27.6187 123.633C26.9709 123.968 26.2313 124.135 25.3998 124.135C24.4781 124.135 23.6643 123.929 22.9585 123.517C22.2559 123.104 21.7097 122.516 21.3197 121.752C20.933 120.988 20.7396 120.091 20.7396 119.06C20.7396 118.015 20.9394 117.11 21.339 116.343C21.7419 115.572 22.293 114.984 22.9923 114.578C23.6917 114.169 24.4797 113.964 25.3563 113.964C26.0911 113.964 26.7631 114.106 27.3722 114.39C27.9845 114.67 28.4841 115.063 28.8708 115.569C29.2575 116.072 29.496 116.646 29.5863 117.29H27.493ZM35.3878 124H33.3284V116.057H33.2704L30.9983 117.484V115.656L33.4493 114.1H35.3878V124Z" fill="white"/>
<path d="M114.502 87.2902C114.412 86.9776 114.27 86.7101 114.076 86.4877C113.886 86.2621 113.649 86.0897 113.366 85.9704C113.082 85.848 112.76 85.7867 112.399 85.7867C111.89 85.7867 111.442 85.9156 111.055 86.1735C110.668 86.4281 110.367 86.7987 110.151 87.2853C109.938 87.772 109.832 88.3569 109.832 89.0402C109.832 89.7299 109.937 90.3196 110.146 90.8095C110.359 91.2962 110.659 91.6684 111.045 91.9262C111.435 92.1841 111.895 92.313 112.423 92.313C112.894 92.313 113.3 92.2276 113.641 92.0568C113.986 91.8827 114.249 91.6378 114.429 91.3219C114.61 91.0061 114.7 90.6355 114.7 90.2101L115.121 90.2729H112.558V88.7163H116.687V89.9539C116.687 90.8047 116.505 91.5459 116.141 92.1776C115.78 92.8093 115.275 93.2943 114.628 93.6327C113.98 93.9679 113.24 94.1355 112.409 94.1355C111.487 94.1355 110.673 93.9292 109.967 93.5167C109.265 93.1042 108.718 92.516 108.328 91.7522C107.942 90.9884 107.748 90.0908 107.748 89.0595C107.748 88.0153 107.948 87.1097 108.348 86.3427C108.751 85.5724 109.302 84.9842 110.001 84.5782C110.7 84.1689 111.488 83.9642 112.365 83.9642C113.1 83.9642 113.772 84.106 114.381 84.3896C114.993 84.67 115.493 85.0632 115.88 85.5692C116.266 86.0719 116.505 86.6456 116.595 87.2902H114.502ZM118.123 92.516L121.681 89.2432C122.029 88.908 122.3 88.6293 122.493 88.4069C122.69 88.1845 122.84 87.9621 122.943 87.7398C123.049 87.5142 123.102 87.2741 123.102 87.0195C123.102 86.7358 123.035 86.4861 122.899 86.2701C122.764 86.0542 122.577 85.8899 122.339 85.7771C122.1 85.661 121.831 85.603 121.531 85.603C121.222 85.603 120.951 85.6643 120.719 85.7867C120.487 85.9092 120.307 86.0881 120.178 86.3233C120.052 86.5554 119.989 86.8277 119.989 87.1403H118.036C118.036 86.5022 118.183 85.943 118.476 85.4628C118.773 84.9826 119.185 84.6136 119.714 84.3558C120.245 84.0947 120.856 83.9642 121.546 83.9642C122.245 83.9642 122.862 84.0883 123.397 84.3364C123.936 84.5814 124.351 84.9262 124.645 85.371C124.938 85.8157 125.084 86.3217 125.084 86.8889C125.084 87.2789 125.009 87.6544 124.857 88.0153C124.706 88.373 124.443 88.7711 124.069 89.2094C123.699 89.6477 123.173 90.1746 122.493 90.7902L120.985 92.2453V92.313H125.22V94.0001H118.128L118.123 92.516Z" fill="white"/>
<path d="M201.804 57.2902C201.713 56.9776 201.572 56.7101 201.378 56.4877C201.188 56.2621 200.951 56.0897 200.668 55.9704C200.384 55.848 200.062 55.7867 199.701 55.7867C199.191 55.7867 198.744 55.9156 198.357 56.1735C197.97 56.4281 197.669 56.7987 197.453 57.2853C197.24 57.772 197.134 58.3569 197.134 59.0402C197.134 59.7299 197.238 60.3196 197.448 60.8095C197.661 61.2962 197.96 61.6684 198.347 61.9262C198.737 62.1841 199.196 62.313 199.725 62.313C200.195 62.313 200.601 62.2276 200.943 62.0568C201.288 61.8827 201.551 61.6378 201.731 61.3219C201.912 61.0061 202.002 60.6355 202.002 60.2101L202.422 60.2729H199.86V58.7163H203.989V59.9539C203.989 60.8047 203.807 61.5459 203.442 62.1776C203.081 62.8093 202.577 63.2943 201.929 63.6327C201.281 63.9679 200.542 64.1355 199.71 64.1355C198.789 64.1355 197.975 63.9292 197.269 63.5167C196.566 63.1042 196.02 62.516 195.63 61.7522C195.244 60.9884 195.05 60.0908 195.05 59.0595C195.05 58.0153 195.25 57.1097 195.65 56.3427C196.052 55.5724 196.604 54.9842 197.303 54.5782C198.002 54.1689 198.79 53.9642 199.667 53.9642C200.402 53.9642 201.074 54.106 201.683 54.3896C202.295 54.67 202.795 55.0632 203.181 55.5692C203.568 56.0719 203.807 56.6456 203.897 57.2902H201.804ZM209.104 64.1355C208.385 64.1355 207.741 64.013 207.17 63.7681C206.603 63.5199 206.156 63.1751 205.831 62.7335C205.509 62.2888 205.343 61.7828 205.333 61.2156H207.407C207.417 61.4541 207.497 61.6668 207.649 61.8537C207.8 62.0374 208.002 62.1808 208.253 62.284C208.508 62.3839 208.793 62.4338 209.109 62.4338C209.434 62.4338 209.726 62.3774 209.984 62.2646C210.241 62.1486 210.441 61.9891 210.583 61.786C210.728 61.583 210.799 61.351 210.796 61.0899C210.799 60.8224 210.725 60.5839 210.573 60.3744C210.422 60.1649 210.204 60.0022 209.921 59.8862C209.637 59.7701 209.304 59.7121 208.92 59.7121H208.002V58.1893H208.92C209.242 58.1893 209.529 58.1346 209.781 58.025C210.035 57.9154 210.232 57.7607 210.37 57.5609C210.509 57.3611 210.578 57.1323 210.578 56.8744C210.578 56.623 210.519 56.4007 210.399 56.2073C210.28 56.0139 210.109 55.8657 209.887 55.7626C209.668 55.6562 209.413 55.603 209.123 55.603C208.833 55.603 208.567 55.6546 208.325 55.7577C208.084 55.8608 207.889 56.0075 207.741 56.1976C207.592 56.3878 207.513 56.6053 207.504 56.8503H205.531C205.541 56.2927 205.704 55.7948 206.02 55.3565C206.335 54.9149 206.766 54.5733 207.31 54.3316C207.855 54.0867 208.462 53.9642 209.133 53.9642C209.806 53.9642 210.403 54.0867 210.921 54.3316C211.444 54.5765 211.848 54.9117 212.135 55.3371C212.422 55.7593 212.563 56.2299 212.56 56.7487C212.563 57.1129 212.486 57.4417 212.328 57.7349C212.174 58.0282 211.953 58.2699 211.666 58.4601C211.379 58.6502 211.05 58.7791 210.68 58.8468V58.9242C211.16 58.9854 211.569 59.1175 211.908 59.3206C212.249 59.5236 212.505 59.7895 212.676 60.1182C212.85 60.4437 212.936 60.8127 212.932 61.2253C212.936 61.7796 212.773 62.2791 212.444 62.7239C212.119 63.1654 211.664 63.5119 211.081 63.7632C210.498 64.0114 209.839 64.1355 209.104 64.1355Z" fill="white"/>
<path d="M289.674 27.2902C289.583 26.9776 289.442 26.7101 289.248 26.4877C289.058 26.2621 288.821 26.0897 288.538 25.9704C288.254 25.848 287.932 25.7867 287.571 25.7867C287.062 25.7867 286.614 25.9156 286.227 26.1735C285.84 26.4281 285.539 26.7987 285.323 27.2853C285.11 27.772 285.004 28.3569 285.004 29.0402C285.004 29.7299 285.109 30.3196 285.318 30.8095C285.531 31.2962 285.83 31.6684 286.217 31.9262C286.607 32.1841 287.066 32.313 287.595 32.313C288.066 32.313 288.472 32.2276 288.813 32.0568C289.158 31.8827 289.421 31.6378 289.601 31.3219C289.782 31.0061 289.872 30.6355 289.872 30.2101L290.292 30.2729H287.73V28.7163H291.859V29.9539C291.859 30.8047 291.677 31.5459 291.313 32.1776C290.952 32.8093 290.447 33.2943 289.799 33.6327C289.152 33.9679 288.412 34.1355 287.58 34.1355C286.659 34.1355 285.845 33.9292 285.139 33.5167C284.437 33.1042 283.89 32.516 283.5 31.7522C283.114 30.9884 282.92 30.0908 282.92 29.0595C282.92 28.0153 283.12 27.1097 283.52 26.3427C283.923 25.5724 284.474 24.9842 285.173 24.5782C285.872 24.1689 286.66 23.9642 287.537 23.9642C288.272 23.9642 288.944 24.106 289.553 24.3896C290.165 24.67 290.665 25.0632 291.051 25.5692C291.438 26.0719 291.677 26.6456 291.767 27.2902H289.674ZM293.14 30.6258L297.332 24.0996H298.724V26.3523H297.888L295.214 30.5195V30.5968H301.16V32.2453H293.14V30.6258ZM297.95 31.7522L297.979 31.0319V24.0996H299.913V34.0001H297.95V31.7522Z" fill="white"/>
</svg>
