<svg width="96" height="42" viewBox="0 0 96 42" fill="none" xmlns="http://www.w3.org/2000/svg">
<path d="M7.43938 0V4.22625H2.64406V0H0V11.0714H2.64406V6.61829H7.43938V11.0714H10.074V0H9.94128H7.43938Z" fill="white"/>
<path d="M19.7686 0L17.0014 4.38698L14.2436 0H11.1162L15.6841 7.2423V11.0714H18.3187V7.2423L22.8771 0H22.6401H19.7686Z" fill="white"/>
<path d="M30.927 0V8.12158C30.927 8.42413 30.6995 8.67941 30.3678 8.67941H26.1317V0H23.4971V11.0714H31.306C31.9979 11.0714 32.557 10.8634 32.9645 10.4663C33.372 10.0598 33.571 9.50197 33.571 8.81177V0H33.4383H30.927Z" fill="white"/>
<path d="M43.599 0H35.79V11.0714H38.4341V2.40149H42.6703C43.0114 2.40149 43.2294 2.66622 43.2294 2.95932V11.0809H45.864V2.26913C45.864 1.57893 45.665 1.02111 45.2575 0.614555C44.85 0.208003 44.2908 0 43.599 0Z" fill="white"/>
<path d="M55.4198 2.97823V8.11213C55.4198 8.41468 55.2019 8.68886 54.8607 8.68886H50.6245V2.40149H54.8417C55.1829 2.40149 55.4198 2.63786 55.4198 2.97823ZM55.7894 0H47.9805V11.0714H55.7894C56.4812 11.0714 57.0404 10.8634 57.4479 10.4663C57.8554 10.0598 58.0639 9.50197 58.0639 8.81177V2.26913C58.0639 1.57893 57.8554 1.02111 57.4479 0.614555C57.0404 0.208003 56.4812 0 55.7894 0Z" fill="white"/>
<path d="M67.4865 2.40149V5.25681H62.6912V2.96877C62.6912 2.69459 62.8997 2.40149 63.2504 2.40149H67.4865ZM62.3216 0C61.6298 0 61.0707 0.208003 60.6632 0.614555C60.2557 1.02111 60.0566 1.57893 60.0566 2.26913V11.0714H62.6912V7.64885H67.4865V11.0714H70.1211V0H62.3216Z" fill="white"/>
<path d="M75.23 0H72.5859V11.0714H75.23V0Z" fill="white"/>
<path d="M30.8483 42L37.7004 16.7104H29.9751L23.123 42H30.8483Z" fill="white"/>
<path d="M64.9829 23.1914L66.7389 16.7104H42.464L40.708 23.1914H48.9828L43.8867 42H51.612L56.7081 23.1914H64.9829Z" fill="white"/>
<path d="M89.0598 42L90.7579 35.7324H74.503C73.9425 35.7324 73.712 35.5684 73.6086 35.3838C73.4816 35.1574 73.4386 34.7267 73.6396 33.9848L76.167 24.6567C76.2868 24.2149 76.5097 23.8718 76.8351 23.6099L76.8392 23.6066L76.8432 23.6032C77.1693 23.3281 77.544 23.1914 77.9875 23.1914H94.1559L95.9118 16.7104H77.7303C74.9138 16.7104 72.7135 17.3423 71.2102 18.6839C70.1833 19.593 69.4539 20.9209 68.993 22.6222L65.5818 35.2121C64.9997 37.3606 65.276 39.1355 66.5585 40.4057C67.6468 41.4907 69.1928 42 71.1228 42H89.0598Z" fill="white"/>
</svg>
