<svg width="158" height="40" viewBox="0 0 158 40" fill="none" xmlns="http://www.w3.org/2000/svg">
<g clip-path="url(#clip0_827_185)">
<path d="M13.7001 13.3321H0V26.6643H13.7001V13.3321Z" fill="#8B1812"/>
<path d="M27.4003 26.6679H13.7001V40H27.4003V26.6679Z" fill="#8B1812"/>
<path d="M40.6209 13.8023V26.1941H27.8834V13.8023H40.6209ZM41.1041 13.3321H27.4003V26.6643H41.1041V13.3321Z" fill="#969696"/>
<path d="M27.4003 0H13.7001V13.3321H27.4003V0Z" fill="#8B1812"/>
<path d="M81.6225 11.537H87.0652C85.0887 8.03576 81.9714 5.27397 78.2043 3.68666C74.4373 2.09934 70.2346 1.77671 66.2584 2.7696C62.2822 3.76248 58.7585 6.01445 56.2422 9.17075C53.726 12.327 52.3603 16.2083 52.3603 20.203C52.3603 24.1978 53.726 28.079 56.2422 31.2353C58.7585 34.3916 62.2822 36.6436 66.2584 37.6365C70.2346 38.6293 74.4373 38.3067 78.2043 36.7194C81.9714 35.1321 85.0887 32.3703 87.0652 28.8691H81.6225C81.0624 29.5299 80.4385 30.137 79.7595 30.6821C77.6296 32.3964 75.0252 33.4576 72.2755 33.7315C69.5258 34.0054 66.7545 33.4796 64.3119 32.2206C61.8693 30.9617 59.8652 29.0262 58.5531 26.6588C57.241 24.2914 56.6797 21.5986 56.9403 18.9208C57.2008 16.243 58.2716 13.7005 60.017 11.615C61.7625 9.52937 64.1043 7.99432 66.7463 7.20395C69.3883 6.41358 72.2118 6.40339 74.8598 7.17466C77.5077 7.94593 79.8612 9.46402 81.6225 11.537Z" fill="#8B1812"/>
<path d="M139.487 2.29029C143.145 2.28818 146.722 3.34187 149.765 5.3181C152.807 7.29432 155.18 10.1043 156.581 13.3927C157.983 16.681 158.351 20.3 157.639 23.7919C156.927 27.2838 155.167 30.4918 152.581 33.0101C149.995 35.5284 146.7 37.2439 143.112 37.9397C139.524 38.6354 135.805 38.2801 132.425 36.9187C129.045 35.5574 126.155 33.251 124.122 30.2915C122.089 27.3319 121.003 23.8521 121.003 20.2921C121.002 15.5199 122.948 10.9427 126.415 7.56689C129.881 4.1911 134.583 2.29313 139.487 2.29029ZM153.458 20.2921C153.458 17.6021 152.639 14.9723 151.104 12.7354C149.569 10.4984 147.386 8.75483 144.833 7.72509C142.279 6.69535 139.469 6.42574 136.758 6.95036C134.046 7.47498 131.556 8.77026 129.601 10.6724C127.647 12.5745 126.316 14.998 125.777 17.6363C125.238 20.2746 125.515 23.0093 126.573 25.4944C127.631 27.9795 129.423 30.1034 131.721 31.5974C134.02 33.0914 136.722 33.8885 139.487 33.8878C141.322 33.8892 143.141 33.5386 144.837 32.856C146.534 32.1734 148.075 31.1723 149.374 29.9097C150.673 28.6471 151.703 27.1479 152.406 25.4977C153.11 23.8474 153.472 22.0786 153.472 20.2921H153.458Z" fill="#8B1812"/>
<path d="M114.096 35.2805L112.412 37.0401L108.038 33.0793L108.016 33.0543C107.946 33.269 107.863 33.4795 107.767 33.6848C107.319 34.6887 106.624 35.5698 105.743 36.2502C104.863 36.9307 103.823 37.3895 102.717 37.5862C101.61 37.783 100.471 37.7115 99.4 37.3781C98.3287 37.0448 97.3583 36.4599 96.5745 35.675C95.7907 34.8901 95.2176 33.9294 94.9059 32.8779C94.5941 31.8263 94.5533 30.7162 94.787 29.6456C95.0207 28.575 95.5218 27.577 96.2459 26.7396C96.97 25.9022 97.895 25.2512 98.939 24.8442L97.8812 23.8896C96.9852 23.0795 96.3929 22.0016 96.1981 20.8267C96.0033 19.6518 96.2171 18.4472 96.8057 17.4041C97.3943 16.3609 98.3239 15.5388 99.4472 15.0682C100.57 14.5976 101.823 14.5054 103.006 14.8062C104.189 15.1071 105.236 15.7837 105.979 16.7289C106.722 17.674 107.119 18.8336 107.108 20.0236C107.097 21.2137 106.678 22.3661 105.918 23.298C105.157 24.23 104.099 24.8882 102.91 25.1683L107.163 29.0223L110.051 22.5539H112.738L109.078 30.7462L114.096 35.2805ZM105.505 32.7302L106.124 31.3482L101.08 26.7854C100.307 26.8524 99.5656 27.1177 98.9319 27.5543C98.2983 27.9909 97.7949 28.5831 97.473 29.2706C97.151 29.9581 97.0222 30.7164 97.0994 31.4682C97.1767 32.22 97.4574 32.9384 97.9128 33.5503C98.3683 34.1621 98.9823 34.6456 99.6922 34.9514C100.402 35.2571 101.183 35.3743 101.954 35.291C102.726 35.2076 103.461 34.9267 104.085 34.4769C104.709 34.0271 105.199 33.4244 105.505 32.7302ZM103.104 22.5325C103.622 22.2447 104.041 21.8139 104.308 21.2945C104.574 20.7752 104.676 20.1905 104.601 19.6146C104.526 19.0387 104.278 18.4974 103.886 18.0591C103.495 17.6207 102.979 17.3052 102.404 17.1522C101.828 16.9992 101.219 17.0158 100.653 17.1998C100.088 17.3837 99.5906 17.7268 99.2252 18.1857C98.8598 18.6446 98.6425 19.1986 98.6006 19.7777C98.5588 20.3567 98.6944 20.9349 98.9902 21.439C99.1434 21.7025 99.3358 21.9426 99.5612 22.1514L101.183 23.6189L103.104 22.5325Z" fill="#969696"/>
</g>
<defs>
<clipPath id="clip0_827_185">
<rect width="158" height="40" fill="white"/>
</clipPath>
</defs>
</svg>
