<svg width="70" height="63" viewBox="0 0 70 63" fill="none" xmlns="http://www.w3.org/2000/svg">
<g clip-path="url(#clip0_2_106)">
<path d="M65.1079 34.2221C64.7634 34.6481 64.3807 35.0663 63.9826 35.469C60.1311 39.3642 54.9077 41.5522 49.4616 41.5514C44.0155 41.5507 38.7927 39.3614 34.9422 35.4651C31.0917 31.5688 28.929 26.2847 28.9297 20.7753C28.9304 15.2658 31.0946 9.98232 34.9461 6.08706C35.3365 5.68435 35.7499 5.31262 36.1709 4.94864C40.1021 1.57964 45.1417 -0.171029 50.2894 0.0440782C55.4372 0.259185 60.3169 2.42435 63.9601 6.10985C67.6032 9.79535 69.7435 14.7318 69.9561 19.9394C70.1687 25.1471 68.4382 30.2453 65.1079 34.2221Z" fill="url(#paint0_linear_2_106)"/>
<path d="M63.9831 35.469L38.047 61.7068C37.2222 62.5367 36.1062 63.0026 34.9428 63.0026C33.7794 63.0026 32.6634 62.5367 31.8386 61.7068L6.24693 35.8175C-1.62271 27.8564 -2.17389 14.9079 5.37423 6.6292C7.25378 4.58453 9.52142 2.94405 12.0417 1.80577C14.562 0.667487 17.2832 0.054745 20.0428 0.00414489C22.8023 -0.0464552 25.5437 0.466128 28.1031 1.51127C30.6625 2.55641 32.9874 4.11267 34.939 6.0871L63.9831 35.469Z" fill="white"/>
</g>
<defs>
<linearGradient id="paint0_linear_2_106" x1="18.4996" y1="46.5" x2="66.2169" y2="4.87305" gradientUnits="userSpaceOnUse">
<stop stop-color="#002D72"/>
<stop offset="1" stop-color="#2665C7"/>
</linearGradient>
<clipPath id="clip0_2_106">
<rect width="70" height="63" fill="white"/>
</clipPath>
</defs>
</svg>
