<svg width="82" height="62" viewBox="0 0 82 62" fill="none" xmlns="http://www.w3.org/2000/svg">
<g clip-path="url(#clip0_2_136)">
<g filter="url(#filter0_d_2_136)">
<path d="M16.2638 42.6975C16.075 42.7001 15.8884 42.656 15.7207 42.5689C5.09611 37.2394 7.42119 26.225 7.4456 26.1148C7.48086 25.9575 7.54663 25.8087 7.63916 25.677C7.73169 25.5452 7.84918 25.4331 7.9849 25.3469C8.12061 25.2607 8.27191 25.2022 8.43016 25.1747C8.5884 25.1472 8.75048 25.1513 8.90715 25.1867C9.06382 25.2221 9.21202 25.2881 9.34328 25.381C9.47453 25.4739 9.58627 25.5918 9.67212 25.7281C9.75797 25.8643 9.81626 26.0162 9.84363 26.175C9.87101 26.3339 9.86695 26.4966 9.83169 26.6538C9.74625 27.0336 7.9277 35.9223 16.8069 40.3819C17.0497 40.5068 17.2439 40.7096 17.3584 40.9582C17.4728 41.2068 17.5011 41.4866 17.4386 41.7532C17.376 42.0197 17.2264 42.2576 17.0134 42.4287C16.8005 42.5999 16.5366 42.6945 16.2638 42.6975Z" fill="white"/>
<path d="M39.7335 14.1753C39.4561 14.1751 39.1871 14.08 38.9707 13.9058L36.0659 11.5473L35.9621 11.4799L35.9072 11.4431L35.8584 11.4125L35.7363 11.3451C35.6448 11.3023 35.535 11.2594 35.4129 11.2165C32.325 10.169 23.9584 9.8443 23.0125 9.80755C22.6888 9.79618 22.3829 9.65619 22.162 9.41838C21.9411 9.18057 21.8234 8.86442 21.8347 8.53949C21.8461 8.21455 21.9855 7.90744 22.2224 7.68572C22.4593 7.464 22.7743 7.34582 23.098 7.3572C24.7029 7.41233 32.862 7.74925 36.1696 8.88253C36.3937 8.95332 36.612 9.04138 36.8226 9.14594C36.9446 9.20368 37.0628 9.26916 37.1766 9.34197L37.2437 9.39099L37.2925 9.42161L37.5427 9.59927L40.4719 11.9516C40.7252 12.1539 40.8881 12.4489 40.9247 12.7717C40.9613 13.0945 40.8687 13.4187 40.6672 13.673C40.5592 13.8217 40.4191 13.9442 40.2575 14.0311C40.0958 14.1181 39.9167 14.1674 39.7335 14.1753Z" fill="white"/>
<path d="M43.7309 59.6967C42.7029 59.698 41.6949 59.4116 40.82 58.8697C40.6762 58.789 40.5502 58.6799 40.4496 58.549C40.349 58.4181 40.2758 58.2681 40.2344 58.108C40.193 57.9479 40.1844 57.7811 40.209 57.6176C40.2336 57.4541 40.2909 57.2973 40.3774 57.1566C40.464 57.0159 40.578 56.8943 40.7127 56.799C40.8473 56.7037 40.9998 56.6368 41.1609 56.6023C41.322 56.5677 41.4883 56.5662 41.65 56.598C41.8117 56.6297 41.9653 56.694 42.1016 56.7869C42.6851 57.1474 43.3707 57.305 44.0524 57.2352C44.734 57.1655 45.3739 56.8723 45.8729 56.4009L46.4405 55.8619C46.9134 55.4099 47.2327 54.82 47.3531 54.1757C47.4736 53.5315 47.3892 52.8655 47.1118 52.2721C46.9872 52.0079 46.9609 51.7078 47.0375 51.4258C47.1141 51.1438 47.2886 50.8986 47.5294 50.7344C47.7703 50.5703 48.0617 50.4979 48.3511 50.5305C48.6404 50.5631 48.9086 50.6985 49.1073 50.9122L50.1386 52.0087C50.7057 52.6088 51.4866 52.9587 52.3103 52.9817C53.134 53.0046 53.9331 52.6988 54.5324 52.1312L55.1 51.5921C55.6436 51.0717 55.9817 50.3719 56.0524 49.6212C56.123 48.8706 55.9213 48.1195 55.4844 47.5062C55.3022 47.2538 55.2226 46.9412 55.2619 46.6319C55.3012 46.3227 55.4565 46.0401 55.6961 45.8418C55.9356 45.6435 56.2415 45.5443 56.5514 45.5644C56.8613 45.5845 57.1519 45.7225 57.364 45.9502L57.9011 46.5199C58.1797 46.8201 58.5156 47.0609 58.8888 47.2282C59.262 47.3956 59.6649 47.4859 60.0736 47.4939C60.896 47.5098 61.6924 47.2045 62.2949 46.6424L62.8624 46.1033C63.4603 45.5341 63.8088 44.7502 63.8317 43.9233C63.8546 43.0965 63.5499 42.2944 62.9845 41.6927C62.8664 41.5777 62.7727 41.4399 62.7091 41.2876C62.6454 41.1353 62.6131 40.9716 62.614 40.8064C62.615 40.6413 62.6492 40.478 62.7146 40.3265C62.7801 40.1749 62.8753 40.0382 62.9947 39.9245C63.1141 39.8109 63.2552 39.7226 63.4094 39.6651C63.5636 39.6076 63.7279 39.5819 63.8922 39.5897C64.0566 39.5976 64.2177 39.6386 64.3658 39.7105C64.5139 39.7824 64.6461 39.8836 64.7542 40.0081C65.7646 41.0822 66.3095 42.5146 66.2694 43.9914C66.2294 45.4681 65.6077 46.8686 64.5406 47.886L63.9731 48.4251C63.4449 48.9288 62.8222 49.3219 62.1412 49.5817C61.4602 49.8414 60.7345 49.9626 60.0064 49.9381C59.4926 49.9269 58.9831 49.8423 58.493 49.687C58.4078 51.0865 57.7946 52.4008 56.7782 53.3625L56.2107 53.9016C55.3579 54.7121 54.271 55.23 53.1064 55.3808C51.9417 55.5317 50.7594 55.3076 49.7297 54.7408C49.4989 55.847 48.9367 56.8558 48.1187 57.6322L47.5511 58.1713C46.5187 59.1511 45.1517 59.6969 43.7309 59.6967Z" fill="white"/>
<path d="M64.3083 42.1275C63.989 42.1278 63.6823 42.0025 63.454 41.7784L42.7053 21.465L33.4843 28.4914C32.6715 29.11 31.6789 29.4436 30.6588 29.4409C29.9377 29.4419 29.226 29.2767 28.5785 28.9581C27.931 28.6395 27.365 28.1759 26.9241 27.6031C26.1775 26.6088 25.8528 25.3585 26.0209 24.1249C26.1889 22.8913 26.8361 21.7744 27.8212 21.0178L44.3713 8.41686C44.4452 8.35712 44.5227 8.30187 44.6032 8.25145L44.7252 8.17181L44.7863 8.12895C44.89 8.06769 45.0121 8.00029 45.1402 7.93903C45.3488 7.83649 45.5651 7.75048 45.7871 7.68175C49.351 6.45658 59.0235 6.3218 59.4324 6.31567C59.6189 6.31841 59.8026 6.36142 59.9711 6.44175C60.1396 6.52208 60.2889 6.63787 60.4088 6.78125L74.2311 24.4115C74.3786 24.6001 74.4677 24.828 74.4874 25.067C74.4874 25.1834 75.3417 36.749 64.8331 42.0173C64.6693 42.0949 64.4895 42.1327 64.3083 42.1275ZM42.7968 18.6226C43.1161 18.6223 43.4229 18.7476 43.6512 18.9717L64.5219 39.3954C71.9243 35.1869 72.144 27.3703 72.0952 25.5938L58.816 8.75991C55.7648 8.8273 48.997 9.13972 46.5011 9.98509C46.3815 10.0223 46.2651 10.0694 46.1532 10.126L46.0129 10.1934L45.9641 10.2301L45.7932 10.3404L29.2553 22.9413C28.8821 23.2265 28.6075 23.6222 28.4703 24.0724C28.3331 24.5226 28.3401 25.0047 28.4905 25.4507C28.6408 25.8967 28.9269 26.284 29.3083 26.5581C29.6896 26.8322 30.1471 26.9791 30.6161 26.9783C31.1029 26.9792 31.5767 26.8199 31.9648 26.525L42.0462 18.8982C42.2536 18.7282 42.5109 18.6313 42.7785 18.6226H42.7968Z" fill="white"/>
<path d="M19.9312 47.7267C18.9565 47.7275 18.0035 47.4381 17.1928 46.8949C16.3821 46.3518 15.7502 45.5794 15.3771 44.6755C15.004 43.7716 14.9064 42.777 15.0968 41.8174C15.2872 40.8579 15.757 39.9766 16.4466 39.2852L19.6077 36.1059C20.5383 35.2056 21.7837 34.708 23.0761 34.7202C24.3684 34.7324 25.6043 35.2535 26.5178 36.1712C27.4313 37.089 27.9493 38.3301 27.9603 39.6274C27.9714 40.9247 27.4746 42.1745 26.5769 43.1078L23.4218 46.281C22.9648 46.7425 22.4207 47.1081 21.8214 47.3563C21.2221 47.6045 20.5795 47.7304 19.9312 47.7267ZM23.0923 37.1166C22.7663 37.1148 22.4432 37.1778 22.1416 37.3018C21.84 37.4259 21.5658 37.6086 21.3348 37.8395L18.1736 41.0127C17.7082 41.4822 17.4469 42.1176 17.4469 42.78C17.4469 43.4424 17.7082 44.0778 18.1736 44.5473C18.6403 45.0142 19.2723 45.2763 19.9312 45.2763C20.59 45.2763 21.222 45.0142 21.6887 44.5473L24.8498 41.3741C25.1977 41.0254 25.4347 40.581 25.5307 40.097C25.6268 39.613 25.5776 39.1113 25.3894 38.6554C25.2012 38.1995 24.8824 37.8099 24.4735 37.536C24.0646 37.2621 23.5839 37.1161 23.0923 37.1166Z" fill="white"/>
<path d="M36.6214 61.9999C35.9742 62.0029 35.3327 61.8766 34.7345 61.6284C34.1363 61.3802 33.5932 61.0151 33.1369 60.5542C32.6913 60.1486 32.3397 59.6499 32.1067 59.0932C31.8737 58.5365 31.765 57.9354 31.7882 57.332C31.8894 56.1637 32.415 55.0735 33.265 54.2691L35.7061 51.2061L35.7976 51.1081C36.2152 50.6736 36.7144 50.3265 37.2664 50.0867C37.8184 49.847 38.4122 49.7194 39.0136 49.7114C39.6504 49.7231 40.2786 49.8613 40.862 50.1178C41.4454 50.3743 41.9724 50.7442 42.4128 51.2061C43.3362 52.1342 43.8549 53.3923 43.8549 54.704C43.8549 56.0157 43.3362 57.2738 42.4128 58.2019L40.106 60.5542C39.6497 61.0151 39.1066 61.3802 38.5084 61.6284C37.9102 61.8766 37.2687 62.0029 36.6214 61.9999ZM37.5551 52.8111L35.1141 55.8741L35.0226 55.9782C34.5835 56.3696 34.2996 56.9068 34.2231 57.4913C34.23 57.7484 34.2906 58.0013 34.401 58.2334C34.5114 58.4656 34.6691 58.6719 34.8639 58.839C35.3306 59.3058 35.9626 59.568 36.6214 59.568C37.2803 59.568 37.9123 59.3058 38.379 58.839L40.6735 56.5357C41.139 56.0661 41.4003 55.4307 41.4003 54.7683C41.4003 54.106 41.139 53.4705 40.6735 53.001C40.4859 52.7747 40.2535 52.5898 39.9912 52.4581C39.7288 52.3264 39.4421 52.2506 39.1491 52.2357C38.8561 52.2207 38.5632 52.2668 38.2889 52.3711C38.0145 52.4754 37.7647 52.6357 37.5551 52.8417V52.8111Z" fill="white"/>
<path d="M24.2576 53.8158C23.2824 53.8179 22.3285 53.5294 21.5169 52.9867C20.7053 52.444 20.0724 51.6716 19.6986 50.7675C19.3247 49.8634 19.2266 48.8682 19.4168 47.9081C19.607 46.948 20.0769 46.0661 20.7669 45.3744L25.649 40.4737C26.5743 39.5482 27.8273 39.0286 29.1335 39.0286C30.4398 39.0286 31.6928 39.5482 32.6181 40.4737C33.5401 41.4026 34.0577 42.6603 34.0577 43.9716C34.0577 45.2828 33.5401 46.5406 32.6181 47.4694L27.7361 52.3701C27.2804 52.8302 26.7384 53.1949 26.1412 53.4431C25.5441 53.6913 24.9039 53.818 24.2576 53.8158ZM29.1396 41.4661C28.8134 41.4626 28.4898 41.5247 28.188 41.6489C27.8861 41.773 27.6121 41.9567 27.3821 42.1889L22.5001 47.0896C22.0346 47.5592 21.7733 48.1946 21.7733 48.857C21.7733 49.5193 22.0346 50.1547 22.5001 50.6242C22.9678 51.0915 23.6008 51.3538 24.2607 51.3538C24.9205 51.3538 25.5535 51.0915 26.0212 50.6242L30.9033 45.7235C31.2515 45.3745 31.4886 44.9295 31.5845 44.4449C31.6803 43.9604 31.6306 43.4582 31.4417 43.002C31.2527 42.5459 30.933 42.1563 30.5232 41.8829C30.1133 41.6094 29.6318 41.4644 29.1396 41.4661Z" fill="white"/>
<path d="M29.3231 59.1453C28.3518 59.1385 27.4041 58.8438 26.599 58.2983C25.794 57.7528 25.1673 56.9808 24.7977 56.0792C24.4281 55.1775 24.332 54.1863 24.5215 53.23C24.711 52.2737 25.1777 51.3949 25.8629 50.7038L30.745 45.8031C31.203 45.3434 31.7467 44.9787 32.3451 44.7299C32.9435 44.4811 33.5849 44.353 34.2326 44.353C34.8803 44.353 35.5217 44.4811 36.1201 44.7299C36.7185 44.9787 37.2622 45.3434 37.7202 45.8031C38.1782 46.2629 38.5415 46.8087 38.7894 47.4094C39.0372 48.0101 39.1648 48.6539 39.1648 49.3041C39.1648 49.9543 39.0372 50.5981 38.7894 51.1988C38.5415 51.7995 38.1782 52.3453 37.7202 52.805L32.8381 57.7057C32.3777 58.1691 31.8294 58.5353 31.2257 58.7825C30.622 59.0298 29.9751 59.1531 29.3231 59.1453ZM34.2051 46.7955C33.545 46.7923 32.9107 47.0523 32.4415 47.5184L27.5594 52.4191C27.1249 52.894 26.89 53.5192 26.9039 54.1639C26.9178 54.8087 27.1795 55.423 27.6341 55.8786C28.0888 56.3342 28.7013 56.5958 29.3436 56.6087C29.9858 56.6215 30.6082 56.3846 31.0806 55.9476L35.9627 51.0469C36.3212 50.7 36.5676 50.2528 36.6698 49.7636C36.7721 49.2743 36.7254 48.7655 36.5359 48.3031C36.3464 47.8408 36.0229 47.4464 35.6072 47.171C35.1916 46.8956 34.7031 46.752 34.2051 46.7588V46.7955Z" fill="white"/>
<path d="M74.1708 26.862C73.8645 26.8622 73.5622 26.7928 73.2864 26.6591C73.0105 26.5255 72.7684 26.331 72.578 26.0901L58.1455 7.98819C57.8085 7.56199 57.6534 7.01921 57.714 6.47854C57.7746 5.93786 58.0461 5.44328 58.4689 5.10291L64.2541 0.453367C64.4634 0.284005 64.7039 0.157833 64.9618 0.0821469C65.2198 0.00646087 65.4902 -0.0172469 65.7573 0.0123596C66.0245 0.0419661 66.2831 0.124306 66.5184 0.254661C66.7538 0.385017 66.9611 0.560808 67.1284 0.771906L81.5549 18.8494C81.7241 19.0599 81.8501 19.302 81.9255 19.5617C82.0009 19.8215 82.0243 20.0936 81.9943 20.3625C81.9655 20.6303 81.8838 20.8896 81.7539 21.1252C81.6239 21.3609 81.4484 21.5681 81.2375 21.7347L75.4523 26.3903C75.0904 26.6881 74.6387 26.8544 74.1708 26.862ZM60.2997 6.76915L74.2318 24.2279L79.4068 20.0746L65.4746 2.60967L60.2997 6.76915Z" fill="white"/>
<path d="M7.83573 28.0504C7.37247 28.0503 6.9229 27.8926 6.56029 27.6032L0.768973 22.9475C0.558679 22.7795 0.383557 22.5714 0.253698 22.3352C0.123839 22.099 0.0418027 21.8393 0.012309 21.5712C-0.0171848 21.303 0.00645137 21.0316 0.0818492 20.7727C0.157247 20.5137 0.28292 20.2723 0.451638 20.0623L14.8781 1.97868C15.0694 1.73783 15.3127 1.54374 15.5897 1.41109C15.8667 1.27844 16.1701 1.21069 16.4769 1.21294C16.9402 1.2131 17.3898 1.37071 17.7524 1.66012L23.5437 6.31579C23.9651 6.65799 24.2348 7.15333 24.2943 7.69411C24.3257 7.96161 24.3036 8.23271 24.2292 8.4915C24.1548 8.75028 24.0296 8.99155 23.861 9.20109L9.4346 27.2847C9.24266 27.5248 8.9992 27.7184 8.72237 27.851C8.44553 27.9836 8.14246 28.0518 7.83573 28.0504ZM2.60584 21.2813L7.7747 25.4408L21.7068 7.98203L16.538 3.82257L2.60584 21.2813Z" fill="white"/>
<path d="M57.6996 49.1784C57.3883 49.1772 57.0892 49.0567 56.8635 48.8414L49.0523 41.374C48.8176 41.1498 48.6812 40.8412 48.6732 40.5161C48.6652 40.191 48.7862 39.876 49.0095 39.6404C49.2329 39.4048 49.5403 39.2679 49.8642 39.2599C50.1881 39.2519 50.5019 39.3733 50.7366 39.5975L58.5417 47.0772C58.6585 47.1877 58.7523 47.3203 58.818 47.4673C58.8836 47.6143 58.9198 47.7728 58.9243 47.9339C58.9288 48.0949 58.9017 48.2552 58.8444 48.4057C58.7872 48.5562 58.7009 48.6939 58.5906 48.8108C58.4747 48.9296 58.3359 49.0234 58.1827 49.0866C58.0295 49.1498 57.8652 49.181 57.6996 49.1784Z" fill="white"/>
<path d="M50.2732 54.9735C49.9598 54.9739 49.6583 54.8533 49.431 54.6366L41.6076 47.1691C41.4836 47.0605 41.3828 46.9279 41.3111 46.7792C41.2395 46.6305 41.1986 46.4688 41.1908 46.3038C41.183 46.1388 41.2086 45.974 41.2659 45.8191C41.3232 45.6643 41.4111 45.5227 41.5243 45.4029C41.6376 45.283 41.7737 45.1874 41.9247 45.1217C42.0757 45.0561 42.2383 45.0217 42.4029 45.0208C42.5674 45.0198 42.7304 45.0523 42.8822 45.1162C43.0339 45.1801 43.1712 45.2741 43.2858 45.3926L51.1276 52.8539C51.2439 52.9649 51.3373 53.0977 51.4024 53.2449C51.4675 53.3922 51.5031 53.5508 51.507 53.7119C51.511 53.8729 51.4833 54.0331 51.4255 54.1833C51.3677 54.3336 51.281 54.471 51.1703 54.5876C51.0552 54.7104 50.9162 54.808 50.7618 54.8744C50.6075 54.9409 50.4411 54.9746 50.2732 54.9735Z" fill="white"/>
</g>
</g>
<defs>
<filter id="filter0_d_2_136" x="-4" y="0" width="90.0068" height="70" filterUnits="userSpaceOnUse" color-interpolation-filters="sRGB">
<feFlood flood-opacity="0" result="BackgroundImageFix"/>
<feColorMatrix in="SourceAlpha" type="matrix" values="0 0 0 0 0 0 0 0 0 0 0 0 0 0 0 0 0 0 127 0" result="hardAlpha"/>
<feOffset dy="4"/>
<feGaussianBlur stdDeviation="2"/>
<feColorMatrix type="matrix" values="0 0 0 0 0 0 0 0 0 0 0 0 0 0 0 0 0 0 0.25 0"/>
<feBlend mode="normal" in2="BackgroundImageFix" result="effect1_dropShadow_2_136"/>
<feBlend mode="normal" in="SourceGraphic" in2="effect1_dropShadow_2_136" result="shape"/>
</filter>
<clipPath id="clip0_2_136">
<rect width="82" height="62" fill="white"/>
</clipPath>
</defs>
</svg>
