<svg width="70" height="63" viewBox="0 0 70 63" fill="none" xmlns="http://www.w3.org/2000/svg">
<g clip-path="url(#clip0_137_310)">
<path d="M33.8721 7.14156L33.8722 7.14161L61.874 35.469L36.9831 60.6494C36.9827 60.6497 36.9824 60.6501 36.982 60.6504C36.437 61.1983 35.7036 61.5026 34.9428 61.5026C34.182 61.5026 33.4485 61.1983 32.9036 60.6504C32.9032 60.6501 32.9029 60.6497 32.9025 60.6494L7.3137 34.763C-0.0206696 27.3433 -0.502484 15.3035 6.48065 7.64204C8.22349 5.7467 10.325 4.22703 12.6591 3.17281C14.9942 2.11818 17.5147 1.55075 20.0703 1.50389C22.6258 1.45703 25.1649 1.93169 27.536 2.89995C29.9072 3.86822 32.0623 5.31051 33.8721 7.14156Z" stroke="white" stroke-width="3"/>
<mask id="path-2-inside-1_137_310" fill="white">
<path fill-rule="evenodd" clip-rule="evenodd" d="M62.808 32.2961L62.7916 32.3157L62.7755 32.3356C62.5081 32.6662 62.1956 33.0095 61.8492 33.36C61.6455 33.566 61.4373 33.7664 61.2249 33.9611L63.3479 36.0841C63.5634 35.8841 63.775 35.679 63.9827 35.469C64.3808 35.0663 64.7636 34.6481 65.1081 34.2221C68.4383 30.2453 70.1689 25.1471 69.9562 19.9394C69.7436 14.7318 67.6033 9.79535 63.9602 6.10985C60.317 2.42435 55.4374 0.259185 50.2896 0.0440782C45.1418 -0.171029 40.1022 1.57964 36.171 4.94864C35.75 5.31262 35.3366 5.68435 34.9462 6.08706C34.681 6.35525 34.4238 6.63002 34.1748 6.911L36.3006 9.03683C36.5505 8.74905 36.8102 8.46871 37.0795 8.19636L37.0898 8.18587L37.1001 8.17527C37.3988 7.86715 37.734 7.56324 38.128 7.22249C41.4851 4.34754 45.7813 2.85831 50.1643 3.04146C54.5496 3.22471 58.7131 5.06918 61.8266 8.21887C64.9411 11.3695 66.7764 15.5961 66.9587 20.0618C67.1411 24.5276 65.6565 28.8945 62.808 32.2961Z"/>
</mask>
<path fill-rule="evenodd" clip-rule="evenodd" d="M62.808 32.2961L62.7916 32.3157L62.7755 32.3356C62.5081 32.6662 62.1956 33.0095 61.8492 33.36C61.6455 33.566 61.4373 33.7664 61.2249 33.9611L63.3479 36.0841C63.5634 35.8841 63.775 35.679 63.9827 35.469C64.3808 35.0663 64.7636 34.6481 65.1081 34.2221C68.4383 30.2453 70.1689 25.1471 69.9562 19.9394C69.7436 14.7318 67.6033 9.79535 63.9602 6.10985C60.317 2.42435 55.4374 0.259185 50.2896 0.0440782C45.1418 -0.171029 40.1022 1.57964 36.171 4.94864C35.75 5.31262 35.3366 5.68435 34.9462 6.08706C34.681 6.35525 34.4238 6.63002 34.1748 6.911L36.3006 9.03683C36.5505 8.74905 36.8102 8.46871 37.0795 8.19636L37.0898 8.18587L37.1001 8.17527C37.3988 7.86715 37.734 7.56324 38.128 7.22249C41.4851 4.34754 45.7813 2.85831 50.1643 3.04146C54.5496 3.22471 58.7131 5.06918 61.8266 8.21887C64.9411 11.3695 66.7764 15.5961 66.9587 20.0618C67.1411 24.5276 65.6565 28.8945 62.808 32.2961Z" fill="white"/>
<path d="M62.7916 32.3157L60.4914 30.3897L60.4751 30.4092L60.4592 30.4289L62.7916 32.3157ZM62.808 32.2961L60.5079 30.37L60.5078 30.3701L62.808 32.2961ZM62.7755 32.3356L60.4431 30.4488L60.4429 30.4491L62.7755 32.3356ZM61.8492 33.36L63.9824 35.4693L63.9827 35.469L61.8492 33.36ZM61.2249 33.9611L59.1978 31.7496L56.888 33.8668L59.1036 36.0824L61.2249 33.9611ZM63.3479 36.0841L61.2266 38.2054L63.2705 40.2494L65.389 38.2828L63.3479 36.0841ZM63.9827 35.469L66.116 37.5783L66.1163 37.578L63.9827 35.469ZM65.1081 34.2221L62.808 32.2961L62.7916 32.3157L62.7755 32.3356L65.1081 34.2221ZM63.9602 6.10985L61.8266 8.21887L61.8266 8.21887L63.9602 6.10985ZM50.2896 0.0440782L50.4148 -2.95331L50.2896 0.0440782ZM36.171 4.94864L34.2188 2.67068L34.2091 2.67912L36.171 4.94864ZM34.9462 6.08706L37.0795 8.19636L37.0898 8.18587L37.1001 8.17527L34.9462 6.08706ZM34.1748 6.911L31.9297 4.92116L30.0562 7.03502L32.0535 9.03232L34.1748 6.911ZM36.3006 9.03683L34.1793 11.1582L36.4556 13.4344L38.566 11.0036L36.3006 9.03683ZM37.0795 8.19636L39.2127 10.3057L39.2128 10.3056L37.0795 8.19636ZM37.0898 8.18587L39.2231 10.2951L39.2335 10.2847L39.2437 10.2742L37.0898 8.18587ZM37.1001 8.17527L39.2539 10.2636L39.254 10.2635L37.1001 8.17527ZM38.128 7.22249L36.1766 4.94385L36.1711 4.94856L36.1656 4.9533L38.128 7.22249ZM50.1643 3.04146L50.0391 6.03885L50.1643 3.04146ZM61.8266 8.21887L59.6931 10.3279L59.6931 10.3279L61.8266 8.21887ZM66.9587 20.0618L69.9562 19.9394L69.9562 19.9394L66.9587 20.0618ZM65.0917 34.2417L65.1081 34.222L60.5078 30.3701L60.4914 30.3897L65.0917 34.2417ZM65.1079 34.2224L65.124 34.2025L60.4592 30.4289L60.4431 30.4488L65.1079 34.2224ZM63.9827 35.469C64.3808 35.0663 64.7635 34.6481 65.1081 34.2221L60.4429 30.4491C60.2526 30.6843 60.0104 30.9527 59.7156 31.2509L63.9827 35.469ZM63.252 36.1726C63.5006 35.9447 63.7441 35.7103 63.9824 35.4693L59.7159 31.2506C59.5468 31.4217 59.374 31.588 59.1978 31.7496L63.252 36.1726ZM59.1036 36.0824L61.2266 38.2054L65.4692 33.9628L63.3462 31.8398L59.1036 36.0824ZM61.8495 33.3597C61.6719 33.5393 61.491 33.7146 61.3068 33.8855L65.389 38.2828C65.6358 38.0536 65.8782 37.8188 66.116 37.5783L61.8495 33.3597ZM62.7755 32.3356C62.5081 32.6662 62.1956 33.0095 61.8492 33.36L66.1163 37.578C66.566 37.123 67.019 36.63 67.4406 36.1087L62.7755 32.3356ZM66.9587 20.0618C67.1411 24.5276 65.6565 28.8945 62.808 32.2961L67.4081 36.1482C71.2201 31.596 73.1967 25.7665 72.9537 19.817L66.9587 20.0618ZM61.8266 8.21887C64.9411 11.3695 66.7764 15.5961 66.9587 20.0618L72.9537 19.817C72.7108 13.8674 70.2656 8.22119 66.0937 4.00083L61.8266 8.21887ZM50.1643 3.04146C54.5496 3.22471 58.7131 5.06918 61.8266 8.21887L66.0937 4.00083C61.9209 -0.220481 56.3252 -2.70634 50.4148 -2.95331L50.1643 3.04146ZM38.1232 7.22658C41.481 4.34896 45.7792 2.85822 50.1643 3.04146L50.4148 -2.95331C44.5044 -3.20028 38.7234 -1.18968 34.2189 2.6707L38.1232 7.22658ZM37.1001 8.17527C37.4001 7.86584 37.7368 7.56067 38.133 7.21816L34.2091 2.67912C33.7632 3.06458 33.2731 3.50286 32.7923 3.99884L37.1001 8.17527ZM36.4199 8.90083C36.6329 8.66059 36.8527 8.42566 37.0795 8.19636L32.8129 3.97775C32.5093 4.28484 32.2148 4.59946 31.9297 4.92116L36.4199 8.90083ZM32.0535 9.03232L34.1793 11.1582L38.422 6.91551L36.2961 4.78968L32.0535 9.03232ZM34.9462 6.08706C34.6312 6.40563 34.3275 6.73352 34.0353 7.07008L38.566 11.0036C38.7735 10.7646 38.9891 10.5318 39.2127 10.3057L34.9462 6.08706ZM34.9565 6.0766L34.9462 6.08709L39.2128 10.3056L39.2231 10.2951L34.9565 6.0766ZM34.9463 6.08697L34.936 6.09756L39.2437 10.2742L39.2539 10.2636L34.9463 6.08697ZM36.1656 4.9533C35.7469 5.31546 35.3352 5.68582 34.9462 6.08706L39.254 10.2635C39.4625 10.0485 39.7211 9.81101 40.0903 9.49167L36.1656 4.9533ZM50.2896 0.0440781C45.1443 -0.170925 40.107 1.57796 36.1766 4.94385L40.0794 9.50112C42.8632 7.11713 46.4183 5.88755 50.0391 6.03885L50.2896 0.0440781ZM63.9602 6.10985C60.317 2.42432 55.4373 0.259183 50.2896 0.0440781L50.0391 6.03885C53.6618 6.19023 57.1093 7.71404 59.6931 10.3279L63.9602 6.10985ZM69.9562 19.9394C69.7436 14.7317 67.6033 9.79532 63.9602 6.10985L59.6931 10.3279C62.2788 12.9437 63.8092 16.4605 63.9612 20.1842L69.9562 19.9394ZM65.108 34.2221C68.4383 30.2453 70.1689 25.1471 69.9562 19.9394L63.9612 20.1842C64.1133 23.9081 62.8747 27.5437 60.5079 30.37L65.108 34.2221Z" fill="white" mask="url(#path-2-inside-1_137_310)"/>
</g>
<defs>
<clipPath id="clip0_137_310">
<rect width="70" height="63" fill="white"/>
</clipPath>
</defs>
</svg>
