<svg width="70" height="60" viewBox="0 0 70 60" fill="none" xmlns="http://www.w3.org/2000/svg">
<path d="M1.67578 22.0492L11.7323 1.64551L21.7889 22.0492" stroke="white" stroke-width="3" stroke-linecap="round" stroke-linejoin="round"/>
<path d="M1.71541 22.365C1.6733 22.7321 1.65127 23.1013 1.64941 23.4708C1.64941 26.1381 2.71172 28.6961 4.60264 30.5822C6.49356 32.4682 9.0582 33.5278 11.7324 33.5278C14.4065 33.5278 16.9712 32.4682 18.8621 30.5822C20.753 28.6961 21.8153 26.1381 21.8153 23.4708C21.8135 23.1013 21.7914 22.7321 21.7493 22.365H1.71541Z" stroke="white" stroke-width="3" stroke-linecap="round" stroke-linejoin="round"/>
<path d="M48.1973 22.0492L58.267 1.64551L68.3236 22.0492" stroke="white" stroke-width="3" stroke-linecap="round" stroke-linejoin="round"/>
<path d="M48.2505 22.365C48.2084 22.7321 48.1864 23.1013 48.1846 23.4708C48.1846 26.1381 49.2469 28.6961 51.1378 30.5822C53.0287 32.4682 55.5933 33.5278 58.2675 33.5278C60.9417 33.5278 63.5063 32.4682 65.3973 30.5822C67.2882 28.6961 68.3505 26.1381 68.3505 23.4708C68.3486 23.1013 68.3266 22.7321 68.2845 22.365H48.2505Z" stroke="white" stroke-width="3" stroke-linecap="round" stroke-linejoin="round"/>
<path d="M12.9209 1.64551H57.3572" stroke="white" stroke-width="3" stroke-linecap="round" stroke-linejoin="round"/>
<path d="M35 3.21191V50.6801" stroke="white" stroke-width="3" stroke-linecap="round" stroke-linejoin="round"/>
<path d="M48.9896 54.8662C48.9896 55.7914 48.6212 56.6787 47.9653 57.3329C47.3094 57.9871 46.4198 58.3547 45.4923 58.3547H24.5081C23.5806 58.3547 22.691 57.9871 22.0351 57.3329C21.3792 56.6787 21.0108 55.7914 21.0108 54.8662V54.8662C21.009 54.407 21.0982 53.9521 21.2732 53.5273C21.4482 53.1026 21.7055 52.7164 22.0305 52.3911C22.3554 52.0657 22.7415 51.8076 23.1667 51.6315C23.5919 51.4554 24.0477 51.3647 24.5081 51.3647H45.4923C45.9527 51.3647 46.4085 51.4554 46.8337 51.6315C47.2589 51.8076 47.645 52.0657 47.97 52.3911C48.2949 52.7164 48.5523 53.1026 48.7272 53.5273C48.9022 53.9521 48.9914 54.407 48.9896 54.8662V54.8662Z" stroke="white" stroke-width="3" stroke-linecap="round" stroke-linejoin="round"/>
</svg>
