<svg width="31" height="22" viewBox="0 0 31 22" fill="none" xmlns="http://www.w3.org/2000/svg">
<path d="M30.389 3.80451C30.2182 3.17061 29.8843 2.59252 29.4206 2.12776C28.9569 1.66301 28.3795 1.3278 27.746 1.15551C25.397 0.510511 15.9995 0.500011 15.9995 0.500011C15.9995 0.500011 6.60352 0.489511 4.25302 1.10601C3.61991 1.28623 3.04375 1.62618 2.57987 2.09321C2.11598 2.56025 1.77995 3.13869 1.60402 3.77301C0.984518 6.12201 0.978518 10.994 0.978518 10.994C0.978518 10.994 0.972518 15.89 1.58752 18.215C1.93252 19.5005 2.94502 20.516 4.23202 20.8625C6.60502 21.5075 15.977 21.518 15.977 21.518C15.977 21.518 25.3745 21.5285 27.7235 20.9135C28.3573 20.7415 28.9351 20.4071 29.4 19.9433C29.8649 19.4795 30.2006 18.9024 30.374 18.269C30.995 15.9215 30.9995 11.051 30.9995 11.051C30.9995 11.051 31.0295 6.15351 30.389 3.80451ZM12.9935 15.5075L13.001 6.50751L20.8115 11.015L12.9935 15.5075Z" fill="white"/>
</svg>
