<svg width="22" height="22" viewBox="0 0 22 22" fill="none" xmlns="http://www.w3.org/2000/svg">
<path d="M10.9996 7.35501C8.99262 7.35501 7.35472 8.9929 7.35472 10.9999C7.35472 13.007 8.99262 14.6449 10.9996 14.6449C13.0067 14.6449 14.6446 13.007 14.6446 10.9999C14.6446 8.9929 13.0067 7.35501 10.9996 7.35501ZM21.9317 10.9999C21.9317 9.49056 21.9454 7.99485 21.8606 6.48821C21.7758 4.73821 21.3766 3.18509 20.0969 1.9054C18.8145 0.622981 17.2641 0.226497 15.5141 0.141731C14.0047 0.0569656 12.509 0.0706375 11.0024 0.0706375C9.49301 0.0706375 7.9973 0.0569656 6.49066 0.141731C4.74066 0.226497 3.18753 0.625715 1.90785 1.9054C0.625423 3.18782 0.228938 4.73821 0.144173 6.48821C0.059407 7.99759 0.0730789 9.49329 0.0730789 10.9999C0.0730789 12.5066 0.059407 14.005 0.144173 15.5116C0.228938 17.2616 0.628158 18.8148 1.90785 20.0945C3.19027 21.3769 4.74066 21.7734 6.49066 21.8581C8.00004 21.9429 9.49574 21.9292 11.0024 21.9292C12.5118 21.9292 14.0075 21.9429 15.5141 21.8581C17.2641 21.7734 18.8172 21.3741 20.0969 20.0945C21.3793 18.812 21.7758 17.2616 21.8606 15.5116C21.9481 14.005 21.9317 12.5093 21.9317 10.9999V10.9999ZM10.9996 16.6081C7.89613 16.6081 5.39144 14.1034 5.39144 10.9999C5.39144 7.89642 7.89613 5.39173 10.9996 5.39173C14.1032 5.39173 16.6079 7.89642 16.6079 10.9999C16.6079 14.1034 14.1032 16.6081 10.9996 16.6081ZM16.8375 6.47181C16.1129 6.47181 15.5278 5.88665 15.5278 5.16204C15.5278 4.43743 16.1129 3.85228 16.8375 3.85228C17.5622 3.85228 18.1473 4.43743 18.1473 5.16204C18.1475 5.3341 18.1138 5.50452 18.048 5.66352C17.9823 5.82253 17.8858 5.967 17.7642 6.08867C17.6425 6.21033 17.498 6.3068 17.339 6.37255C17.18 6.43829 17.0096 6.47202 16.8375 6.47181V6.47181Z" fill="white"/>
</svg>
