<svg width="31" height="40" viewBox="0 0 31 40" fill="none" xmlns="http://www.w3.org/2000/svg">
<g clip-path="url(#clip0_565_7072)">
<path d="M26.2773 39.9709L30.963 35.2852V35.2754H26.2773V39.9709Z" fill="#777777"/>
<path d="M30.1768 0H0.785858C0.682658 0 0.580463 0.0203132 0.485119 0.0598061C0.389774 0.099299 0.303144 0.157198 0.230171 0.230171C0.157198 0.303144 0.0993139 0.389759 0.059821 0.485104C0.0203282 0.580448 0 0.682643 0 0.785843V39.1945C0 39.4029 0.0827946 39.6028 0.230171 39.7502C0.377547 39.8975 0.577436 39.9803 0.785858 39.9803H24.7053V35.2652C24.7053 34.8484 24.8709 34.4486 25.1656 34.1538C25.4604 33.8591 25.8602 33.6935 26.277 33.6935H30.9627V0.785843C30.9627 0.577421 30.8799 0.377547 30.7325 0.230171C30.5851 0.0827946 30.3852 0 30.1768 0ZM21.2033 30.889H4.68566C4.47724 30.889 4.27735 30.8062 4.12998 30.6588C3.9826 30.5115 3.8998 30.3116 3.8998 30.1031C3.8998 29.8947 3.9826 29.6948 4.12998 29.5475C4.27735 29.4001 4.47724 29.3173 4.68566 29.3173H21.2033C21.4118 29.3173 21.6116 29.4001 21.759 29.5475C21.9064 29.6948 21.9892 29.8947 21.9892 30.1031C21.9892 30.3116 21.9064 30.5115 21.759 30.6588C21.6116 30.8062 21.4118 30.889 21.2033 30.889ZM26.277 25.5648H4.66601C4.45759 25.5648 4.25771 25.482 4.11033 25.3347C3.96296 25.1873 3.88016 24.9874 3.88016 24.779C3.88016 24.5706 3.96296 24.3707 4.11033 24.2233C4.25771 24.0759 4.45759 23.9931 4.66601 23.9931H26.277C26.4854 23.9931 26.6853 24.0759 26.8327 24.2233C26.9801 24.3707 27.0629 24.5706 27.0629 24.779C27.0629 24.9874 26.9801 25.1873 26.8327 25.3347C26.6853 25.482 26.4854 25.5648 26.277 25.5648ZM26.277 20.2406H4.66601C4.45759 20.2406 4.25771 20.1579 4.11033 20.0105C3.96296 19.8631 3.88016 19.6632 3.88016 19.4548C3.88016 19.2464 3.96296 19.0465 4.11033 18.8991C4.25771 18.7518 4.45759 18.669 4.66601 18.669H26.277C26.4854 18.669 26.6853 18.7518 26.8327 18.8991C26.9801 19.0465 27.0629 19.2464 27.0629 19.4548C27.0629 19.6632 26.9801 19.8631 26.8327 20.0105C26.6853 20.1579 26.4854 20.2406 26.277 20.2406ZM26.277 14.9214H4.66601C4.45759 14.9214 4.25771 14.8386 4.11033 14.6912C3.96296 14.5439 3.88016 14.344 3.88016 14.1355C3.88016 13.9271 3.96296 13.7272 4.11033 13.5799C4.25771 13.4325 4.45759 13.3497 4.66601 13.3497H26.277C26.4854 13.3497 26.6853 13.4325 26.8327 13.5799C26.9801 13.7272 27.0629 13.9271 27.0629 14.1355C27.0629 14.344 26.9801 14.5439 26.8327 14.6912C26.6853 14.8386 26.4854 14.9214 26.277 14.9214ZM26.277 9.59724H4.66601C4.45759 9.59724 4.25771 9.51444 4.11033 9.36707C3.96296 9.21969 3.88016 9.01982 3.88016 8.8114C3.88016 8.60297 3.96296 8.40307 4.11033 8.25569C4.25771 8.10832 4.45759 8.02552 4.66601 8.02552H26.277C26.4854 8.02552 26.6853 8.10832 26.8327 8.25569C26.9801 8.40307 27.0629 8.60297 27.0629 8.8114C27.0629 9.01982 26.9801 9.21969 26.8327 9.36707C26.6853 9.51444 26.4854 9.59724 26.277 9.59724Z" fill="#777777"/>
</g>
<defs>
<clipPath id="clip0_565_7072">
<rect width="30.9627" height="40" fill="white"/>
</clipPath>
</defs>
</svg>
