<svg width="37" height="40" viewBox="0 0 37 40" fill="none" xmlns="http://www.w3.org/2000/svg">
<g clip-path="url(#clip0_565_7078)">
<path d="M25.7224 19.8652C23.565 21.4726 20.9465 22.3408 18.2561 22.3408C15.5658 22.3408 12.9473 21.4726 10.7898 19.8652C7.65268 20.8897 4.91976 22.8799 2.98184 25.5512C1.04392 28.2224 0.000230269 31.4381 0 34.7383V38.1596C0 38.4014 0.0476174 38.6408 0.140128 38.8641C0.232639 39.0874 0.368236 39.2904 0.539174 39.4613C0.710112 39.6323 0.913043 39.7679 1.13638 39.8604C1.35973 39.9529 1.5991 40.0005 1.84084 40.0005H34.6706C34.9128 40.0012 35.1527 39.954 35.3766 39.8618C35.6005 39.7696 35.8041 39.6341 35.9756 39.4631C36.147 39.2921 36.2831 39.089 36.3759 38.8653C36.4687 38.6416 36.5165 38.4018 36.5165 38.1596V34.7383C36.5152 31.4377 35.4706 28.2221 33.532 25.5509C31.5934 22.8797 28.86 20.8897 25.7224 19.8652Z" fill="#777777"/>
<path d="M18.2559 19.6368C23.6784 19.6368 28.0743 15.2409 28.0743 9.81838C28.0743 4.39584 23.6784 0 18.2559 0C12.8333 0 8.4375 4.39584 8.4375 9.81838C8.4375 15.2409 12.8333 19.6368 18.2559 19.6368Z" fill="#777777"/>
</g>
<defs>
<clipPath id="clip0_565_7078">
<rect width="36.5123" height="40" fill="white"/>
</clipPath>
</defs>
</svg>
