<svg width="54" height="40" viewBox="0 0 54 40" fill="none" xmlns="http://www.w3.org/2000/svg">
<g clip-path="url(#clip0_565_7084)">
<path d="M52.1669 12.4501L20.52 0.13091C20.0068 -0.0530573 19.4416 -0.0266616 18.9478 0.204388C18.454 0.435438 18.0716 0.852391 17.884 1.36428L16.6216 4.60491L13.4922 12.6484H37.9759C38.9346 12.6637 39.848 13.0589 40.5155 13.7473C41.183 14.4356 41.5499 15.3608 41.5357 16.3195V34.9411L43.1657 35.5795C43.6796 35.7619 44.2447 35.7342 44.7383 35.5023C45.2318 35.2705 45.614 34.8533 45.8017 34.3413L52.0218 18.38L53.2842 15.1442C53.4925 14.6387 53.4918 14.0712 53.2824 13.5662C53.0729 13.0612 52.6718 12.6599 52.1669 12.4501Z" fill="#777777"/>
<path d="M40.0871 16.2123C40.0858 15.6508 39.8622 15.1127 39.4652 14.7156C39.0681 14.3186 38.53 14.095 37.9686 14.0938H2.12334C1.56143 14.095 1.02281 14.3185 0.625024 14.7153C0.227235 15.1122 0.00255273 15.6503 0 16.2123V19.7044H40.0871V16.2123Z" fill="#777777"/>
<path d="M0 21.5957V37.8811C0.00255273 38.443 0.227235 38.9811 0.625024 39.378C1.02281 39.7749 1.56143 39.9983 2.12334 39.9996H37.9686C38.53 39.9983 39.0681 39.7747 39.4652 39.3777C39.8622 38.9807 40.0858 38.4426 40.0871 37.8811V21.5957H0ZM13.7171 36.3962H4.30955V34.2148H13.7171V36.3962Z" fill="#777777"/>
</g>
<defs>
<clipPath id="clip0_565_7084">
<rect width="53.422" height="40" fill="white"/>
</clipPath>
</defs>
</svg>
