<svg width="38" height="38" viewBox="0 0 38 38" fill="none" xmlns="http://www.w3.org/2000/svg">
<g clip-path="url(#clip0_489_4935)">
<path d="M19.6112 0C9.45622 0 1.22284 8.24909 1.22284 18.4235C1.2186 21.4373 1.9555 24.4057 3.36839 27.0663L0.0331466 37.2529C0.000415377 37.353 -0.00398097 37.4602 0.0204463 37.5626C0.0448737 37.665 0.0971675 37.7586 0.171514 37.833C0.245861 37.9074 0.339348 37.9597 0.441583 37.9841C0.543817 38.0084 0.650792 38.0039 0.750616 37.971L10.8805 34.6385C13.5634 36.0924 16.5664 36.8516 19.6166 36.847C29.7723 36.847 38.005 28.5986 38.005 18.4235C38.005 8.24833 29.767 0 19.6112 0Z" fill="white"/>
<path d="M27.388 10.3174H12.2313C11.39 10.3174 10.708 11.0007 10.708 11.8436C10.708 12.6865 11.39 13.3698 12.2313 13.3698H27.388C28.2293 13.3698 28.9113 12.6865 28.9113 11.8436C28.9113 11.0007 28.2293 10.3174 27.388 10.3174Z" fill="url(#paint0_linear_489_4935)"/>
<path d="M30.2571 19.8317H9.36216C8.95816 19.8317 8.5707 19.6709 8.28503 19.3847C7.99936 19.0985 7.83887 18.7103 7.83887 18.3055C7.83887 17.9007 7.99936 17.5125 8.28503 17.2263C8.5707 16.9401 8.95816 16.7793 9.36216 16.7793H30.2571C30.6611 16.7793 31.0486 16.9401 31.3343 17.2263C31.6199 17.5125 31.7804 17.9007 31.7804 18.3055C31.7804 18.7103 31.6199 19.0985 31.3343 19.3847C31.0486 19.6709 30.6611 19.8317 30.2571 19.8317Z" fill="url(#paint1_linear_489_4935)"/>
<path d="M28.7113 26.2936H10.9071C10.5031 26.2936 10.1156 26.1328 9.82995 25.8466C9.54428 25.5604 9.38379 25.1722 9.38379 24.7674C9.38379 24.3626 9.54428 23.9744 9.82995 23.6882C10.1156 23.402 10.5031 23.2412 10.9071 23.2412H28.7113C29.1153 23.2412 29.5028 23.402 29.7884 23.6882C30.0741 23.9744 30.2346 24.3626 30.2346 24.7674C30.2346 25.1722 30.0741 25.5604 29.7884 25.8466C29.5028 26.1328 29.1153 26.2936 28.7113 26.2936Z" fill="url(#paint2_linear_489_4935)"/>
</g>
<defs>
<linearGradient id="paint0_linear_489_4935" x1="10.3332" y1="12.1827" x2="28.9111" y2="12.2672" gradientUnits="userSpaceOnUse">
<stop stop-color="#459D72"/>
<stop offset="1" stop-color="#90D26D"/>
</linearGradient>
<linearGradient id="paint1_linear_489_4935" x1="7.34595" y1="18.6446" x2="31.7798" y2="18.7908" gradientUnits="userSpaceOnUse">
<stop stop-color="#459D72"/>
<stop offset="1" stop-color="#90D26D"/>
</linearGradient>
<linearGradient id="paint2_linear_489_4935" x1="8.95451" y1="25.1066" x2="30.2342" y2="25.2174" gradientUnits="userSpaceOnUse">
<stop stop-color="#459D72"/>
<stop offset="1" stop-color="#90D26D"/>
</linearGradient>
<clipPath id="clip0_489_4935">
<rect width="38" height="38" fill="white"/>
</clipPath>
</defs>
</svg>
