<svg width="30" height="30" viewBox="0 0 30 30" fill="none" xmlns="http://www.w3.org/2000/svg">
<circle cx="15" cy="15" r="15" fill="#EC8E41"/>
<g clip-path="url(#clip0_899_5372)">
<path d="M21.326 13.7385H20.3763L21.3129 10.2189C21.3196 10.1931 21.3205 10.1662 21.3153 10.14C21.3102 10.1138 21.2993 10.0891 21.2833 10.0678C21.2665 10.0464 21.245 10.029 21.2206 10.0171C21.1961 10.0051 21.1692 9.99889 21.142 9.99877H19.9327C19.8938 9.99942 19.8563 10.0125 19.8255 10.0362C19.7947 10.0599 19.7724 10.0929 19.7618 10.1302L18.8416 13.7451H17.0408L16.1338 10.1302C16.1248 10.0917 16.103 10.0574 16.072 10.0329C16.0409 10.0084 16.0025 9.9952 15.9629 9.99548H14.54C14.5013 9.99664 14.4639 10.01 14.4333 10.0336C14.4026 10.0572 14.3801 10.0898 14.3691 10.1269L13.4489 13.7418H11.6448L10.7378 10.1269C10.7288 10.0884 10.7071 10.0541 10.676 10.0296C10.6449 10.0051 10.6065 9.99191 10.5669 9.99219H9.37073C9.3439 9.9924 9.31747 9.99868 9.29343 10.0106C9.26938 10.0225 9.24834 10.0396 9.23189 10.0608C9.21544 10.082 9.20401 10.1067 9.19845 10.1329C9.1929 10.1592 9.19338 10.1863 9.19984 10.2124L10.1266 13.7319H9.17354C9.12648 13.7319 9.08134 13.7506 9.04806 13.7839C9.01478 13.8172 8.99609 13.8623 8.99609 13.9094V14.9905C8.99609 15.0376 9.01478 15.0827 9.04806 15.116C9.08134 15.1493 9.12648 15.168 9.17354 15.168H10.488L11.7204 19.8607C11.731 19.8981 11.7533 19.9311 11.7841 19.9547C11.8149 19.9784 11.8524 19.9915 11.8913 19.9922H13.1729C13.2123 19.9919 13.2505 19.9785 13.2814 19.9541C13.3124 19.9297 13.3343 19.8957 13.3438 19.8575L14.5465 15.168H15.9169L17.1196 19.8575C17.1291 19.8957 17.1511 19.9297 17.182 19.9541C17.213 19.9785 17.2511 19.9919 17.2905 19.9922H18.5722C18.6109 19.991 18.6482 19.9777 18.6789 19.9541C18.7096 19.9305 18.732 19.8978 18.743 19.8607L19.9885 15.168H21.303C21.3263 15.168 21.3494 15.1634 21.3709 15.1545C21.3925 15.1456 21.412 15.1325 21.4285 15.116C21.445 15.0995 21.4581 15.08 21.467 15.0585C21.4759 15.0369 21.4805 15.0138 21.4805 14.9905V13.9094C21.4793 13.8672 21.4631 13.8268 21.4348 13.7955C21.4064 13.7642 21.3679 13.7439 21.326 13.7385ZM18.4834 15.1746L17.9412 17.2876L17.4023 15.1746H18.4834ZM15.5521 13.7385H14.931L15.2399 12.5489L15.5521 13.7385ZM13.0875 15.1746L12.5485 17.2876L12.0063 15.1746H13.0875Z" fill="white"/>
</g>
<defs>
<clipPath id="clip0_899_5372">
<rect width="12.5041" height="10" fill="white" transform="translate(9 10)"/>
</clipPath>
</defs>
</svg>
