<svg width="24" height="24" viewBox="0 0 24 24" fill="none" xmlns="http://www.w3.org/2000/svg">
<g clip-path="url(#clip0_910_7993)">
<path fill-rule="evenodd" clip-rule="evenodd" d="M3.51991 20.4947C1.8391 18.8136 0.694499 16.6719 0.230847 14.3404C-0.232806 12.0089 0.00530542 9.59226 0.915081 7.39607C1.82486 5.19987 3.36544 3.32277 5.34201 2.00211C7.31858 0.681458 9.64237 -0.0234375 12.0195 -0.0234375C14.3967 -0.0234375 16.7205 0.681458 18.6971 2.00211C20.6737 3.32277 22.2142 5.19987 23.124 7.39607C24.0338 9.59226 24.2719 12.0089 23.8082 14.3404C23.3446 16.6719 22.2 18.8136 20.5192 20.4947C18.2586 22.7369 15.2036 23.9951 12.0195 23.9951C8.83552 23.9951 5.78049 22.7369 3.51991 20.4947ZM12.0185 21.2588C11.6127 21.2591 11.2074 21.233 10.805 21.1806C10.2507 20.0796 9.77136 18.9424 9.37012 17.7769H14.669C14.2648 18.9448 13.784 20.0847 13.2297 21.1893C12.8267 21.2418 12.4206 21.2679 12.0141 21.2674L12.0185 21.2588ZM9.45261 20.9071C7.60957 20.3759 5.97716 19.285 4.78112 17.7855H8.18706C8.53718 18.8537 8.96001 19.8967 9.45261 20.9071ZM15.852 17.7855H19.258C18.0615 19.2846 16.4293 20.3753 14.5865 20.9071C15.0791 19.8967 15.5019 18.8537 15.852 17.7855ZM3.96491 16.5873C3.26992 15.3682 2.86232 14.0065 2.77316 12.6061H7.20804C7.27603 13.9514 7.48558 15.2859 7.83322 16.5873H3.96491ZM8.28908 12.6061H15.75C15.6533 13.954 15.4169 15.2882 15.0445 16.5873H8.99458C8.62217 15.2882 8.38574 13.954 8.28908 12.6061ZM16.8311 12.6061H21.2616C21.1748 14.0064 20.7687 15.3682 20.0742 16.5873H16.2059C16.5525 15.2856 16.762 13.9513 16.8311 12.6061ZM2.77316 11.4057C2.86232 10.0052 3.26992 8.64356 3.96491 7.42447H7.71383C7.38977 8.72759 7.21354 10.0631 7.1885 11.4057H2.77316ZM8.73408 7.42447H15.3028C15.6266 8.72678 15.7906 10.0637 15.7912 11.4057H8.24783C8.24878 10.0638 8.41204 8.72707 8.73408 7.42447ZM16.3318 7.42447H20.0807C20.7726 8.64341 21.1765 10.0044 21.2616 11.4035H16.8506C16.8255 10.0609 16.6493 8.72542 16.3253 7.42229L16.3318 7.42447ZM4.78763 6.22186C5.95305 4.75745 7.53367 3.67924 9.32237 3.12852C8.81682 4.1212 8.39145 5.1527 8.0503 6.21318L4.78763 6.22186ZM10.5749 2.85283C11.5365 2.70232 12.5156 2.70232 13.4772 2.85283C14.0818 3.92407 14.5805 5.05169 14.9664 6.21969H9.07924C9.46493 5.05095 9.96367 3.92259 10.5684 2.85066L10.5749 2.85283ZM14.7124 3.12852C16.5039 3.67492 18.0884 4.75018 19.258 6.21318H15.9845C15.6433 5.1527 15.2179 4.1212 14.7124 3.12852ZM4.76375 19.266C6.20007 20.7022 8.02999 21.6802 10.0221 22.0763C12.0143 22.4725 14.0791 22.2691 15.9557 21.4917C17.8322 20.7144 19.4361 19.3981 20.5645 17.7092C21.6929 16.0204 22.2952 14.0348 22.2952 12.0037C22.2952 9.97255 21.6929 7.98702 20.5645 6.29816C19.4361 4.60931 17.8322 3.29299 15.9557 2.51565C14.0791 1.73832 12.0143 1.53487 10.0221 1.93105C8.02999 2.32723 6.20007 3.30523 4.76375 4.7414C2.84811 6.673 1.77324 9.28326 1.77324 12.0037C1.77324 14.7241 2.84811 17.3344 4.76375 19.266Z" fill="#E3E3E3"/>
</g>
<defs>
<clipPath id="clip0_910_7993">
<rect width="24" height="24" fill="white"/>
</clipPath>
</defs>
</svg>
