<svg width="18" height="18" viewBox="0 0 18 18" fill="none" xmlns="http://www.w3.org/2000/svg">
<path d="M16.9503 10.1842C17.0043 9.65415 17.0043 9.11999 16.9503 8.58993C16.5124 8.52073 16.1027 8.33041 15.7673 8.04049C15.4319 7.75057 15.1844 7.37262 15.0526 6.94936C14.8787 6.55022 14.8212 6.11005 14.8868 5.67964C14.9523 5.24923 15.1381 4.84611 15.4229 4.51678C15.0921 4.10109 14.718 3.72182 14.3069 3.38536C13.9391 3.69544 13.4929 3.89795 13.0173 3.97059C12.5418 4.04322 12.0554 3.98316 11.6119 3.797C11.1683 3.61085 10.7847 3.30585 10.5034 2.9156C10.2222 2.52536 10.0541 2.06504 10.0177 1.58536C9.48954 1.52884 8.9568 1.52884 8.42859 1.58536C8.39259 2.01932 8.23436 2.43419 7.97222 2.7819C7.71008 3.1296 7.35476 3.39589 6.94746 3.54992C6.55406 3.75228 6.11179 3.84029 5.67088 3.80393C5.22998 3.76756 4.80811 3.60829 4.45317 3.34421C4.03578 3.67673 3.6548 4.05254 3.31661 4.46535C3.61844 4.804 3.82243 5.21842 3.90668 5.66416C3.99094 6.10991 3.95229 6.57019 3.79489 6.99564C3.59377 7.42813 3.28465 7.80153 2.89732 8.07987C2.50999 8.3582 2.0575 8.5321 1.58345 8.58478C1.52947 9.11484 1.52947 9.64901 1.58345 10.1791C2.01393 10.225 2.42394 10.3866 2.76993 10.6468C3.11591 10.907 3.38496 11.2561 3.54847 11.657C3.71197 12.0578 3.76384 12.4955 3.69857 12.9235C3.6333 13.3514 3.45331 13.7538 3.17774 14.0876C3.51125 14.5009 3.8851 14.8799 4.29375 15.2191C4.66213 14.9109 5.10819 14.71 5.58312 14.6384C6.05805 14.5668 6.54352 14.6272 6.9864 14.813C7.42928 14.9989 7.81249 15.303 8.09407 15.6921C8.37566 16.0812 8.54477 16.5403 8.58289 17.0191C9.11109 17.0756 9.64382 17.0756 10.172 17.0191C10.2092 16.5855 10.3679 16.1712 10.6299 15.8237C10.8919 15.4762 11.2466 15.2096 11.6532 15.0545C12.0475 14.8523 12.4906 14.7644 12.9322 14.8007C13.3739 14.8371 13.7966 14.9962 14.1526 15.2602C14.5672 14.9282 14.9463 14.5542 15.284 14.1442C14.9651 13.8152 14.75 13.3995 14.6655 12.9491C14.5811 12.4987 14.6312 12.0333 14.8094 11.6111C14.9876 11.1889 15.2861 10.8285 15.6677 10.5748C16.0493 10.321 16.4972 10.1852 16.9555 10.1842H16.9503ZM9.28746 13.5579C8.44525 13.5579 7.62195 13.3082 6.92168 12.8403C6.22141 12.3724 5.67561 11.7073 5.35332 10.9292C5.03102 10.1511 4.94668 9.29492 5.11099 8.46889C5.2753 7.64287 5.68085 6.88411 6.27639 6.28858C6.87192 5.69305 7.63068 5.28749 8.4567 5.12318C9.28273 4.95887 10.1389 5.04319 10.917 5.36549C11.6951 5.68779 12.3602 6.2336 12.8281 6.93387C13.296 7.63414 13.5457 8.45744 13.5457 9.29965C13.5457 10.429 13.0971 11.5121 12.2985 12.3107C11.4999 13.1093 10.4168 13.5579 9.28746 13.5579Z" fill="white"/>
<path d="M9.28738 6.78516C8.78592 6.78516 8.29572 6.93385 7.87878 7.21245C7.46183 7.49104 7.13685 7.88703 6.94495 8.35032C6.75305 8.8136 6.70284 9.32339 6.80067 9.81522C6.8985 10.307 7.13998 10.7588 7.49457 11.1134C7.84915 11.468 8.30092 11.7095 8.79274 11.8073C9.28457 11.9051 9.79436 11.8549 10.2576 11.663C10.7209 11.4711 11.1169 11.1462 11.3955 10.7292C11.6741 10.3123 11.8228 9.82204 11.8228 9.32058C11.8228 8.64814 11.5557 8.00325 11.0802 7.52777C10.6047 7.05228 9.95982 6.78516 9.28738 6.78516Z" fill="white"/>
</svg>
