<svg width="30" height="30" viewBox="0 0 30 30" fill="none" xmlns="http://www.w3.org/2000/svg">
<g clip-path="url(#clip0_714_4407)">
<path d="M15.8113 1.625V15.8145H1.625C1.625 18.6211 2.45729 21.3646 4.0166 23.6982C5.57591 26.0317 7.79221 27.8504 10.3852 28.9243C12.9782 29.9981 15.8314 30.279 18.584 29.7312C21.3366 29.1834 23.8649 27.8317 25.8492 25.8469C27.8335 23.8621 29.1847 21.3335 29.7318 18.5808C30.279 15.8281 29.9975 12.9749 28.923 10.3822C27.8486 7.78944 26.0294 5.57357 23.6955 4.01479C21.3616 2.45601 18.6179 1.62436 15.8113 1.625Z" fill="#E4665E"/>
<path d="M14.1895 0C12.3259 -4.86391e-08 10.4805 0.36713 8.75869 1.08042C7.03692 1.79372 5.47254 2.8392 4.15488 4.15716C2.83721 5.47512 1.79208 7.03976 1.07918 8.76169C0.366282 10.4836 -0.000425417 12.3291 3.70362e-07 14.1928H14.1895V0Z" fill="#E4665E"/>
</g>
<defs>
<clipPath id="clip0_714_4407">
<rect width="30" height="30" fill="white"/>
</clipPath>
</defs>
</svg>
