<svg width="31" height="30" viewBox="0 0 31 30" fill="none" xmlns="http://www.w3.org/2000/svg">
<g clip-path="url(#clip0_714_4400)">
<path d="M15.2571 5.36802C15.2571 5.36802 12.9587 -2.11787 8.89221 0.59059C7.01133 2.02382 7.6433 4.97304 8.8734 5.36802H15.2571Z" fill="#579576"/>
<path d="M15.2578 5.36802C15.2578 5.36802 17.56 -2.11787 21.6265 0.59059C23.5073 2.02382 22.8716 4.97304 21.6265 5.36802H15.2578Z" fill="#579576"/>
<path d="M14.5654 30.0014V12.9531H2.27571C2.11608 12.9531 1.96299 13.0165 1.85011 13.1294C1.73724 13.2423 1.67383 13.3954 1.67383 13.555V29.3995C1.67383 29.5592 1.73724 29.7122 1.85011 29.8251C1.96299 29.938 2.11608 30.0014 2.27571 30.0014H28.3672C28.4463 30.0014 28.5245 29.9858 28.5976 29.9556C28.6706 29.9254 28.7369 29.881 28.7928 29.8251C28.8487 29.7692 28.8931 29.7029 28.9233 29.6299C28.9536 29.5568 28.9691 29.4786 28.9691 29.3995V13.555C28.9691 13.476 28.9536 13.3977 28.9233 13.3247C28.8931 13.2517 28.8487 13.1853 28.7928 13.1294C28.7369 13.0735 28.6706 13.0292 28.5976 12.999C28.5245 12.9687 28.4463 12.9531 28.3672 12.9531H15.9534V30.0014H14.5654Z" fill="#579576"/>
<path d="M15.9498 5.36731V11.5742H29.9135C30.0731 11.5742 30.2262 11.5108 30.3391 11.3979C30.4519 11.285 30.5154 11.132 30.5154 10.9723V5.96918C30.5154 5.80955 30.4519 5.65647 30.3391 5.5436C30.2262 5.43072 30.0731 5.36731 29.9135 5.36731H0.722256C0.549641 5.36412 0.381647 5.4232 0.249018 5.53372C0.116388 5.64425 0.0279915 5.79882 0 5.96918V10.9723C0.0279915 11.1427 0.116388 11.2973 0.249018 11.4078C0.381647 11.5183 0.549641 11.5774 0.722256 11.5742H14.5655V5.36731H15.9498Z" fill="#579576"/>
</g>
<defs>
<clipPath id="clip0_714_4400">
<rect width="30.5154" height="30" fill="white"/>
</clipPath>
</defs>
</svg>
