<svg width="18" height="22" viewBox="0 0 18 22" fill="none" xmlns="http://www.w3.org/2000/svg">
<path d="M1 2C1 1.44772 1.44771 1 2 1H10C13.866 1 17 4.13401 17 8V20C17 20.5523 16.5523 21 16 21H2C1.44772 21 1 20.5523 1 20V2Z" stroke="white" stroke-width="2"/>
<path d="M12.5 6V2.59126C12.5 2.19769 12.8838 2.02715 13.1387 2.1837C15.0889 3.38171 15.7846 4.57416 16.2066 5.93517C16.2869 6.19395 16.0865 6.5 15.7464 6.5H13C12.7239 6.5 12.5 6.27614 12.5 6Z" fill="white" stroke="white"/>
<rect x="4" y="6" width="6" height="2" fill="white"/>
<rect x="4" y="10" width="10" height="2" fill="white"/>
<rect x="4" y="14" width="10" height="2" fill="white"/>
</svg>
