<svg width="23" height="24" viewBox="0 0 23 24" fill="none" xmlns="http://www.w3.org/2000/svg">
<rect x="6" y="1" width="16" height="20" rx="1" fill="#F8F8F8" stroke="#AAAAAA" stroke-width="2"/>
<g clip-path="url(#clip0_714_5434)">
<path d="M9.72356 19.8477C9.71469 19.668 9.67319 19.4914 9.60119 19.326C9.51944 19.1382 9.40033 18.9693 9.25194 18.8281C9.1036 18.687 8.92884 18.5764 8.73822 18.5013C8.54766 18.4262 8.34423 18.3879 8.13933 18.3879C8.1393 18.3879 8.13927 18.3879 8.13924 18.3879H6.77711C6.72496 17.5795 6.88903 16.8402 7.28595 16.1099C7.62478 15.4867 7.96799 14.7878 8.14259 14.0498C8.54773 12.3388 7.21915 10.7995 5.49868 10.5376L5.49851 10.5376C5.16862 10.4875 4.83256 10.4875 4.50268 10.5376L4.50251 10.5376C2.78186 10.7995 1.45325 12.3388 1.8584 14.0498L1.85841 14.0499C2.03317 14.7876 2.37602 15.487 2.71506 16.11L9.72356 19.8477ZM9.72356 19.8477C9.72476 19.8721 9.72537 19.8965 9.72536 19.921C9.72536 19.921 9.72536 19.921 9.72536 19.9211V20.3471H9.69316C9.77479 20.3474 9.85295 20.3785 9.91048 20.4336C9.96801 20.4887 10.0002 20.5632 10 20.6409H10.5V20.6413V21.707C10.5 21.9256 10.4085 22.1299 10.2544 22.2765C10.1012 22.4222 9.89843 22.5 9.69197 22.5H0.308026C0.101567 22.5 -0.101158 22.4222 -0.254392 22.2765L0.0902184 21.9142L-0.254395 22.2765C-0.40848 22.1299 -0.5 21.9256 -0.5 21.707V20.6401C-0.5 20.4215 -0.408477 20.2172 -0.254395 20.0706L0.0902184 20.4329L-0.254392 20.0706C-0.108742 19.9321 0.0816303 19.855 0.277435 19.8477C0.296578 19.4601 0.466851 19.0967 0.749107 18.8282C1.04824 18.5436 1.44886 18.3879 1.86166 18.3879H3.22407M9.72356 19.8477L3.22407 18.3879M3.22407 18.3879C3.27604 17.5795 3.11212 16.8402 2.71513 16.1101L3.22407 18.3879ZM9.22536 19.9206C9.22534 19.7851 9.19727 19.6508 9.14275 19.5256C9.08818 19.4003 9.00818 19.2864 8.90733 19.1904C8.80648 19.0945 8.68674 19.0184 8.55497 18.9665C8.42319 18.9146 8.28195 18.8879 8.13933 18.8879L9.22536 19.9206Z" fill="#AAAAAA" stroke="#F8F8F8"/>
</g>
<path d="M13.9452 6.375C13.0291 6.37462 12.1336 6.6463 11.3718 7.15567C10.6099 7.66504 10.0161 8.38922 9.66537 9.2366C9.31464 10.084 9.22277 11.0165 9.40139 11.9162C9.58 12.8158 10.0211 13.6422 10.6688 14.2908C11.3166 14.9395 12.1419 15.3811 13.0403 15.56C13.9388 15.7388 14.87 15.6468 15.7163 15.2956C16.5625 14.9444 17.2857 14.3498 17.7944 13.587C18.3031 12.8241 18.5744 11.9273 18.574 11.0101C18.574 10.4014 18.4543 9.79865 18.2217 9.23629C17.989 8.67394 17.6481 8.16298 17.2183 7.73258C16.7884 7.30217 16.2782 6.96076 15.7166 6.72782C15.155 6.49489 14.5531 6.375 13.9452 6.375ZM16.8208 9.9133L13.4808 13.2598C13.3651 13.375 13.2085 13.4397 13.0454 13.4397C12.8822 13.4397 12.7256 13.375 12.61 13.2598L11.0735 11.7231C10.958 11.6075 10.8931 11.4507 10.8931 11.2872C10.8931 11.1236 10.958 10.9668 11.0735 10.8512C11.1889 10.7355 11.3456 10.6706 11.5089 10.6706C11.6722 10.6706 11.8288 10.7355 11.9443 10.8512L13.0454 11.9518L15.948 9.04519C16.0635 8.92956 16.2201 8.8646 16.3834 8.8646C16.5468 8.8646 16.7034 8.92956 16.8189 9.04519C16.9343 9.16083 16.9992 9.31766 16.9992 9.48118C16.9992 9.64471 16.9343 9.80154 16.8189 9.91717L16.8208 9.9133Z" fill="#AAAAAA"/>
<defs>
<clipPath id="clip0_714_5434">
<rect width="12" height="14" fill="white" transform="translate(0 10)"/>
</clipPath>
</defs>
</svg>
