<svg width="45" height="30" viewBox="0 0 45 30" fill="none" xmlns="http://www.w3.org/2000/svg">
<g clip-path="url(#clip0_714_4424)">
<path d="M32.1026 22.7567L32.547 21.3945H31.7363L32.1026 22.7567Z" fill="#3DA199"/>
<path d="M36.6659 22.6497L37.0034 21.3945H36.2832L36.6659 22.6497Z" fill="#3DA199"/>
<path d="M2.0498 9.66406H-0.0078125V27.5036C-0.0078134 28.1653 0.254796 28.8001 0.722361 29.2684C1.18993 29.7368 1.82423 30.0004 2.48601 30.0015H41.556C42.2178 30.0004 42.8521 29.7368 43.3196 29.2684C43.7872 28.8001 44.0498 28.1653 44.0498 27.5036V9.66406H2.0498ZM40.0457 21.4171H38.7123L37.5107 25.1209C37.3008 25.5324 37.0992 25.7258 36.7288 25.7299C36.3667 25.7299 36.2144 25.6188 35.9428 25.1414L34.5601 21.4171H34.2803L32.8029 25.2032C32.5971 25.553 32.3914 25.7711 32.021 25.7711C31.6547 25.7711 31.4654 25.5571 31.2473 25.162L30.0333 21.4171H28.8317C28.6134 21.4171 28.4041 21.3304 28.2497 21.1761C28.0954 21.0217 28.0086 20.8124 28.0086 20.5941C28.0086 20.3758 28.0954 20.1665 28.2497 20.0121C28.4041 19.8578 28.6134 19.7711 28.8317 19.7711H29.5889L29.235 18.4542C29.1896 18.2462 29.2266 18.0287 29.3381 17.8474C29.4496 17.6661 29.6271 17.5351 29.8332 17.4818C30.0393 17.4286 30.258 17.4572 30.4434 17.5618C30.6288 17.6664 30.7665 17.8387 30.8276 18.0427L31.2967 19.7875H33.0909L33.6794 18.0015C33.7315 17.8338 33.8359 17.6871 33.9773 17.5829C34.1188 17.4788 34.2898 17.4226 34.4654 17.4226C34.6411 17.4226 34.8121 17.4788 34.9535 17.5829C35.095 17.6871 35.1993 17.8338 35.2514 18.0015L35.7947 19.7711H37.4407L37.9099 18.0262C37.9709 17.8223 38.1086 17.6499 38.294 17.5454C38.4794 17.4408 38.6982 17.4121 38.9043 17.4654C39.1104 17.5186 39.2878 17.6497 39.3994 17.831C39.5109 18.0123 39.5479 18.2298 39.5025 18.4377L39.1486 19.7546H40.0374C40.2557 19.7546 40.4651 19.8413 40.6194 19.9957C40.7738 20.15 40.8605 20.3594 40.8605 20.5777C40.8605 20.7959 40.7738 21.0053 40.6194 21.1596C40.4651 21.314 40.2557 21.4007 40.0374 21.4007L40.0457 21.4171Z" fill="#3DA199"/>
<path d="M41.556 0.0156287H2.49424C1.83599 0.0145005 1.20391 0.273233 0.735385 0.735592C0.266861 1.19795 -0.000222471 1.82656 -0.0078125 2.48476V5.43949H44.0251V2.48476C44.0176 1.83223 43.7551 1.20854 43.2936 0.747096C42.8322 0.285655 42.2085 0.0231114 41.556 0.0156287Z" fill="#3DA199"/>
</g>
<defs>
<clipPath id="clip0_714_4424">
<rect width="44.0288" height="30" fill="white"/>
</clipPath>
</defs>
</svg>
