<svg width="20" height="16" viewBox="0 0 20 16" fill="none" xmlns="http://www.w3.org/2000/svg">
<path d="M10 10.0367C10.5304 10.0367 11.0391 9.82283 11.4142 9.44212C11.7893 9.06141 12 8.54505 12 8.00664C12 7.46823 11.7893 6.95187 11.4142 6.57116C11.0391 6.19045 10.5304 5.97656 10 5.97656C9.46957 5.97656 8.96086 6.19045 8.58579 6.57116C8.21071 6.95187 8 7.46823 8 8.00664C8 8.54505 8.21071 9.06141 8.58579 9.44212C8.96086 9.82283 9.46957 10.0367 10 10.0367Z" fill="#E3E3E3"/>
<path fill-rule="evenodd" clip-rule="evenodd" d="M0.457031 8.00761C1.73103 3.8896 5.52103 0.902344 9.99903 0.902344C14.477 0.902344 18.267 3.8896 19.541 8.00761C18.267 12.1256 14.477 15.1129 9.99903 15.1129C5.52103 15.1129 1.73103 12.1256 0.457031 8.00761ZM13.999 8.00761C13.999 9.08443 13.5776 10.1171 12.8275 10.8786C12.0773 11.64 11.0599 12.0678 9.99903 12.0678C8.93816 12.0678 7.92075 11.64 7.1706 10.8786C6.42046 10.1171 5.99903 9.08443 5.99903 8.00761C5.99903 6.93079 6.42046 5.89807 7.1706 5.13665C7.92075 4.37522 8.93816 3.94746 9.99903 3.94746C11.0599 3.94746 12.0773 4.37522 12.8275 5.13665C13.5776 5.89807 13.999 6.93079 13.999 8.00761Z" fill="#E3E3E3"/>
</svg>
