<svg width="24" height="24" viewBox="0 0 24 24" fill="none" xmlns="http://www.w3.org/2000/svg">
<path fill-rule="evenodd" clip-rule="evenodd" d="M22.9551 2.06163H14.2723V0.015625L0 2.21848V21.5273L14.2723 23.9856V20.9531H22.9551C23.2181 20.9664 23.4757 20.875 23.6715 20.699C23.8673 20.5229 23.9854 20.2765 24 20.0136V3.0002C23.9852 2.73745 23.8669 2.49125 23.6712 2.31539C23.4754 2.13953 23.218 2.0483 22.9551 2.06163ZM23.0923 20.1696H14.2431L14.2286 18.5505H16.3603V16.6648H14.2123L14.202 15.5505H16.3603V13.6648H14.1857L14.1754 12.5505H16.3603V10.6648H14.1686V9.55048H16.3603V7.66477H14.1686V6.55048H16.3603V4.66477H14.1686V2.95048H23.0923V20.1696Z" fill="#20744A"/>
<path d="M17.5586 4.66016H21.264V6.54587H17.5586V4.66016ZM17.5586 7.66101H21.264V9.54673H17.5586V7.66101ZM17.5586 10.6619H21.264V12.5476H17.5586V10.6619ZM17.5586 13.6627H21.264V15.5484H17.5586V13.6627ZM17.5586 16.6636H21.264V18.5493H17.5586V16.6636Z" fill="#20744A"/>
<path fill-rule="evenodd" clip-rule="evenodd" d="M3.72412 7.43575L5.56355 7.33032L6.71983 10.5095L8.08612 7.19918L9.92555 7.09375L7.69183 11.6075L9.92555 16.1323L7.98069 16.0012L6.66755 12.552L5.35355 15.87L3.56641 15.7123L5.64241 11.7155L3.72412 7.43575Z" fill="white"/>
</svg>
