<svg width="20" height="18" viewBox="0 0 20 18" fill="none" xmlns="http://www.w3.org/2000/svg">
<g clip-path="url(#clip0_910_7830)">
<path d="M8.2626 1.77142C7.21813 2.74006 6.55862 4.00868 6.39182 5.37001C6.22502 6.73134 6.56079 8.10492 7.34427 9.26632C7.24771 9.35569 7.12175 9.41258 6.98637 9.42797L5.55001 9.55249C5.42027 9.56875 5.29992 9.62421 5.20756 9.71028C5.1152 9.79636 5.05598 9.90827 5.03905 10.0287L4.90247 11.3612C4.88623 11.4814 4.82668 11.593 4.73351 11.6778C4.64033 11.7627 4.51899 11.8159 4.38916 11.8287L3.00225 11.927C2.87254 11.9396 2.75128 11.9927 2.65842 12.0776C2.56556 12.1626 2.50662 12.2743 2.49129 12.3945L2.3712 13.7052C2.35783 13.8241 2.29892 13.9348 2.20518 14.0169C2.11143 14.0991 1.98906 14.1473 1.86024 14.153L0.593427 14.1836C0.535259 14.1833 0.477766 14.1952 0.425205 14.2183C0.372644 14.2414 0.326349 14.2752 0.289737 14.3171C0.253124 14.3591 0.227128 14.4081 0.213667 14.4606C0.200206 14.5131 0.199631 14.5677 0.211971 14.6204L0.706446 17.0124C0.739354 17.1361 0.808083 17.2491 0.905194 17.3392C1.0023 17.4293 1.12411 17.4931 1.25745 17.5236L3.84759 17.9823C3.98937 18.0009 4.13378 17.991 4.27108 17.9533C4.40838 17.9156 4.53537 17.851 4.64347 17.7639L11.0011 11.8549C12.1064 12.1628 13.2799 12.1933 14.402 11.9433C15.5241 11.6933 16.5548 11.1719 17.3888 10.432C18.2229 9.69209 18.8307 8.76028 19.1501 7.7315C19.4696 6.70273 19.4893 5.61378 19.2073 4.57563C18.9253 3.53748 18.3517 2.58725 17.5448 1.82179C16.738 1.05632 15.7268 0.502993 14.6144 0.21819C13.5019 -0.0666137 12.328 -0.0727069 11.2122 0.20053C10.0964 0.473768 9.07861 1.01656 8.2626 1.7736V1.77142ZM15.9836 5.66632C15.7174 5.91307 15.3784 6.08108 15.0094 6.14911C14.6404 6.21713 14.2579 6.18212 13.9103 6.0485C13.5627 5.91488 13.2656 5.68864 13.0566 5.3984C12.8476 5.10816 12.736 4.76695 12.736 4.4179C12.736 4.06885 12.8476 3.72763 13.0566 3.43739C13.2656 3.14715 13.5627 2.92092 13.9103 2.7873C14.2579 2.65368 14.6404 2.61867 15.0094 2.68669C15.3784 2.75472 15.7174 2.92273 15.9836 3.16948C16.1603 3.33339 16.3006 3.52801 16.3963 3.74222C16.4919 3.95643 16.5412 4.18603 16.5412 4.4179C16.5412 4.64977 16.4919 4.87937 16.3963 5.09358C16.3006 5.30779 16.1603 5.50241 15.9836 5.66632Z" fill="#0AB481"/>
</g>
<defs>
<clipPath id="clip0_910_7830">
<rect width="19.2" height="18" fill="white" transform="translate(0.203125)"/>
</clipPath>
</defs>
</svg>
