<svg width="20" height="18" viewBox="0 0 20 18" fill="none" xmlns="http://www.w3.org/2000/svg">
<path fill-rule="evenodd" clip-rule="evenodd" d="M3.70643 1.18881C3.51783 1.00545 3.26523 0.903995 3.00303 0.906288C2.74083 0.908581 2.49002 1.01444 2.30461 1.20107C2.1192 1.3877 2.01403 1.64016 2.01176 1.90408C2.00948 2.168 2.11027 2.42227 2.29243 2.61211L16.2924 16.7042C16.481 16.8876 16.7336 16.989 16.9958 16.9867C17.258 16.9844 17.5088 16.8786 17.6943 16.692C17.8797 16.5053 17.9848 16.2529 17.9871 15.9889C17.9894 15.725 17.8886 15.4708 17.7064 15.2809L16.2334 13.7982C17.791 12.5482 18.9427 10.8589 19.5414 8.94651C18.2674 4.86282 14.4774 1.90046 9.99943 1.90046C8.43186 1.89832 6.88593 2.26872 5.48743 2.98153L3.70743 1.18881H3.70643ZM7.96743 5.47684L9.48143 7.0018C9.82052 6.91116 10.1773 6.91176 10.5161 7.00354C10.8549 7.09533 11.1638 7.27507 11.4119 7.52479C11.6599 7.7745 11.8385 8.08543 11.9297 8.42644C12.0209 8.76746 12.0215 9.1266 11.9314 9.46792L13.4454 10.9919C13.8964 10.2229 14.0806 9.32478 13.9691 8.43887C13.8575 7.55296 13.4566 6.72952 12.8293 6.09807C12.2019 5.46663 11.3839 5.06302 10.5038 4.95075C9.62364 4.83847 8.73141 5.02389 7.96743 5.47784V5.47684Z" fill="#E3E3E3"/>
<path d="M12.453 15.6895L9.74903 12.9667C8.77672 12.9054 7.86006 12.489 7.17109 11.7957C6.48212 11.1023 6.0682 10.1798 6.00703 9.20107L2.33403 5.50391C1.48924 6.51654 0.85138 7.68709 0.457031 8.94842C1.73103 13.0321 5.52203 15.9945 9.99903 15.9945C10.846 15.9945 11.668 15.8888 12.453 15.6895Z" fill="#E3E3E3"/>
</svg>
