<svg width="18" height="22" viewBox="0 0 18 22" fill="none" xmlns="http://www.w3.org/2000/svg">
<g clip-path="url(#clip0_910_7998)">
<path d="M13.3275 10.1875C12.837 10.6804 12.271 11.0865 11.6524 11.3895C10.8239 11.7937 9.91882 12.0034 9.0023 12.0034C8.08578 12.0034 7.18068 11.7937 6.35225 11.3895C5.73359 11.0865 5.16762 10.6804 4.6771 10.1875C3.26167 10.9861 2.08062 12.1626 1.25773 13.5936C0.434848 15.0246 0.000427316 16.6576 0 18.3213V20.7057C0.503822 21.1118 4.01677 22.0016 9.0023 22.0016C13.9878 22.0016 17.4987 21.1118 18.0046 20.7057V18.3213C18.0042 16.6576 17.5698 15.0246 16.7469 13.5936C15.924 12.1626 14.7429 10.9861 13.3275 10.1875Z" fill="#92CBAF"/>
<path d="M5.114 9.507C5.21221 9.61248 5.31502 9.71111 5.4209 9.8071C6.41034 10.7051 7.68326 11.2004 9.00136 11.2004C10.3195 11.2004 11.5924 10.7051 12.5818 9.8071C12.6877 9.71111 12.7905 9.6109 12.8887 9.507C12.9869 9.4031 13.0729 9.305 13.1598 9.19899C13.9832 8.19148 14.4341 6.91589 14.4324 5.59834C14.4324 5.44539 14.4247 5.29455 14.413 5.14424C14.3023 3.7427 13.6842 2.43541 12.6816 1.48229C11.6789 0.529163 10.3651 0 9.00136 0C7.63763 0 6.32383 0.529163 5.32117 1.48229C4.3185 2.43541 3.7004 3.7427 3.58975 5.14424C3.57799 5.29455 3.57031 5.44539 3.57031 5.59834C3.56943 6.9153 4.02061 8.19007 4.84393 9.19688C4.93089 9.305 5.02091 9.40785 5.114 9.507Z" fill="#92CBAF"/>
</g>
<defs>
<clipPath id="clip0_910_7998">
<rect width="18" height="22" fill="white"/>
</clipPath>
</defs>
</svg>
