<svg width="38" height="22" viewBox="0 0 38 22" fill="none" xmlns="http://www.w3.org/2000/svg">
<g clip-path="url(#clip0_910_8010)">
<path d="M23.5345 1.52408L18.8892 0.0104389V0.0104389C18.8585 0.00360663 18.8264 0.00520501 18.7965 0.0150652L2.85951 5.26854C1.94576 5.56975 1.94286 6.86128 2.85524 7.16659L18.7953 12.5005C18.8257 12.5107 18.8587 12.5108 18.8892 12.5006V12.5006L19.5886 12.2605L34.8626 7.11202C35.7748 6.80453 35.7683 5.512 34.8531 5.21365L23.5345 1.52408Z" fill="#92CBAF"/>
<path d="M19.5877 13.4162L18.8883 13.6511V13.6511C18.8578 13.6613 18.8248 13.6612 18.7943 13.651L9.08293 10.4017C8.43519 10.185 7.76562 10.667 7.76562 11.35V21.0022C7.76562 21.5545 8.21334 22.0022 8.76562 22.0022H28.7656C29.3179 22.0022 29.7656 21.5545 29.7656 21.0022V11.3746C29.7656 10.6905 29.0941 10.2084 28.4459 10.4271L19.5877 13.4162Z" fill="#92CBAF"/>
<path d="M35.5328 16.7296C35.5328 16.9285 35.3715 17.0897 35.1726 17.0897V17.0897C34.9737 17.0897 34.8125 16.9285 34.8125 16.7296V8.48314C34.8125 8.32984 34.9095 8.19334 35.0543 8.14298V8.14298C35.2884 8.06158 35.5328 8.23535 35.5328 8.48314V16.7296Z" fill="#92CBAF"/>
<path d="M36.0296 18.2392C36.0296 18.4626 35.9413 18.6769 35.7838 18.8353C35.6264 18.9937 35.4127 19.0834 35.1893 19.0848L-nan -nanL-nan -nanL35.1893 19.0848C35.0783 19.0848 34.9683 19.0629 34.8657 19.0204C34.7631 18.9779 34.6699 18.9157 34.5914 18.8371C34.5129 18.7586 34.4506 18.6654 34.4081 18.5628C34.3656 18.4602 34.3438 18.3503 34.3438 18.2392V16.7987C34.3438 16.6876 34.3656 16.5777 34.4081 16.4751C34.4506 16.3725 34.5129 16.2793 34.5914 16.2008C34.6699 16.1223 34.7631 16.06 34.8657 16.0175C34.9683 15.975 35.0783 15.9531 35.1893 15.9531L-nan -nanL-nan -nanL35.1893 15.9531C35.4127 15.9545 35.6264 16.0442 35.7838 16.2026C35.9413 16.361 36.0296 16.5753 36.0296 16.7987V18.2392Z" fill="#92CBAF"/>
</g>
<defs>
<clipPath id="clip0_910_8010">
<rect width="37.721" height="22" rx="5" fill="white"/>
</clipPath>
</defs>
</svg>
