<svg width="29" height="20" viewBox="0 0 29 20" fill="none" xmlns="http://www.w3.org/2000/svg">
<g clip-path="url(#clip0_910_8005)">
<path d="M28.5932 7.81179C28.5932 7.28045 28.3826 6.77078 28.0075 6.39449C27.6323 6.01819 27.1233 5.80595 26.592 5.8043H24.3102L23.3501 3.08611C23.0365 2.19367 22.4537 1.42053 21.6821 0.873356C20.9104 0.326187 19.988 0.0319586 19.0421 0.03125H9.54709C8.60116 0.0319586 7.67875 0.326187 6.90713 0.873356C6.13551 1.42053 5.5527 2.19367 5.23911 3.08611L4.27901 5.83549H1.99721C1.48495 5.86407 1.00307 6.0877 0.650536 6.46045C0.297999 6.83321 0.101562 7.32679 0.101562 7.83985C0.101562 8.35291 0.297999 8.84649 0.650536 9.21925C1.00307 9.592 1.48495 9.81563 1.99721 9.84421H2.81392C2.24805 10.354 1.79576 10.9772 1.48643 11.6732C1.17709 12.3692 1.01763 13.1225 1.01841 13.8841V18.3355C1.01841 18.7836 1.19641 19.2133 1.51326 19.5302C1.83011 19.847 2.25985 20.025 2.70794 20.025H7.52714C7.75114 20.0242 7.97273 19.9789 8.17905 19.8917C8.38537 19.8045 8.57228 19.6771 8.72892 19.517C8.88556 19.3568 9.0088 19.1672 9.09146 18.959C9.17412 18.7508 9.21457 18.5283 9.21043 18.3043V17.126H19.3663V18.3043C19.3663 18.7524 19.5443 19.1821 19.8611 19.499C20.178 19.8158 20.6077 19.9938 21.0558 19.9938H25.875C26.3231 19.9938 26.7528 19.8158 27.0697 19.499C27.3865 19.1821 27.5645 18.7524 27.5645 18.3043V13.8529C27.5653 13.0913 27.4059 12.338 27.0965 11.642C26.7872 10.946 26.3349 10.3229 25.769 9.81305H26.5857C26.8491 9.81387 27.11 9.7627 27.3535 9.66249C27.597 9.56229 27.8184 9.41502 28.0049 9.2291C28.1914 9.04319 28.3393 8.82229 28.4403 8.57908C28.5413 8.33587 28.5932 8.07512 28.5932 7.81179ZM8.73661 13.1983H4.70295V11.6397H8.73661V13.1983ZM5.61941 7.67463L7.02215 3.67215C7.20586 3.14567 7.54882 2.68938 8.00347 2.36655C8.45812 2.04371 9.00195 1.87031 9.55956 1.87039H19.0421C19.6003 1.87085 20.1447 2.04437 20.6003 2.36704C21.0558 2.68972 21.4001 3.14568 21.5857 3.67215L22.9885 7.67463H5.61941ZM23.8987 13.1983H19.8526V11.6397H23.8862L23.8987 13.1983Z" fill="#E3E3E3"/>
</g>
<defs>
<clipPath id="clip0_910_8005">
<rect width="28.5973" height="20" fill="white"/>
</clipPath>
</defs>
</svg>
