<svg width="22" height="22" viewBox="0 0 22 22" fill="none" xmlns="http://www.w3.org/2000/svg">
<path d="M18.2744 21.0003H3.50587C2.06204 21.0003 0.890137 19.8207 0.890137 18.3673V5.97284C0.890137 4.51948 2.06204 3.33984 3.50587 3.33984H18.2744C19.7182 3.33984 20.8901 4.51948 20.8901 5.97284V18.3608C20.8901 19.8207 19.7182 21.0003 18.2744 21.0003Z" fill="white" stroke="#002D72" stroke-width="1.5" stroke-miterlimit="10"/>
<path d="M0.890137 9.55908C0.890137 9.55908 20.8901 9.6353 20.8901 9.55908" stroke="#002D72" stroke-width="1.5" stroke-miterlimit="10"/>
<path d="M6.26318 5.05615V1" stroke="#002D72" stroke-width="1.5" stroke-miterlimit="10" stroke-linecap="round"/>
<path d="M15.6655 5.05615V1" stroke="#002D72" stroke-width="1.5" stroke-miterlimit="10" stroke-linecap="round"/>
<path d="M15.939 17.3511H14.0476C13.4582 17.3511 12.9785 16.8682 12.9785 16.275V14.371C12.9785 13.7778 13.4582 13.2949 14.0476 13.2949H15.939C16.5284 13.2949 17.0081 13.7778 17.0081 14.371V16.275C17.0081 16.8682 16.5284 17.3511 15.939 17.3511Z" fill="#002D72"/>
</svg>
