<svg width="11" height="13" viewBox="0 0 11 13" fill="none" xmlns="http://www.w3.org/2000/svg">
<path d="M5.5 10.8745C8.53757 10.8745 11 8.44018 11 5.43726C11 2.43435 8.53757 0 5.5 0C2.46243 0 0 2.43435 0 5.43726C0 8.44018 2.46243 10.8745 5.5 10.8745Z" fill="#328BF2"/>
<path d="M5.49972 7.22097C6.49626 7.22097 7.30412 6.42232 7.30412 5.43714C7.30412 4.45196 6.49626 3.65332 5.49972 3.65332C4.50317 3.65332 3.69531 4.45196 3.69531 5.43714C3.69531 6.42232 4.50317 7.22097 5.49972 7.22097Z" fill="white"/>
<path d="M7.1893 9.9273L5.84674 8.6884C5.65435 8.51142 5.34485 8.51142 5.15246 8.6884L3.8099 9.92345C3.63424 10.085 3.61751 10.3467 3.77644 10.5275L5.119 12.055C5.31557 12.2781 5.68363 12.2781 5.8802 12.055L7.22276 10.5275C7.38169 10.3505 7.36915 10.0889 7.1893 9.9273Z" fill="#328BF2"/>
</svg>
