<svg width="320" height="660" viewBox="0 0 320 660" fill="none" xmlns="http://www.w3.org/2000/svg">
<rect x="0.5" y="0.5" width="319" height="659" stroke="#EAEAEA"/>
<path d="M116.644 406.96H111.604V405.532H115.328V404.664H108.02V402.396H115.244V401.528H106.956V405.532H110.568V406.96H105.556V407.828H116.644V406.96ZM106.872 410.908C106.886 412.308 108.454 413.092 111.072 413.092C113.69 413.092 115.258 412.308 115.272 410.908C115.258 409.522 113.69 408.724 111.072 408.724C108.454 408.724 106.886 409.522 106.872 410.908ZM107.964 410.908C107.964 410.068 109.126 409.564 111.072 409.564C113.004 409.564 114.18 410.068 114.18 410.908C114.18 411.762 113.004 412.252 111.072 412.252C109.126 412.252 107.964 411.762 107.964 410.908ZM127.147 400.968H126.083V409.9H127.147V405.56H128.967V404.636H127.147V400.968ZM118.159 407.856H123.815V401.836H122.751V403.88H119.223V401.836H118.159V407.856ZM119.223 406.96V404.748H122.751V406.96H119.223ZM119.531 412.84H127.707V411.944H120.595V409.032H119.531V412.84ZM133.927 402.872V401.668H132.863V402.9C132.849 404.79 131.603 406.414 129.727 407.072L130.315 407.94C131.785 407.394 132.891 406.26 133.409 404.804C133.941 406.078 134.991 407.072 136.335 407.576L136.951 406.736C135.145 406.134 133.913 404.608 133.927 402.872ZM131.715 410.824C131.701 412.266 133.255 413.078 135.775 413.092C138.309 413.078 139.863 412.266 139.863 410.824C139.863 409.354 138.309 408.514 135.775 408.5C133.255 408.514 131.701 409.354 131.715 410.824ZM132.779 410.824C132.765 409.9 133.927 409.354 135.775 409.368C137.637 409.354 138.799 409.9 138.799 410.824C138.799 411.692 137.637 412.224 135.775 412.224C133.927 412.224 132.765 411.692 132.779 410.824ZM136.027 404.44H138.743V408.164H139.807V400.968H138.743V403.572H136.027V404.44ZM145.971 403.264V402.76H148.687V401.864H142.135V402.76H144.907V403.264C144.893 405.014 143.619 406.582 141.799 407.212L142.359 408.052C143.801 407.534 144.935 406.456 145.453 405.07C145.985 406.274 147.035 407.24 148.435 407.716L148.939 406.876C147.147 406.274 145.957 404.86 145.971 403.264ZM143.423 410.852C143.423 412.266 144.949 413.078 147.455 413.092C149.947 413.078 151.459 412.266 151.459 410.852C151.459 409.438 149.947 408.626 147.455 408.612C144.949 408.626 143.423 409.438 143.423 410.852ZM144.487 410.852C144.487 409.984 145.621 409.48 147.455 409.48C149.289 409.48 150.409 409.984 150.423 410.852C150.409 411.706 149.289 412.224 147.455 412.224C145.621 412.224 144.487 411.706 144.487 410.852ZM150.283 408.304H151.347V404.972H153.167V404.076H151.347V400.968H150.283V408.304ZM161.598 403.236V401.696H160.534V403.208C160.534 405.084 159.274 406.778 157.454 407.436L158.042 408.304C159.47 407.744 160.576 406.582 161.08 405.112C161.612 406.442 162.676 407.492 164.006 408.024L164.594 407.184C162.83 406.54 161.598 404.944 161.598 403.236ZM159.666 412.84H167.786V411.944H160.73V409.032H159.666V412.84ZM163.726 404.72H166.442V410.068H167.506V400.968H166.442V403.824H163.726V404.72ZM175.63 401.864V401.276H174.538V401.864C174.538 403.516 172.34 404.93 170.198 405.252L170.646 406.12C172.494 405.798 174.328 404.776 175.084 403.334C175.868 404.748 177.688 405.77 179.522 406.092L179.97 405.252C177.842 404.916 175.63 403.474 175.63 401.864ZM169.526 408.024H174.65V410.516H175.714V408.024H180.642V407.156H169.526V408.024ZM170.954 412.84H179.41V411.944H172.018V409.34H170.954V412.84ZM191.117 400.968H190.053V410.46H191.117V406.12H192.937V405.224H191.117V400.968ZM181.597 408.192L181.709 409.06C183.837 409.046 186.791 409.004 189.381 408.528L189.297 407.744C188.247 407.912 187.099 408.01 185.965 408.08V407.212C187.365 407.058 188.247 406.386 188.261 405.364C188.247 404.202 187.127 403.488 185.405 403.488C183.697 403.488 182.549 404.202 182.549 405.364C182.549 406.386 183.459 407.072 184.873 407.212V408.122C183.683 408.178 182.563 408.192 181.597 408.192ZM181.905 402.956H188.933V402.144H185.965V400.912H184.873V402.144H181.905V402.956ZM183.417 412.84H191.565V411.944H184.481V409.816H183.417V412.84ZM183.585 405.364C183.571 404.678 184.285 404.258 185.405 404.244C186.525 404.258 187.225 404.678 187.225 405.364C187.225 406.036 186.525 406.456 185.405 406.456C184.285 406.456 183.571 406.036 183.585 405.364ZM206.997 402.2H198.429V403.068H205.905V403.404C205.905 404.86 205.905 406.554 205.457 408.864L206.521 409.004C206.983 406.554 206.983 404.888 206.997 403.404V402.2ZM197.253 411.384H208.313V410.488H202.657V406.148H201.593V410.488H197.253V411.384ZM219.377 400.968H218.313V413.12H219.377V400.968ZM210.025 402.984H214.589V405.532H210.053V410.18H211.061C213.161 410.18 215.009 410.096 217.249 409.732L217.137 408.836C214.953 409.2 213.175 409.284 211.145 409.284V406.4H215.681V402.088H210.025V402.984Z" fill="#111111"/>
<circle cx="160" cy="313" r="72.5" transform="rotate(90 160 313)" stroke="#99ABC7" stroke-width="5" stroke-dasharray="4 4"/>
<path fill-rule="evenodd" clip-rule="evenodd" d="M235 313C235 271.579 201.422 238 160 238C118.579 238 85.0007 271.579 85.0007 313L90.0007 313C90.0007 274.34 121.341 243 160 243C198.66 243 230 274.34 230 313L235 313Z" fill="#002D72"/>
<g clip-path="url(#clip0_641_3235)">
<path d="M181.399 292.779L180.514 293.662L181.399 292.779ZM181.399 334.22L180.514 333.338L181.399 334.22ZM161.565 344.248C162.254 344.215 162.787 343.63 162.755 342.94C162.722 342.25 162.137 341.718 161.447 341.75L161.565 344.248ZM165.131 341.34C164.451 341.46 163.998 342.108 164.118 342.788C164.238 343.468 164.886 343.922 165.566 343.802L165.131 341.34ZM167.537 343.388C168.208 343.225 168.619 342.549 168.456 341.878C168.293 341.207 167.617 340.796 166.946 340.959L167.537 343.388ZM170.484 339.854C169.839 340.102 169.518 340.825 169.765 341.469C170.013 342.114 170.736 342.435 171.38 342.188L170.484 339.854ZM173.236 341.405C173.864 341.117 174.138 340.375 173.85 339.747C173.562 339.12 172.819 338.845 172.192 339.134L173.236 341.405ZM175.452 337.373C174.867 337.739 174.69 338.511 175.057 339.096C175.423 339.681 176.195 339.858 176.78 339.491L175.452 337.373ZM178.452 338.367C179.012 337.963 179.139 337.182 178.735 336.622C178.332 336.062 177.55 335.935 176.99 336.338L178.452 338.367ZM179.849 333.983C179.346 334.456 179.321 335.247 179.794 335.75C180.266 336.253 181.057 336.278 181.561 335.805L179.849 333.983ZM182.979 334.384C183.45 333.88 183.424 333.089 182.92 332.618C182.415 332.146 181.624 332.172 181.153 332.677L182.979 334.384ZM183.483 329.838C183.08 330.399 183.209 331.18 183.769 331.582C184.33 331.985 185.111 331.856 185.514 331.295L183.483 329.838ZM186.626 329.634C186.991 329.048 186.812 328.277 186.226 327.912C185.64 327.547 184.869 327.726 184.504 328.312L186.626 329.634ZM186.239 325.076C185.953 325.705 186.231 326.446 186.859 326.732C187.488 327.017 188.229 326.74 188.515 326.111L186.239 325.076ZM189.282 324.265C189.527 323.619 189.201 322.898 188.555 322.654C187.91 322.409 187.188 322.735 186.944 323.381L189.282 324.265ZM188.014 319.87C187.857 320.542 188.274 321.215 188.946 321.372C189.618 321.53 190.291 321.113 190.448 320.441L188.014 319.87ZM190.84 318.479C190.953 317.798 190.493 317.155 189.812 317.041C189.131 316.928 188.487 317.389 188.374 318.07L190.84 318.479ZM188.736 314.418C188.713 315.108 189.254 315.686 189.944 315.709C190.634 315.731 191.212 315.19 191.234 314.5L188.736 314.418ZM191.234 312.5C191.212 311.81 190.634 311.269 189.944 311.291C189.254 311.314 188.713 311.892 188.736 312.582L191.234 312.5ZM188.374 308.93C188.487 309.611 189.131 310.072 189.812 309.959C190.493 309.846 190.953 309.202 190.84 308.521L188.374 308.93ZM190.448 306.559C190.291 305.887 189.618 305.47 188.946 305.628C188.274 305.785 187.857 306.458 188.014 307.13L190.448 306.559ZM186.944 303.619C187.188 304.265 187.91 304.591 188.555 304.346C189.201 304.102 189.527 303.381 189.282 302.735L186.944 303.619ZM188.515 300.889C188.229 300.26 187.488 299.983 186.859 300.268C186.231 300.554 185.953 301.295 186.239 301.924L188.515 300.889ZM184.504 298.688C184.869 299.274 185.64 299.453 186.226 299.088C186.812 298.723 186.991 297.952 186.626 297.366L184.504 298.688ZM185.514 295.705C185.111 295.144 184.33 295.015 183.769 295.418C183.209 295.82 183.08 296.601 183.483 297.162L185.514 295.705ZM181.153 294.323C181.624 294.828 182.415 294.854 182.92 294.382C183.424 293.911 183.45 293.12 182.979 292.616L181.153 294.323ZM181.561 291.195C181.057 290.722 180.266 290.747 179.794 291.25C179.321 291.753 179.346 292.544 179.849 293.017L181.561 291.195ZM176.99 290.662C177.55 291.065 178.332 290.938 178.735 290.378C179.139 289.818 179.012 289.037 178.452 288.633L176.99 290.662ZM176.78 287.509C176.195 287.142 175.423 287.319 175.057 287.904C174.69 288.489 174.867 289.261 175.452 289.627L176.78 287.509ZM172.192 287.866C172.819 288.155 173.562 287.88 173.85 287.253C174.138 286.625 173.864 285.883 173.236 285.595L172.192 287.866ZM171.38 284.812C170.736 284.565 170.013 284.886 169.765 285.531C169.518 286.175 169.839 286.898 170.484 287.146L171.38 284.812ZM166.946 286.041C167.617 286.204 168.293 285.793 168.456 285.122C168.619 284.451 168.208 283.775 167.537 283.612L166.946 286.041ZM165.566 283.198C164.886 283.078 164.238 283.532 164.118 284.212C163.998 284.892 164.451 285.54 165.131 285.66L165.566 283.198ZM161.447 285.25C162.137 285.282 162.722 284.75 162.755 284.06C162.787 283.37 162.254 282.785 161.565 282.752L161.447 285.25ZM160.558 344.279C160.894 344.274 161.23 344.263 161.565 344.248L161.447 341.75C161.139 341.765 160.83 341.775 160.52 341.779L160.558 344.279ZM165.566 343.802C166.228 343.685 166.886 343.547 167.537 343.388L166.946 340.959C166.346 341.105 165.741 341.232 165.131 341.34L165.566 343.802ZM171.38 342.188C172.007 341.947 172.626 341.686 173.236 341.405L172.192 339.134C171.631 339.392 171.061 339.632 170.484 339.854L171.38 342.188ZM176.78 339.491C177.348 339.135 177.906 338.76 178.452 338.367L176.99 336.338C176.488 336.7 175.975 337.045 175.452 337.373L176.78 339.491ZM181.561 335.805C181.805 335.576 182.046 335.342 182.284 335.103L180.514 333.338C180.296 333.557 180.074 333.772 179.849 333.983L181.561 335.805ZM182.284 335.103C182.52 334.867 182.751 334.627 182.979 334.384L181.153 332.677C180.944 332.9 180.731 333.12 180.514 333.338L182.284 335.103ZM185.514 331.295C185.903 330.753 186.274 330.199 186.626 329.634L184.504 328.312C184.181 328.83 183.84 329.339 183.483 329.838L185.514 331.295ZM188.515 326.111C188.791 325.504 189.047 324.888 189.282 324.265L186.944 323.381C186.728 323.953 186.492 324.519 186.239 325.076L188.515 326.111ZM190.448 320.441C190.6 319.792 190.731 319.138 190.84 318.479L188.374 318.07C188.274 318.675 188.154 319.275 188.014 319.87L190.448 320.441ZM191.234 314.5C191.245 314.168 191.251 313.834 191.251 313.5L188.751 313.5C188.751 313.807 188.746 314.113 188.736 314.418L191.234 314.5ZM191.251 313.5C191.251 313.166 191.245 312.833 191.234 312.5L188.736 312.582C188.746 312.887 188.751 313.193 188.751 313.5L191.251 313.5ZM190.84 308.521C190.731 307.862 190.6 307.208 190.448 306.559L188.014 307.13C188.154 307.725 188.274 308.325 188.374 308.93L190.84 308.521ZM189.282 302.735C189.047 302.112 188.791 301.496 188.515 300.889L186.239 301.924C186.492 302.481 186.728 303.047 186.944 303.619L189.282 302.735ZM186.626 297.366C186.274 296.801 185.903 296.247 185.514 295.705L183.483 297.162C183.84 297.661 184.181 298.17 184.504 298.688L186.626 297.366ZM182.979 292.616C182.751 292.373 182.52 292.133 182.284 291.897L180.514 293.662C180.731 293.88 180.944 294.1 181.153 294.323L182.979 292.616ZM182.284 291.897C182.046 291.658 181.805 291.424 181.561 291.195L179.849 293.017C180.074 293.228 180.296 293.443 180.514 293.662L182.284 291.897ZM178.452 288.633C177.906 288.24 177.348 287.865 176.78 287.509L175.452 289.627C175.975 289.955 176.488 290.3 176.99 290.662L178.452 288.633ZM173.236 285.595C172.626 285.314 172.007 285.053 171.38 284.812L170.484 287.146C171.061 287.368 171.631 287.608 172.192 287.866L173.236 285.595ZM167.537 283.612C166.886 283.453 166.228 283.315 165.566 283.198L165.131 285.66C165.741 285.768 166.346 285.895 166.946 286.041L167.537 283.612ZM161.565 282.752C161.23 282.737 160.894 282.726 160.558 282.721L160.52 285.221C160.83 285.225 161.139 285.235 161.447 285.25L161.565 282.752Z" fill="#AAAAAA"/>
<path d="M160.54 343.029C152.685 342.909 145.192 339.745 139.68 334.22C134.168 328.696 131.078 321.253 131.078 313.5C131.078 305.747 134.168 298.304 139.68 292.779C145.192 287.255 152.685 284.091 160.54 283.971" stroke="#002D72" stroke-width="3"/>
<path d="M160.539 328.501C162.534 328.501 164.51 328.113 166.354 327.359C168.198 326.606 169.873 325.501 171.284 324.109C172.695 322.716 173.814 321.063 174.578 319.243C175.341 317.424 175.734 315.474 175.734 313.505L168.226 313.505C168.226 321.785 164.784 328.501 160.539 328.501Z" stroke="#002D72" stroke-width="3"/>
<path d="M168.226 313.504L175.734 313.504C175.734 311.534 175.341 309.584 174.578 307.765C173.814 305.945 172.695 304.292 171.284 302.9C169.873 301.507 168.198 300.402 166.354 299.649C164.51 298.895 162.534 298.507 160.539 298.507C164.784 298.507 168.226 305.223 168.226 313.504Z" stroke="#002D72" stroke-width="3"/>
<path d="M160.539 298.507C156.509 298.507 152.644 300.087 149.794 302.9C146.944 305.712 145.343 309.526 145.343 313.504L152.844 313.504C152.844 305.223 156.294 298.507 160.539 298.507Z" stroke="#002D72" stroke-width="3"/>
<path d="M160.539 328.501C156.294 328.501 152.844 321.785 152.844 313.505L145.343 313.505C145.343 315.474 145.737 317.424 146.5 319.243C147.264 321.063 148.383 322.716 149.794 324.109C151.205 325.501 152.88 326.606 154.724 327.359C156.568 328.113 158.544 328.501 160.539 328.501Z" stroke="#002D72" stroke-width="3"/>
<path d="M168.227 313.505L160.539 313.505L160.539 328.501C164.784 328.501 168.227 321.785 168.227 313.505Z" stroke="#002D72" stroke-width="3"/>
<path d="M152.844 313.505C152.844 321.785 156.294 328.501 160.539 328.501L160.539 313.505L152.844 313.505Z" stroke="#002D72" stroke-width="3"/>
<path d="M168.227 313.504C168.227 305.223 164.784 298.507 160.539 298.507L160.539 313.504L168.227 313.504Z" stroke="#002D72" stroke-width="3"/>
<path d="M152.844 313.504L160.539 313.504L160.539 298.507C156.294 298.507 152.844 305.223 152.844 313.504Z" stroke="#002D72" stroke-width="3"/>
<path d="M124.455 306.2L113.727 313.504L124.455 320.8L124.455 316.801L137.793 316.801L137.793 310.206L124.455 310.206L124.455 306.2Z" fill="#002D72" stroke="#002D72" stroke-width="3"/>
<path d="M196.76 320.982L207.481 313.678L196.76 306.382L196.76 310.388L183.422 310.388L183.422 316.983L196.76 316.983L196.76 320.982Z" fill="#99ABC7" stroke="#002D72" stroke-width="2.5"/>
</g>
<path d="M149.743 171.2H146.887V169.856H145.823V171.2H142.855V172.068H149.743V171.2ZM143.583 174.868C143.569 176.17 144.689 177.038 146.327 177.024C147.965 177.038 149.099 176.17 149.099 174.868C149.099 173.538 147.965 172.67 146.327 172.656C144.689 172.67 143.569 173.538 143.583 174.868ZM144.591 174.868C144.577 174.042 145.277 173.496 146.327 173.496C147.377 173.496 148.091 174.042 148.091 174.868C148.091 175.666 147.377 176.226 146.327 176.212C145.277 176.226 144.577 175.666 144.591 174.868ZM145.011 181.952H152.907V177.668H151.843V178.928H146.075V177.668H145.011V181.952ZM146.075 181.084V179.768H151.843V181.084H146.075ZM149.715 176.072H151.843V177.136H152.907V169.968H151.843V172.796H149.715V173.692H151.843V175.176H149.715V176.072ZM160.694 170.696H155.43V171.564H159.63V173.272H155.458V176.884H156.326C158.776 176.87 160.022 176.828 161.534 176.576L161.422 175.68C159.994 175.946 158.818 176.002 156.522 175.988V174.112H160.694V170.696ZM156.83 178.956H163.942V182.12H165.006V178.088H156.83V178.956ZM161.506 175.176H163.942V177.444H165.006V169.968H163.942V171.788H161.506V172.656H163.942V174.28H161.506V175.176ZM171.114 173.216V171.004H170.05V173.216C170.05 175.442 168.636 177.766 166.858 178.648L167.558 179.516C168.916 178.774 170.064 177.248 170.61 175.456C171.156 177.15 172.262 178.578 173.606 179.292L174.278 178.424C172.528 177.57 171.114 175.358 171.114 173.216ZM175.37 182.12H176.462V175.82H178.478V174.896H176.462V169.968H175.37V182.12Z" fill="#111111"/>
<circle cx="160" cy="97" r="57.5" stroke="#002D72" stroke-width="5"/>
<path d="M150.347 79.5039L137.102 92.7853C136.827 93.0609 136.609 93.3882 136.46 93.7483C136.311 94.1085 136.234 94.4945 136.234 94.8843C136.234 95.2742 136.311 95.6602 136.46 96.0204C136.609 96.3805 136.827 96.7078 137.102 96.9834L155.023 114.944L161.385 121.32C161.929 121.885 162.662 122.227 163.443 122.282C164.225 122.336 164.998 122.099 165.615 121.615C165.948 121.342 166.22 121.003 166.414 120.618C166.607 120.233 166.718 119.812 166.74 119.381C166.761 118.951 166.692 118.521 166.537 118.118C166.383 117.716 166.145 117.351 165.841 117.046C166.426 117.592 167.2 117.89 167.999 117.876C168.798 117.862 169.561 117.537 170.126 116.971C170.691 116.404 171.015 115.64 171.029 114.839C171.043 114.038 170.747 113.263 170.202 112.676C170.484 112.98 170.825 113.224 171.203 113.393C171.581 113.562 171.99 113.653 172.404 113.66C172.818 113.667 173.23 113.591 173.614 113.435C173.998 113.28 174.347 113.049 174.64 112.755C174.933 112.461 175.164 112.112 175.319 111.727C175.474 111.342 175.551 110.929 175.543 110.514C175.536 110.099 175.445 109.69 175.277 109.31C175.108 108.931 174.865 108.59 174.562 108.307C175.14 108.883 175.923 109.207 176.739 109.207C177.554 109.207 178.337 108.883 178.915 108.307C179.202 108.02 179.43 107.679 179.585 107.305C179.74 106.93 179.82 106.528 179.82 106.122C179.82 105.716 179.74 105.314 179.585 104.939C179.43 104.564 179.202 104.223 178.915 103.937L176.742 101.752L154.543 79.5039C153.986 78.9468 153.232 78.6338 152.445 78.6338C151.659 78.6338 150.904 78.9468 150.347 79.5039V79.5039Z" fill="white" stroke="#002D72" stroke-width="2.5" stroke-linejoin="round"/>
<path d="M152.472 118.998C151.267 120.206 151.266 122.162 152.469 123.368C153.673 124.574 155.625 124.573 156.83 123.366L161.101 119.086C162.306 117.878 162.307 115.922 161.103 114.716C159.9 113.509 157.947 113.51 156.743 114.718L152.472 118.998Z" fill="white" stroke="#002D72" stroke-width="2.5" stroke-linejoin="round"/>
<path d="M148.112 114.631C146.908 115.839 146.907 117.795 148.11 119.002C149.313 120.208 151.266 120.207 152.471 118.999L156.741 114.719C157.946 113.511 157.947 111.555 156.744 110.349C155.54 109.143 153.588 109.144 152.383 110.351L148.112 114.631Z" fill="white" stroke="#002D72" stroke-width="2.5" stroke-linejoin="round"/>
<path d="M143.745 110.258C142.54 111.465 142.539 113.422 143.743 114.628C144.946 115.834 146.899 115.833 148.103 114.625L152.374 110.345C153.579 109.138 153.58 107.181 152.377 105.975C151.173 104.769 149.221 104.77 148.016 105.977L143.745 110.258Z" fill="white" stroke="#002D72" stroke-width="2.5" stroke-linejoin="round"/>
<path d="M139.386 105.891C138.181 107.098 138.18 109.055 139.383 110.261C140.587 111.467 142.539 111.466 143.744 110.259L148.015 105.978C149.22 104.771 149.221 102.814 148.017 101.608C146.814 100.402 144.862 100.403 143.657 101.611L139.386 105.891Z" fill="white" stroke="#002D72" stroke-width="2.5" stroke-linejoin="round"/>
<path d="M165.822 79.4009L162.298 82.9325L160.131 85.1037L156.018 89.2262L155.922 99.6974C155.922 100.112 156.005 100.522 156.166 100.903C156.327 101.285 156.562 101.63 156.859 101.918C157.156 102.207 157.507 102.433 157.893 102.582C158.278 102.732 158.69 102.802 159.103 102.789C159.918 102.742 160.683 102.381 161.238 101.781C161.794 101.182 162.097 100.392 162.085 99.5737V96.1383C162.087 94.9789 162.434 93.8466 163.083 92.8867C163.732 91.9268 164.652 91.1832 165.726 90.7515L177.593 102.583L183.283 96.8803C183.839 96.3225 184.151 95.5663 184.151 94.7779C184.151 93.9894 183.839 93.2332 183.283 92.6754L170.031 79.4009C169.756 79.1221 169.428 78.9008 169.067 78.7498C168.705 78.5987 168.318 78.521 167.926 78.521C167.535 78.521 167.147 78.5987 166.786 78.7498C166.425 78.9008 166.097 79.1221 165.822 79.4009V79.4009Z" fill="white" stroke="#002D72" stroke-width="2.5" stroke-linejoin="round"/>
<path d="M165.832 117.039L160.992 112.189" stroke="#002D72" stroke-width="2.5" stroke-linejoin="round"/>
<path d="M170.192 112.67L165.352 107.819" stroke="#002D72" stroke-width="2.5" stroke-linejoin="round"/>
<path d="M174.551 108.3L169.711 103.449" stroke="#002D72" stroke-width="2.5" stroke-linejoin="round"/>
<path d="M145.438 74.1934L131.719 87.9427L136.823 93.0587L150.543 79.3093L145.438 74.1934Z" fill="#99ABC7" stroke="#002D72" stroke-width="2.5" stroke-linejoin="round"/>
<path d="M169.453 78.8406L183.172 92.59L188.277 87.4741L174.557 73.7247L169.453 78.8406Z" fill="#99ABC7" stroke="#002D72" stroke-width="2.5" stroke-linejoin="round"/>
<rect x="163" y="207" width="31" height="5" transform="rotate(90 163 207)" fill="#002D72"/>
<circle cx="160" cy="529" r="57.5" stroke="#99ABC7" stroke-width="5"/>
<g clip-path="url(#clip1_641_3235)">
<path d="M174.786 522.8V512.688L165.3 522.8V512.688L155.814 522.8V512.688L145.25 523.95V551.252H184.272V512.688L174.786 522.8Z" fill="white" stroke="#002D72" stroke-width="2.5"/>
<path d="M148.745 506.748H135.727V551.252H148.745V506.748Z" fill="#99ABC7" stroke="#002D72" stroke-width="2.5"/>
<path d="M144.104 511.281H140.367V516.268H144.104V511.281Z" fill="white" stroke="#002D72" stroke-width="2.5"/>
<path d="M144.104 519.795H140.367V524.782H144.104V519.795Z" fill="white" stroke="#002D72" stroke-width="2.5"/>
<path d="M144.104 528.308H140.367V533.296H144.104V528.308Z" fill="white" stroke="#002D72" stroke-width="2.5"/>
<path d="M144.104 536.822H140.367V541.81H144.104V536.822Z" fill="white" stroke="#002D72" stroke-width="2.5"/>
<path d="M178.729 529.823H154.266V532.613H178.729V529.823Z" fill="white" stroke="#002D72" stroke-width="2.5"/>
<path d="M178.729 535.966H154.266V538.756H178.729V535.966Z" fill="white" stroke="#002D72" stroke-width="2.5"/>
</g>
<rect x="163" y="438" width="31" height="5" transform="rotate(90 163 438)" fill="#99ABC7"/>
<path d="M146.556 601.968H145.492V605.216H143.364V606.084H145.492V607.736H143.364V608.632H145.492V611.236H146.556V601.968ZM136.504 604.348H143.392V603.452H140.536V601.968H139.472V603.452H136.504V604.348ZM137.232 607.316C137.218 608.702 138.352 609.64 139.976 609.64C141.614 609.64 142.748 608.702 142.748 607.316C142.748 605.93 141.614 605.006 139.976 604.992C138.352 605.006 137.218 605.93 137.232 607.316ZM138.24 607.316C138.226 606.448 138.94 605.86 139.976 605.86C141.012 605.86 141.74 606.448 141.74 607.316C141.74 608.198 141.012 608.8 139.976 608.8C138.94 608.8 138.226 608.198 138.24 607.316ZM138.716 613.84H146.836V612.944H139.78V610.424H138.716V613.84ZM158.964 601.968H157.956V606.84H156.164V602.22H155.184V613.476H156.164V607.736H157.956V614.12H158.964V601.968ZM149.024 611.096H149.808C151.684 611.096 152.93 611.04 154.372 610.732L154.288 609.836C152.944 610.116 151.796 610.172 150.116 610.2V604.32H153.588V603.452H149.024V611.096ZM166.023 603.088H164.791V613H166.023V603.088ZM167.677 604.18H170.785V613H172.017V604.18H175.125V603.088H167.677V604.18ZM183.119 606.224H184.351C183.987 604.166 182.363 602.962 180.375 602.976C177.827 602.962 175.979 604.922 175.979 608.044C175.979 611.18 177.827 613.14 180.375 613.14C182.377 613.14 184.001 611.922 184.351 609.892H183.119C182.825 611.25 181.663 611.978 180.375 611.992C178.569 611.978 177.183 610.606 177.183 608.044C177.183 605.496 178.569 604.11 180.375 604.124C181.663 604.11 182.839 604.852 183.119 606.224Z" fill="#111111"/>
<defs>
<clipPath id="clip0_641_3235">
<rect width="63" height="100" fill="white" transform="translate(110 345) rotate(-90)"/>
</clipPath>
<clipPath id="clip1_641_3235">
<rect width="50" height="46" fill="white" transform="translate(135 506)"/>
</clipPath>
</defs>
</svg>
