<svg width="1440" height="400" viewBox="0 0 1440 400" fill="none" xmlns="http://www.w3.org/2000/svg">
<rect x="0.5" y="0.5" width="1439" height="399" stroke="#EAEAEA"/>
<path d="M660.399 320.52H653.919V318.684H658.707V317.568H649.311V314.652H658.599V313.536H647.943V318.684H652.587V320.52H646.143V321.636H660.399V320.52ZM647.835 325.596C647.853 327.396 649.869 328.404 653.235 328.404C656.601 328.404 658.617 327.396 658.635 325.596C658.617 323.814 656.601 322.788 653.235 322.788C649.869 322.788 647.853 323.814 647.835 325.596ZM649.239 325.596C649.239 324.516 650.733 323.868 653.235 323.868C655.719 323.868 657.231 324.516 657.231 325.596C657.231 326.694 655.719 327.324 653.235 327.324C650.733 327.324 649.239 326.694 649.239 325.596ZM673.904 312.816H672.536V324.3H673.904V318.72H676.244V317.532H673.904V312.816ZM662.348 321.672H669.62V313.932H668.252V316.56H663.716V313.932H662.348V321.672ZM663.716 320.52V317.676H668.252V320.52H663.716ZM664.112 328.08H674.624V326.928H665.48V323.184H664.112V328.08ZM682.62 315.264V313.716H681.252V315.3C681.234 317.73 679.632 319.818 677.22 320.664L677.976 321.78C679.866 321.078 681.288 319.62 681.954 317.748C682.638 319.386 683.988 320.664 685.716 321.312L686.508 320.232C684.186 319.458 682.602 317.496 682.62 315.264ZM679.776 325.488C679.758 327.342 681.756 328.386 684.996 328.404C688.254 328.386 690.252 327.342 690.252 325.488C690.252 323.598 688.254 322.518 684.996 322.5C681.756 322.518 679.758 323.598 679.776 325.488ZM681.144 325.488C681.126 324.3 682.62 323.598 684.996 323.616C687.39 323.598 688.884 324.3 688.884 325.488C688.884 326.604 687.39 327.288 684.996 327.288C682.62 327.288 681.126 326.604 681.144 325.488ZM685.32 317.28H688.812V322.068H690.18V312.816H688.812V316.164H685.32V317.28ZM698.105 315.768V315.12H701.597V313.968H693.173V315.12H696.737V315.768C696.719 318.018 695.081 320.034 692.741 320.844L693.461 321.924C695.315 321.258 696.773 319.872 697.439 318.09C698.123 319.638 699.473 320.88 701.273 321.492L701.921 320.412C699.617 319.638 698.087 317.82 698.105 315.768ZM694.829 325.524C694.829 327.342 696.791 328.386 700.013 328.404C703.217 328.386 705.161 327.342 705.161 325.524C705.161 323.706 703.217 322.662 700.013 322.644C696.791 322.662 694.829 323.706 694.829 325.524ZM696.197 325.524C696.197 324.408 697.655 323.76 700.013 323.76C702.371 323.76 703.811 324.408 703.829 325.524C703.811 326.622 702.371 327.288 700.013 327.288C697.655 327.288 696.197 326.622 696.197 325.524ZM703.649 322.248H705.017V317.964H707.357V316.812H705.017V312.816H703.649V322.248ZM718.198 315.732V313.752H716.83V315.696C716.83 318.108 715.21 320.286 712.87 321.132L713.626 322.248C715.462 321.528 716.884 320.034 717.532 318.144C718.216 319.854 719.584 321.204 721.294 321.888L722.05 320.808C719.782 319.98 718.198 317.928 718.198 315.732ZM715.714 328.08H726.154V326.928H717.082V323.184H715.714V328.08ZM720.934 317.64H724.426V324.516H725.794V312.816H724.426V316.488H720.934V317.64ZM736.238 313.968V313.212H734.834V313.968C734.834 316.092 732.008 317.91 729.254 318.324L729.83 319.44C732.206 319.026 734.564 317.712 735.536 315.858C736.544 317.676 738.884 318.99 741.242 319.404L741.818 318.324C739.082 317.892 736.238 316.038 736.238 313.968ZM728.39 321.888H734.978V325.092H736.346V321.888H742.682V320.772H728.39V321.888ZM730.226 328.08H741.098V326.928H731.594V323.58H730.226V328.08ZM756.151 312.816H754.783V325.02H756.151V319.44H758.491V318.288H756.151V312.816ZM743.911 322.104L744.055 323.22C746.791 323.202 750.589 323.148 753.919 322.536L753.811 321.528C752.461 321.744 750.985 321.87 749.527 321.96V320.844C751.327 320.646 752.461 319.782 752.479 318.468C752.461 316.974 751.021 316.056 748.807 316.056C746.611 316.056 745.135 316.974 745.135 318.468C745.135 319.782 746.305 320.664 748.123 320.844V322.014C746.593 322.086 745.153 322.104 743.911 322.104ZM744.307 315.372H753.343V314.328H749.527V312.744H748.123V314.328H744.307V315.372ZM746.251 328.08H756.727V326.928H747.619V324.192H746.251V328.08ZM746.467 318.468C746.449 317.586 747.367 317.046 748.807 317.028C750.247 317.046 751.147 317.586 751.147 318.468C751.147 319.332 750.247 319.872 748.807 319.872C747.367 319.872 746.449 319.332 746.467 318.468ZM776.568 314.4H765.552V315.516H775.164V315.948C775.164 317.82 775.164 319.998 774.588 322.968L775.956 323.148C776.55 319.998 776.55 317.856 776.568 315.948V314.4ZM764.04 326.208H778.26V325.056H770.988V319.476H769.62V325.056H764.04V326.208ZM792.484 312.816H791.116V328.44H792.484V312.816ZM780.46 315.408H786.328V318.684H780.496V324.66H781.792C784.492 324.66 786.868 324.552 789.748 324.084L789.604 322.932C786.796 323.4 784.51 323.508 781.9 323.508V319.8H787.732V314.256H780.46V315.408Z" fill="#111111"/>
<circle cx="720" cy="179" r="105" stroke="#99ABC7" stroke-width="10" stroke-dasharray="8 8"/>
<path fill-rule="evenodd" clip-rule="evenodd" d="M720 69C659.249 69 610 118.249 610 179C610 239.751 659.249 289 720 289V279C664.772 279 620 234.228 620 179C620 123.772 664.772 79 720 79V69Z" fill="#002D72"/>
<g clip-path="url(#clip0_641_3141)">
<path d="M748.03 151.067L748.916 150.186L748.03 151.067ZM748.03 206.933L747.143 206.051L748.03 206.933ZM721.813 219.992C722.502 219.952 723.028 219.361 722.988 218.671C722.948 217.982 722.357 217.456 721.668 217.496L721.813 219.992ZM728.311 216.536C727.639 216.693 727.221 217.365 727.378 218.037C727.534 218.71 728.206 219.128 728.879 218.971L728.311 216.536ZM732.321 218.012C732.977 217.798 733.336 217.093 733.122 216.436C732.909 215.78 732.203 215.421 731.547 215.634L732.321 218.012ZM737.728 213.018C737.118 213.341 736.884 214.097 737.207 214.708C737.529 215.318 738.286 215.551 738.896 215.229L737.728 213.018ZM741.981 213.425C742.561 213.051 742.729 212.277 742.355 211.697C741.981 211.117 741.207 210.949 740.627 211.323L741.981 213.425ZM745.934 207.217C745.426 207.685 745.394 208.475 745.862 208.983C746.33 209.49 747.121 209.522 747.629 209.054L745.934 207.217ZM750.142 206.527C750.607 206.017 750.571 205.227 750.06 204.761C749.55 204.296 748.76 204.333 748.295 204.843L750.142 206.527ZM752.346 199.547C751.975 200.13 752.147 200.902 752.73 201.273C753.312 201.643 754.085 201.471 754.455 200.889L752.346 199.547ZM756.23 197.81C756.549 197.198 756.31 196.443 755.698 196.124C755.086 195.806 754.331 196.044 754.012 196.657L756.23 197.81ZM756.563 190.498C756.355 191.156 756.721 191.858 757.379 192.066C758.037 192.274 758.74 191.909 758.947 191.25L756.563 190.498ZM759.868 187.818C760.018 187.144 759.593 186.476 758.919 186.327C758.245 186.177 757.577 186.602 757.427 187.276L759.868 187.818ZM758.298 180.668C758.268 181.358 758.803 181.941 759.493 181.971C760.182 182.002 760.766 181.467 760.796 180.777L758.298 180.668ZM760.796 177.223C760.766 176.533 760.182 175.998 759.493 176.029C758.803 176.059 758.268 176.642 758.298 177.332L760.796 177.223ZM757.427 170.724C757.577 171.398 758.245 171.823 758.919 171.674C759.593 171.524 760.018 170.856 759.868 170.182L757.427 170.724ZM758.947 166.75C758.74 166.091 758.037 165.726 757.379 165.934C756.721 166.142 756.355 166.844 756.563 167.502L758.947 166.75ZM754.012 161.343C754.331 161.956 755.086 162.194 755.698 161.876C756.31 161.557 756.549 160.802 756.23 160.19L754.012 161.343ZM754.455 157.111C754.085 156.529 753.312 156.357 752.73 156.727C752.147 157.098 751.975 157.87 752.346 158.453L754.455 157.111ZM748.295 153.157C748.76 153.667 749.55 153.704 750.06 153.239C750.571 152.773 750.607 151.983 750.142 151.473L748.295 153.157ZM747.629 148.946C747.121 148.478 746.33 148.51 745.862 149.017C745.394 149.525 745.426 150.315 745.934 150.783L747.629 148.946ZM740.627 146.677C741.207 147.051 741.981 146.883 742.355 146.303C742.729 145.723 742.561 144.949 741.981 144.575L740.627 146.677ZM738.896 142.771C738.286 142.449 737.529 142.682 737.207 143.292C736.884 143.903 737.118 144.659 737.728 144.981L738.896 142.771ZM731.547 142.366C732.203 142.579 732.909 142.22 733.122 141.564C733.336 140.907 732.977 140.202 732.321 139.988L731.547 142.366ZM728.879 139.029C728.206 138.872 727.534 139.29 727.378 139.963C727.221 140.635 727.639 141.307 728.311 141.464L728.879 139.029ZM721.668 140.504C722.357 140.544 722.948 140.018 722.988 139.329C723.028 138.639 722.502 138.048 721.813 138.008L721.668 140.504ZM720.027 220.057C720.624 220.048 721.219 220.026 721.813 219.992L721.668 217.496C721.11 217.528 720.55 217.549 719.989 217.558L720.027 220.057ZM728.879 218.971C730.041 218.7 731.189 218.38 732.321 218.012L731.547 215.634C730.483 215.98 729.404 216.281 728.311 216.536L728.879 218.971ZM738.896 215.229C739.949 214.673 740.978 214.071 741.981 213.425L740.627 211.323C739.685 211.93 738.717 212.496 737.728 213.018L738.896 215.229ZM747.629 209.054C748.066 208.651 748.495 208.237 748.916 207.814L747.143 206.051C746.748 206.449 746.345 206.838 745.934 207.217L747.629 209.054ZM748.916 207.814C749.335 207.393 749.743 206.964 750.142 206.527L748.295 204.843C747.92 205.253 747.537 205.656 747.143 206.051L748.916 207.814ZM754.455 200.889C755.092 199.887 755.684 198.86 756.23 197.81L754.012 196.657C753.5 197.642 752.944 198.606 752.346 199.547L754.455 200.889ZM758.947 191.25C759.304 190.121 759.611 188.976 759.868 187.818L757.427 187.276C757.186 188.363 756.898 189.438 756.563 190.498L758.947 191.25ZM760.796 180.777C760.822 180.186 760.835 179.594 760.835 179L758.335 179C758.335 179.557 758.323 180.114 758.298 180.668L760.796 180.777ZM760.835 179C760.835 178.406 760.822 177.814 760.796 177.223L758.298 177.332C758.323 177.886 758.335 178.443 758.335 179L760.835 179ZM759.868 170.182C759.611 169.024 759.304 167.879 758.947 166.75L756.563 167.502C756.898 168.562 757.186 169.637 757.427 170.724L759.868 170.182ZM756.23 160.19C755.684 159.14 755.092 158.113 754.455 157.111L752.346 158.453C752.944 159.394 753.5 160.358 754.012 161.343L756.23 160.19ZM750.142 151.473C749.743 151.036 749.335 150.607 748.916 150.186L747.143 151.949C747.537 152.344 747.92 152.747 748.295 153.157L750.142 151.473ZM748.916 150.186C748.495 149.762 748.066 149.349 747.629 148.946L745.934 150.783C746.345 151.162 746.748 151.551 747.143 151.949L748.916 150.186ZM741.981 144.575C740.978 143.929 739.949 143.327 738.896 142.771L737.728 144.981C738.717 145.504 739.685 146.07 740.627 146.677L741.981 144.575ZM732.321 139.988C731.189 139.62 730.041 139.3 728.879 139.029L728.311 141.464C729.404 141.719 730.483 142.02 731.547 142.366L732.321 139.988ZM721.813 138.008C721.219 137.974 720.624 137.952 720.027 137.943L719.989 140.442C720.55 140.451 721.11 140.472 721.668 140.504L721.813 138.008Z" fill="#AAAAAA"/>
<path d="M720.007 218.807C709.454 218.646 699.389 214.38 691.985 206.933C684.58 199.485 680.43 189.452 680.43 179C680.43 168.548 684.58 158.515 691.985 151.067C699.389 143.619 709.454 139.354 720.007 139.193" stroke="#002D72" stroke-width="3"/>
<path d="M720.009 199.222C722.69 199.222 725.344 198.699 727.821 197.683C730.297 196.667 732.548 195.178 734.443 193.301C736.339 191.424 737.842 189.195 738.868 186.743C739.894 184.29 740.422 181.661 740.422 179.006L730.336 179.006C730.336 190.168 725.712 199.222 720.009 199.222Z" stroke="#002D72" stroke-width="3"/>
<path d="M730.336 179.005L740.422 179.005C740.422 176.35 739.894 173.721 738.868 171.268C737.842 168.816 736.339 166.587 734.443 164.71C732.548 162.833 730.297 161.343 727.821 160.327C725.344 159.312 722.69 158.789 720.009 158.789C725.712 158.789 730.336 167.842 730.336 179.005Z" stroke="#002D72" stroke-width="3"/>
<path d="M720.008 158.789C714.594 158.789 709.402 160.919 705.574 164.71C701.746 168.501 699.595 173.643 699.595 179.005L709.671 179.005C709.671 167.842 714.305 158.789 720.008 158.789Z" stroke="#002D72" stroke-width="3"/>
<path d="M720.008 199.222C714.305 199.222 709.671 190.168 709.671 179.006L699.595 179.006C699.595 181.661 700.123 184.29 701.149 186.743C702.175 189.195 703.678 191.424 705.574 193.301C707.469 195.178 709.72 196.667 712.196 197.683C714.673 198.699 717.327 199.222 720.008 199.222Z" stroke="#002D72" stroke-width="3"/>
<path d="M730.336 179.006L720.009 179.006L720.009 199.222C725.712 199.222 730.336 190.168 730.336 179.006Z" stroke="#002D72" stroke-width="3"/>
<path d="M709.671 179.006C709.671 190.168 714.305 199.222 720.008 199.222L720.008 179.006L709.671 179.006Z" stroke="#002D72" stroke-width="3"/>
<path d="M730.336 179.005C730.336 167.842 725.712 158.789 720.009 158.789L720.009 179.005L730.336 179.005Z" stroke="#002D72" stroke-width="3"/>
<path d="M709.671 179.005L720.008 179.005L720.008 158.789C714.305 158.789 709.671 167.842 709.671 179.005Z" stroke="#002D72" stroke-width="3"/>
<path d="M671.528 169.159L657.117 179.005L671.528 188.841L671.528 183.451L689.446 183.451L689.446 174.559L671.528 174.559L671.528 169.159Z" fill="#002D72" stroke="#002D72" stroke-width="3"/>
<path d="M768.66 189.086L783.062 179.24L768.66 169.404L768.66 174.804L750.742 174.804L750.742 183.696L768.66 183.696L768.66 189.086Z" fill="#99ABC7" stroke="#002D72" stroke-width="2.5"/>
</g>
<path d="M360.669 294.4H356.997V292.672H355.629V294.4H351.813V295.516H360.669V294.4ZM352.749 299.116C352.731 300.79 354.171 301.906 356.277 301.888C358.383 301.906 359.841 300.79 359.841 299.116C359.841 297.406 358.383 296.29 356.277 296.272C354.171 296.29 352.731 297.406 352.749 299.116ZM354.045 299.116C354.027 298.054 354.927 297.352 356.277 297.352C357.627 297.352 358.545 298.054 358.545 299.116C358.545 300.142 357.627 300.862 356.277 300.844C354.927 300.862 354.027 300.142 354.045 299.116ZM354.585 308.224H364.737V302.716H363.369V304.336H355.953V302.716H354.585V308.224ZM355.953 307.108V305.416H363.369V307.108H355.953ZM360.633 300.664H363.369V302.032H364.737V292.816H363.369V296.452H360.633V297.604H363.369V299.512H360.633V300.664ZM374.75 293.752H367.982V294.868H373.382V297.064H368.018V301.708H369.134C372.284 301.69 373.886 301.636 375.83 301.312L375.686 300.16C373.85 300.502 372.338 300.574 369.386 300.556V298.144H374.75V293.752ZM369.782 304.372H378.926V308.44H380.294V303.256H369.782V304.372ZM375.794 299.512H378.926V302.428H380.294V292.816H378.926V295.156H375.794V296.272H378.926V298.36H375.794V299.512ZM388.146 296.992V294.148H386.778V296.992C386.778 299.854 384.96 302.842 382.674 303.976L383.574 305.092C385.32 304.138 386.796 302.176 387.498 299.872C388.2 302.05 389.622 303.886 391.35 304.804L392.214 303.688C389.964 302.59 388.146 299.746 388.146 296.992ZM393.618 308.44H395.022V300.34H397.614V299.152H395.022V292.816H393.618V308.44Z" fill="#111111"/>
<circle cx="374" cy="179" r="85" stroke="#002D72" stroke-width="10"/>
<g clip-path="url(#clip1_641_3141)">
<path d="M362.001 157.969L345.539 174.34C345.197 174.68 344.926 175.083 344.741 175.527C344.556 175.971 344.461 176.447 344.461 176.927C344.461 177.408 344.556 177.883 344.741 178.327C344.926 178.771 345.197 179.175 345.539 179.514L367.812 201.652L375.72 209.511C376.396 210.207 377.307 210.63 378.278 210.697C379.249 210.764 380.21 210.472 380.977 209.876C381.391 209.539 381.729 209.12 381.969 208.646C382.21 208.171 382.348 207.652 382.375 207.122C382.401 206.591 382.315 206.061 382.123 205.565C381.931 205.069 381.636 204.619 381.258 204.244C381.985 204.917 382.946 205.283 383.94 205.266C384.933 205.249 385.881 204.849 386.583 204.15C387.286 203.452 387.688 202.51 387.706 201.523C387.723 200.535 387.355 199.58 386.677 198.857C387.028 199.232 387.452 199.532 387.922 199.741C388.392 199.949 388.9 200.061 389.415 200.07C389.93 200.079 390.441 199.985 390.919 199.793C391.396 199.601 391.83 199.316 392.194 198.954C392.558 198.592 392.845 198.161 393.038 197.687C393.231 197.212 393.325 196.704 393.316 196.192C393.307 195.68 393.195 195.176 392.985 194.708C392.775 194.241 392.473 193.82 392.097 193.471C392.815 194.182 393.788 194.582 394.802 194.582C395.816 194.582 396.789 194.182 397.507 193.471C397.864 193.118 398.147 192.698 398.34 192.236C398.533 191.774 398.632 191.278 398.632 190.778C398.632 190.278 398.533 189.782 398.34 189.32C398.147 188.858 397.864 188.438 397.507 188.085L394.806 185.392L367.216 157.969C366.524 157.283 365.586 156.897 364.609 156.897C363.631 156.897 362.693 157.283 362.001 157.969V157.969Z" fill="white" stroke="#002D72" stroke-width="2.5" stroke-linejoin="round"/>
<path d="M364.639 206.65C363.141 208.138 363.14 210.55 364.635 212.036C366.131 213.523 368.558 213.522 370.055 212.033L375.363 206.757C376.86 205.269 376.862 202.857 375.366 201.371C373.87 199.884 371.444 199.886 369.947 201.374L364.639 206.65Z" fill="white" stroke="#002D72" stroke-width="2.5" stroke-linejoin="round"/>
<path d="M359.224 201.267C357.727 202.755 357.726 205.167 359.221 206.654C360.717 208.14 363.144 208.139 364.641 206.651L369.949 201.375C371.446 199.887 371.448 197.475 369.952 195.988C368.456 194.502 366.03 194.503 364.532 195.991L359.224 201.267Z" fill="white" stroke="#002D72" stroke-width="2.5" stroke-linejoin="round"/>
<path d="M353.803 195.876C352.305 197.364 352.304 199.776 353.8 201.263C355.295 202.749 357.722 202.748 359.219 201.26L364.527 195.984C366.025 194.496 366.026 192.084 364.53 190.597C363.034 189.111 360.608 189.112 359.111 190.6L353.803 195.876Z" fill="white" stroke="#002D72" stroke-width="2.5" stroke-linejoin="round"/>
<path d="M348.381 190.494C346.883 191.982 346.882 194.394 348.378 195.88C349.873 197.367 352.3 197.366 353.797 195.877L359.105 190.601C360.603 189.113 360.604 186.701 359.108 185.215C357.613 183.728 355.186 183.729 353.689 185.218L348.381 190.494Z" fill="white" stroke="#002D72" stroke-width="2.5" stroke-linejoin="round"/>
<path d="M381.234 157.842L376.854 162.195L374.161 164.872L369.049 169.953L368.93 182.86C368.929 183.37 369.032 183.876 369.233 184.346C369.433 184.816 369.726 185.242 370.095 185.597C370.463 185.953 370.9 186.231 371.379 186.415C371.858 186.6 372.37 186.687 372.883 186.671C373.896 186.612 374.846 186.167 375.537 185.428C376.228 184.69 376.605 183.715 376.59 182.707V178.473C376.592 177.044 377.024 175.648 377.83 174.465C378.636 173.282 379.78 172.365 381.114 171.833L395.864 186.417L402.936 179.387C403.627 178.7 404.015 177.768 404.015 176.796C404.015 175.824 403.627 174.892 402.936 174.204L386.465 157.842C386.123 157.499 385.716 157.226 385.267 157.04C384.818 156.854 384.336 156.758 383.849 156.758C383.363 156.758 382.881 156.854 382.432 157.04C381.983 157.226 381.576 157.499 381.234 157.842V157.842Z" fill="white" stroke="#002D72" stroke-width="2.5" stroke-linejoin="round"/>
<path d="M381.25 204.235L375.234 198.256" stroke="#002D72" stroke-width="2.5" stroke-linejoin="round"/>
<path d="M386.672 198.849L380.656 192.87" stroke="#002D72" stroke-width="2.5" stroke-linejoin="round"/>
<path d="M392.086 193.463L386.07 187.484" stroke="#002D72" stroke-width="2.5" stroke-linejoin="round"/>
<path d="M355.902 151.424L338.852 168.371L345.196 174.677L362.247 157.729L355.902 151.424Z" fill="#99ABC7" stroke="#002D72" stroke-width="2.5" stroke-linejoin="round"/>
<path d="M385.746 157.152L402.797 174.099L409.141 167.793L392.09 150.846L385.746 157.152Z" fill="#99ABC7" stroke="#002D72" stroke-width="2.5" stroke-linejoin="round"/>
</g>
<rect x="454" y="176" width="166" height="6" fill="#002D72"/>
<path d="M1050.82 292.816H1049.45V296.992H1046.72V298.108H1049.45V300.232H1046.72V301.384H1049.45V304.732H1050.82V292.816ZM1037.9 295.876H1046.75V294.724H1043.08V292.816H1041.71V294.724H1037.9V295.876ZM1038.83 299.692C1038.82 301.474 1040.27 302.68 1042.36 302.68C1044.47 302.68 1045.93 301.474 1045.93 299.692C1045.93 297.91 1044.47 296.722 1042.36 296.704C1040.27 296.722 1038.82 297.91 1038.83 299.692ZM1040.13 299.692C1040.11 298.576 1041.03 297.82 1042.36 297.82C1043.69 297.82 1044.63 298.576 1044.63 299.692C1044.63 300.826 1043.69 301.6 1042.36 301.6C1041.03 301.6 1040.11 300.826 1040.13 299.692ZM1040.74 308.08H1051.18V306.928H1042.11V303.688H1040.74V308.08ZM1066.77 292.816H1065.48V299.08H1063.17V293.14H1061.91V307.612H1063.17V300.232H1065.48V308.44H1066.77V292.816ZM1053.99 304.552H1055C1057.41 304.552 1059.02 304.48 1060.87 304.084L1060.76 302.932C1059.03 303.292 1057.56 303.364 1055.4 303.4V295.84H1059.86V294.724H1053.99V304.552ZM1071.35 294.256H1069.77V307H1071.35V294.256ZM1073.48 295.66H1077.47V307H1079.06V295.66H1083.05V294.256H1073.48V295.66ZM1093.33 298.288H1094.92C1094.45 295.642 1092.36 294.094 1089.8 294.112C1086.53 294.094 1084.15 296.614 1084.15 300.628C1084.15 304.66 1086.53 307.18 1089.8 307.18C1092.38 307.18 1094.47 305.614 1094.92 303.004H1093.33C1092.95 304.75 1091.46 305.686 1089.8 305.704C1087.48 305.686 1085.7 303.922 1085.7 300.628C1085.7 297.352 1087.48 295.57 1089.8 295.588C1091.46 295.57 1092.97 296.524 1093.33 298.288Z" fill="#111111"/>
<circle cx="1066" cy="179" r="85" fill="white" stroke="#99ABC7" stroke-width="10"/>
<g clip-path="url(#clip2_641_3141)">
<path d="M1085.52 173.913V160.723L1073 173.913V160.723L1060.48 173.913V160.723L1046.53 175.413V211.024H1098.04V160.723L1085.52 173.913Z" fill="white" stroke="#002D72" stroke-width="2.5"/>
<path d="M1051.15 152.976H1033.96V211.024H1051.15V152.976Z" fill="#99ABC7" stroke="#002D72" stroke-width="2.5"/>
<path d="M1045.02 158.888H1040.09V165.393H1045.02V158.888Z" fill="white" stroke="#002D72" stroke-width="2.5"/>
<path d="M1045.02 169.993H1040.09V176.498H1045.02V169.993Z" fill="white" stroke="#002D72" stroke-width="2.5"/>
<path d="M1045.02 181.098H1040.09V187.603H1045.02V181.098Z" fill="white" stroke="#002D72" stroke-width="2.5"/>
<path d="M1045.02 192.203H1040.09V198.708H1045.02V192.203Z" fill="white" stroke="#002D72" stroke-width="2.5"/>
<path d="M1090.73 183.074H1058.44V186.713H1090.73V183.074Z" fill="white" stroke="#002D72" stroke-width="2.5"/>
<path d="M1090.73 191.086H1058.44V194.726H1090.73V191.086Z" fill="white" stroke="#002D72" stroke-width="2.5"/>
</g>
<mask id="path-41-inside-1_641_3141" fill="white">
<path d="M824 176H977V182H824V176Z"/>
</mask>
<path d="M977 171H971.9V181H977V171ZM966.8 171H956.6V181H966.8V171ZM951.5 171H941.3V181H951.5V171ZM936.2 171H926V181H936.2V171ZM920.9 171H910.7V181H920.9V171ZM905.6 171H895.4V181H905.6V171ZM890.3 171H880.1V181H890.3V171ZM875 171H864.8V181H875V171ZM859.7 171H849.5V181H859.7V171ZM844.4 171H834.2V181H844.4V171ZM829.1 171H824V181H829.1V171ZM977 166H971.9V186H977V166ZM966.8 166H956.6V186H966.8V166ZM951.5 166H941.3V186H951.5V166ZM936.2 166H926V186H936.2V166ZM920.9 166H910.7V186H920.9V166ZM905.6 166H895.4V186H905.6V166ZM890.3 166H880.1V186H890.3V166ZM875 166H864.8V186H875V166ZM859.7 166H849.5V186H859.7V166ZM844.4 166H834.2V186H844.4V166ZM829.1 166H824V186H829.1V166Z" fill="#99ABC7" mask="url(#path-41-inside-1_641_3141)"/>
<defs>
<clipPath id="clip0_641_3141">
<rect width="82" height="130" fill="white" transform="translate(655 220) rotate(-90)"/>
</clipPath>
<clipPath id="clip1_641_3141">
<rect width="72" height="64" fill="white" transform="translate(338 150)"/>
</clipPath>
<clipPath id="clip2_641_3141">
<rect width="66" height="60" fill="white" transform="translate(1033 152)"/>
</clipPath>
</defs>
</svg>
